<?xml version="1.0" encoding="UTF-8"?>
<svg fill="currentColor" xmlns="http://www.w3.org/2000/svg" viewBox="0 0 164.26 140"> 
  <path d="M162.67,58.44l.13-.47.72-1.42v-.99l-.65-.98-.08.25.22.52-.27.61-.44.59v1.14l.12.76h.24ZM100.59,102.25l-1.09-.26-.08-.5-1-.2-2.04.5-.86.34-.17.2-.05.27.44.66.96.07,1.7-.02.75.2.56-.38.06-.37,1-.07.92.07-.45-.52h-.65ZM142.43,122.61l.14.82.75-.32.05-.42-.22-.85-1.27-1.01-.26.25-.19.32.54.45.45.78ZM143.48,123.6l-1.1.24.19.25.93.2.54-.07-.13-.45-.44-.17ZM143.39,128.04c-.06-.36-1.13-3.31-1.64-1.97-.31.8-.71-.21-1.15-.02-.41.18-.51.76-.99.82-1.68.24-4.21,1.6-5.88.47-.76-.51-1.86-1.54-2.85-1.54-.82,0-1.92.47-1.92-.5,0,2.55.61,6.58,3.15,8.01-.09.22-.32.58-.5.74-.31-.49-.62-.97-.93-1.46.52,1.72,1.7,6.12,4.12,5.81-.34.22-.37.43-.8.62.43.4,2.75,1.07,3.33.95.92-.18.92-3.54,1.97-1.77.05-.19.89-2.1.94-2.14.53-.4,1.12.25,1.73-.32.15-.13.41-1.91.41-2.12-.02-.65.64-1.26.88-1.87.31.54.39,1.2.33,1.82.32-.82-.13-1.64-.19-2.5-.08-1.03.19-2.02,0-3.04ZM164.13,69.39c-.17-1.38-1.69-4.02-1.21-5.27.11.06.21.12.32.18-.59-1.82-.19-3.49-.54-5.25-.09.13-.18.26-.27.39-.73-1.06-.39-2.55-1.61-3.03-.15-.06-.33-.83-.58-1.13-.66-.83-1.05-.85-1.85-1.61-.83-2.69-4.46-1.94-4.89-4.95-.19-1.36-.1-2.91-.95-3.94.02.35-.2.71-.18,1.05-.73-.51-1.92-.82-2.05-1.82-.79.48-.31,1-1.04,1.44-.54.33-.99-1.49-1.16-1.73.08-2.25-1.03-2.85-1.9-4.85-.51-.55-1.53.05-1.1-1.31.18.04.36.08.54.13-.03-1.81-2.34-1.36-3.03-2.54-1.76-.18-2.61-.34-2.92-2.3-1.47.88-5.06-.78-4.41-2.72-.08.08-.17.16-.25.25-1.06-1.18-1.1-3.83-1.47-5.79-.28-1.47-.52-.67-1.28-1.63-.72-.9-.42-1.86-.9-2.79-.49-.93-.02-2.2-.45-3.01-.44-.83.25-1.22-1.19-1.76-.31-.22-1.04-.71-1.29-.96-.81-.81-.41-1.73-2-.8-.95.56-1.19.66-1.96-.23-.7-1.79-.85-3.7-1.53-5.32-.19-.45-.2-.81-.4-1.21-.18-.36-.78-.98-.73-1.3.08-.58.24-1.14-.48-1.14-.96,0-.63-2.76-.84-3.53-.37-1.35.17-.86-.75-.73-1.14.76-1.29.04-1.29,1.7-.54.9-.78.92-1.13,2-.46,1.4-1.16.67-1.47,2.16-.33,1.61.39.56.37,1.8,0,.27-.19,1.58-.27,1.85-.33,1.2-.64,1-.55,2.4.1,1.49.42,3.13.33,4.61-.18,3.15-2.47,5.71-2.85,8.82-1.53,2.13-6.01,1.25-7.09-1-.52-1.07-.82-1.06-2.03-1.36-1.73-.43-2.48-1.24-3.95-1.98-1.28-.65-3.74-2.59-5.13-1.15.15-1.02-.2-2.06-1.09-2.43-.35-.15-1.7-.66-1.81-.84-.46-.77-1.04-.85-.11-1.87.35-1.2.87-2.47,1.35-3.61-.23.06-.47.13-.7.19.09-.61.21-1.22.35-1.82.06.06.8.66.94.78-.28-.6-.35-.94.1-1.32.27.49.83.72,1.2.14.5-.79-.25-.78.04-1.37-.04.07.46-.04.48-.05.45-.27.8-1.29,1.05-1.74-.33-.57-1.08-.28-1.43.07.11-3.56-1.52.69-2.29.84-.09-.53-.01-1.09-.1-1.62-.81.51-.79.02-.27-.65-1.08.6-1.99.1-2.96,1.23-.26-.36-1.7-1-2.12-1.05-.78-.09-3.76.38-3.72-1-.94.31-1.36.22-2.42-.02-.89-.2-1.32-2.08-1.93-.68-1.2-.67-1.96-2.3-2.43-.27-.05-.45-.2-.87-.43-1.25-.65.48-.4.22-.93.5.54.2.62.29,1.08.68.65.55,1.07.13,1.84.32.54.5.46.72.49,1.47.08,2.32-4.65.62-5.34,1.51-.68-.46-1.27-.23-1.66.39.34.52.24.63.35,1.13-.2-.41-.37-.59-.82-.77-1.37-.53-.09.19-.72.4-1.73.79-1.08.48-1.78,2.19.63-.02.99.47.42.99-.6.55-1.22.02-1.86.57-.51.44-.27,1.83-1.4,1.67-.78,1.21.4,2.13,1.28,2.88-.07-.2-1.22,1.66-.54,1.48-.37.1-1.04-.79-1.34-1.03-.87-.67-1.31-.21-2.34-.34-.72-.09-1.17-.42-1.05.41-1.12-.38-.95.52-1.4,1.21-.35-.65-.2-1.4.05-2.14-.92-.54-1.54-1.4-2.28-2.14-.7-.7-2.46-1.61-3.47-1.26.38.96-1.2,1.61-1.67.81-.2.35-.51.43-.72.71-.07-.48-.36-.6-.49-.98-.38,1.07.69,1.83-1.13,2.66.1-1.13-2.24-.56-2.21.52,0,.34.33.94.47,1.25-.59-.34-2.13-.64-1.55.54.65,1.33-.31.24-1,.44-1.01.29-.31,1.31-.5,2.06-.1.37-.74.47-.81.91-.05.28.4,1.27.57.91-.81,1.77-2.8-2.04-4.03-.71-.78.84,2.03,3.69.27,3.4.06.61-.07,1.24-.37,1.77-1-1.21-2.19-2.84-2.5-4.41-.31.43-.42.64-.4,1.21-.73.07-1.94,1.15-2.38,1.79-.58.84-.04,2.65.57,3.26-.58.79-1.87,1.32-2.29,1.78-.11.98-1,2.58-1.76,3.19-2.36,1.89-4.73,1.69-7.27,2.74-.98.4-1.57-.54-2.76.43-.88.71-1.29.58-2.43.84-1.19.27-1.89,1.19-3.11,1.3-.91.08-2.35-.53-3.08-.41-.92.45-3.21,1.28-3.76,2.11-.5.76-1.33,1.03-1.78,1.86-.58.27-1.2.03-1.71.47-1.08.94-1.99.67-2.65,2.18-.15.34-.6,1.6-1.25,1.08.21-.45.25-2.26.27-2.87-.15.12-.31.23-.44.37-.72.79-1.54,2.15-1.53,3.34,0,.59.47,1.01.47,1.8,0,.63.15,1.04-.06,1.62-1.45,1.01-1.41,1.94-1.41,3.51,0,1.42,2.6,2.98,2.08,4.46.06-.07.12-.15.18-.22.51,1.38,1.44,1.6.93,3.41-.9,1.19-.9-.13-1.22-.93-.16.25-.47.4-.62.65-.11-.92-.33-1.95-1.02-2.59-.03.81.34,1.42.67,2.15.13.3.87.96.9,1.15.16,1.27-.86.87-1.34.64-.04-.89-.57-1.29-1.08-1.64-.38,1.67,2.69,3.31,3.16,4.65.34.96.39,2.2.74,3.08.6,1.05,1.52,1.93,1.76,3.12.3,1.47,1.29,2.73,1.5,4.36.19,1.43.35,2.9,1.15,4.14,1.08,1.67,2.89,6.4,1.89,8.39-.03-.14-.06-.28-.09-.42.09,1.3.3,5.91-2.31,4.41-.1.97-.06,1.98.07,2.95.87.04,1.64.41,2.31.94.69.54,1.37,1.71,2.24,1.81.68.08.13-.14.73.08,1.99.74,4.15.94,6.07,1.11.04-.24.07-.47.1-.71,1.12.98,2.45-1.02,3.26-1.65,1.05-.82,2.43-.43,3.47-1.23.38-.29.55-1.83,1.88-1.79.98.03,1.95.06,2.93.09.87.02,1.27-.52,2.29-.4.94.11,1.92.2,2.84-.13,1.1.57.18.74,1.82.4,2.09-.42,4.13.61,5.41-1.27.81-1.18.96-2.41,2.29-3.08,2.98.1,5.1-3.12,8.12-2.85,1.83.16,3.58-.4,5.37-.64,2.08-.27,3.41-1.06,5.37-1.9,2.89-1.25,8.13-1.21,11.12-.22.63.54,1.26,1.1,1.99,1.51.99.56.89.07,1.85-.09.98.38,1.98,1.2,3.05,1.23-.05-.17-.09-.35-.14-.52.89.33,1.37,1.48,2.27,1.69.78.18,2.14.91.78,1.22-.39,1.75,2.2,1.6,2.74,2.42.47.71.46,1.5,1.18,1.98.86.57,1.68,2.96,1.39,3.93-.33-.32-.84-.46-1.16-.79,0,.85,2.68,2.39,3.46,2.6.09-.32.05-.86,0-1.19-.14.02-.27.03-.41.05.13-1.1,1.94-2.78,2.69-3.4.48-.4,1.26-1.11,1.7-1.3.48-.21.81.21,1.14-.29.63-.99,1.01-2.12,1.67-3.11.17-.45.4.21.36-.75-.02-.53-.01-.78.22-1.25.35.95.83,1.72.95,2.88-.14-.03-.28-.06-.42-.09-.07,2.25-1.28,3.36-1.89,5.54-.1.58.52,1.8-.34,2.24-.41.21-1.62.18-1.69.42-.56,1.93,1.03,1.47,2.38.8,1.15-.56,1.01.28,1.34-1.8.15-.98.51-1.55,1-2.41,2.19,1.58,1.91,4.51.27,6.38,1.6.58,3.36-1.6,4.7-.96.29.14-.25.95-.32,1.1-.15.32,1.42,2.01,1.66,2.46,1.06,1.94.03,3.2.87,5.03.35.75,1.76,2.63,2.46,3,1.01.53,2.01.42,2.99.95.59.31.72.44,1.1.98.27.39.65-.2,1.09-.27,2.2-.37,4.75,2.4,6.74,2.6,1.17-.24,2-.53,2.73-1.45.63-.78,1.54-1.29,2.54-1.39-.3-.21-.63-.61-1.07-.78.89-.04,1.83-1.32,2.58-.57.71.72-.16,1.89-1.06,1.63,1.02,1.38,2.32-.57,2.98,0,.36.31.1,1.28.65,1.92.29.34.67-.27.99.32.25.46.43.29.8.59.41.33.92.71,1.37,1.23.38-.59.37-1.18.72-1.82-.5.15-.79.17-1.12.72-1.04-1.5,1.58-.83,1.96-.97,1.15-1.28,2.96-2.51,4.62-3.07,2.03-.68,4.22-.69,6.29-1.23,1.06-.28.85-1.68,1.92-.92.86-2.24.59-4.96.95-7.19.27-1.67,1.27-2.44,1.72-4.13.2.15.39.3.59.45.16-1.86.98-3.66,1.75-5.22.25-.51,1.28-1.48.14-1.84,1.44-.93,1.8-3.53,3.78-3.82-.12-.07-.25-.13-.37-.2.39-.2.79-.37,1.18-.78.76-.81.2-1.18.91-2.07.35-.45.65-.92.89-1.43.37-.76.95-1.99,1.04-2.83-.3-1.08-.21-2.24.26-3.25,1.19-2.6,1.55-5.99,1.19-8.86ZM93.64,10.42s0,0,0,0c.04.03.03.02,0,0Z"/>
</svg>
