<?xml version="1.0" encoding="UTF-8"?>
<svg fill="currentColor" xmlns="http://www.w3.org/2000/svg" viewBox="0 0 180 102.14">
  <path  d="M179.35,75.72c-.27.05.18-.2.65-.09-.32-.21-.33-.38-.81-.54.24-.1.16-.16.51-.15-.17-.75-.39-1.24-1.16-1.61,1.7,1.03.87-.74.81-1-1.02-.37-2.21-1.51-2.9.34-.2-1.64.4-3.33-2.44-2.11.6-.12.96-.03,1.52.13-2.35-.13-3.46,1.64-5.48,2.38.43-1.24-1.01-1.06-1.58-1.54.57-.04,1.82.65,2.12.29.62-.76,1.92-.8,2.88-1.22-.54.13-1.17.37-1.78.36,1.03-.76,4.59-.76,4.31-2.02-.31-1.41-2.97.62-3.15-1.43-.03,0-.26.22-.37.22.02-.14.03-.28.05-.41-.35.32-.82.59-1.14.96.22-.25.3-.65.47-.94-.27-.16-.28-.25-.44-.38-.65.2-.93.16-1.58.19.31-.43.4-.9.26-1.49-.27-.02-.39.06-.61.15-.21-.59-.78-.72-1.46-.59.26-.73-.31-1.27-1.34-.92.29-.13.11-.16.51-.24-.16-.09-.44-.49-.65-.59.23-.11.32-.2.6-.25-.75-.34-1.63-.11-2.47-.28.51-.07,1.01-.18,1.54-.19-.11-.06-.34-.17-.55-.23.04-.06.08-.13.11-.19.43.31.95.31,1.36.45.05-.76,1.36-1.59-.32-1.75.13-.65-.42-.76-1.16-.56.16-.07,1.65-.61.9-1.04-.63-.36-.46-.73-1.23-.47.22-.27.06-.3.44-.46-.46-.57-1.15-.35-1.77-.04.41-.25.69-.57,1.17-.74.46-.91-.81-.64-1.86-.78.37-.22,1-.14,1.46-.49-.36-.31-.07-.17-.25-.51-.21.01-.43,0-.64.02.15-.42-.04-.52.12-.89-.76.06-1.57.09-2.21.31.41-.34,2.63-.62,1.45-.9-.1-.57-.01-.4-.36-.18-.23-.19-.11-.32-.53-.32.19-.16.34-.29.49-.48-.34-.09-.42-.09-.77-.08,0-.03-.08-.54.17-.33-.4-.44-.33-.71-.95-.76.21-.64.2-.7-.17-1.12-.17-.93-3.2,1.24-1.39,2.46-.31.44-.68.7-1.05.63.08.75-.02,1.67-.94,1.26.62.44.78,1.03.18,1.61.33-.69-.08-1.14-.75-1.36-.58,1.47-2.16,1.1-2.77,2.45.01-.34-.16-.8-.15-1.16-.12.12-.24.23-.36.35.03-.27.05-.6.1-.87-1.01,1.34-.91,2.08-2.84,2.56,1.11-.51,3.69-2.53,1.38-3.55-1.28-.56-2.18,1.08-3.51.46.77-.09.91-.08.55-.74.48.26.38-.03.72.48.81-.41,1.29-.72.41-1.11.18-.12.41-.34.57-.44-.21.03-.75-.12-.95-.11,1.84-2.16-1.99-2.26-3.34-2.42,1.25-.33,2.65.45,3.87-.12-.98-1.52.62-4.21-1.67-2.78.02-.93-.63-.44-1.32-.64-.28-.08-.93-.61-1.65-.31-.34-.42-.86-1.13.04-1.6-.58-.21-.83-.25-1.34.17.45-.99-.41-1.83-1.23-.97,1.05-1.1-.21-1.6-1.13-1.99-1.48-.63-2.5.44-3.72.67-.05-.6-.61-.5-1.16-.25-.02-1.02-3.51-.77-3.95-1.31-.8.54-1.69,1.22-1.46,2.26.18.81.99,1.48,1.64.89-.17,1.36-2.88,3.6-.06,3.66-.24.06-.48.11-.72.17.14.64,1.05,1.94.21,2.1v.3c.42-.06.74.08,1.14-.03-.64.55-.72,1.19.27,1.35-.53.01-1.7-.3-1.64.43.07.91.08.11-.45.84-.37.5-2.71.53-1.23,1.85,1.28,1.14,2.31.98,2.81,2.61.54,1.74.89,3.37,1.27,5.09.11-.31.36-.6.49-.92.82,1,.57,1.31-.44,1.16-.53-.08-1.6,1.96-2.02,2.4.17-.11.33-.21.5-.32-1.13,1.28-3.27,2.38-4.89,2.88,2.63.7.84,7.63,3.75,6.62-.94.15-1.46,1.11-2.32,1.23.66.6,1.11,1.23.13,1.62-.23-1.71-1.97-.96-1.51.47-1.16-.27-1.71-1.1-2.83.12,2.66-1.43-.6-3.32-2.33-2.84.42-.36.94-.56,1.49-.59-.36-.78-2.48-1.76-1.74-2.75.28-.37.05-2-.23-2.42-.46-.7.35-2.24,0-3.17-2.05.14-5.62-1.81-7.04.89,1.16-2.06-.13-2.31-2.1-2.91-1.02-.31-1.6-.59-2.24-1.07-1.83-1.35-3.34-1.77-5.42-2.7-.62-.27-1.08-1.13-1.94-.79-.75.29-2.05,1.06-2.43.73-.26.13-.51.26-.77.38,1.11-.8.25-3.09-.33-4.21-.43-.85-.22-1.77-1.23-1.81-.88-.04-1.77-.45-1.71.81.03-.32-.07-.63-.11-.93-.48-.07-.87-.43-1.27-.81.96-1.28.22-3.63.56-5.1.15-.64,2.13-2.45.26-3.01.95-.09,2.99-.81,2.28-1.99.96-.04,1.05-1.87,1.94-.5-.46-1.32-.11-2.11,1.26-1.98-1.07-.17-1.38-.96.08-.83.71.06,2.53-.06,2.81-.72.71-1.68-2.46-3.16-3.49-2.25.15-.16.25-.24.42-.38-.49-.13-.5-.34-1.04-.12-.3-.55-.93-.63-1.52-.94-.09.13-.29.88-.62.15-.48-1.06,1.67-.04,1.85.04.92.38,1.65.84,2.5.26.26.62,1.27.76,1.89,1.33.73-.32,1.55-.87,1.28-1.89.12.01.34.12.46.15-.1-.27-.06-.59-.18-.88.44.24.53.15.85.52-.04-.11-.03-.21.03-.3,2.43,1.56,4.71-2.39,5.43-4.47-.93-.31-2.19-.03-3.18-.36-.8-.26-1.25-.24-1.98-.7-.68-.43-.87-1.16-1.74-1.46.97-.96,3.55.53,4.39,1.56,1.12,1.36,2.67-.42,3.39-1.25.3-.35.9-1.09.93-1.54.1-1.23-.91-.28-1.36-1.12-.23-.44,3.13-1.86,3.21.43.2.06,1,.18,1.4.25,0-.25-.02-.5-.03-.75.51.28,1.19.64,1.58.89-.14-.79-1.04-1.66-.56-2.27,2.1,2.54,2.89-.01,4.81-1.44,2.63-1.96-1.87-3.01-.5-5.35-.24.1-.48.2-.71.3.09-.78-.34-.82-.47-1.7.27-.04.67-.07.95-.08.08.32.27.41.39.66.36-.6,2.73-2.67-.11-2.17,1.04-1.19,1.65-2.2-.77-1.83.09-.5-.26-.96-.83-1.13,1.01-.89-.3-1.17-1.17-1.07-.95.11-1.25-.51-2-.67-.99-.21-1.68.1-2.6,0-.09.84.05,1.6-.01,2.41-.08.94,1.24,1.12,1.64,1.65-.94-.13-1.36.73-.11,1.03-1.57-.1-2.15.1-2.28,1.7-.14,1.64-1.59,2.83-1.72,4.61-1.12-.62-.79,1.09-2.01.35-1.39-.84-2.25-3.67-1.42-4.97.06.39.03,1.01.64.65.47-.28-.12-1.18-.2-1.6-.12-.66-1.57-3.08-2.11-3.19-2.13-.4-1.51,3.61-2.74,4.62-.68-.91-.08-1.46-.24-2.38-.21-1.18-1.35-1.68-2-2.63.37.17.51.05.9.25.21-.38.27-.58.18-1.04-.47.22-.62.06-1.16-.07.06-.15.13-.34.18-.47-1.4,1.21-1.53-.38-2.85-.25.02-.53,2.76-1.95.49-2.01.16-1.01,1.08-.03,1.96-.31-.22-.37-.43-.76-.73-1.09-.13.18-.2.23-.33.35-.16-.5-.31-1.32-.56-1.72-.39-.63-1.2-.51-1.44-1.29-.24-.79.3-1.86-.57-2.93-.56-.7-1.37-.8-.95-1.88-.38-.04-.73-.11-1.02-.14-.14.22-.32.36-.47.56,0-.19-.02-.39-.03-.58-.1.07-.2.14-.3.21.37-1-.92-1.83-1.4-.9-.32.6-.64.99-1.02,1.58-.44.67.35.66.42,1.16.24,1.74-.74-.04-1.1.21-.38.27-.4.66-.56,1.07-.33.88-.42,2.42.56,2.67-.09.25-.04.4-.18.63-1.86-.02-.82,4.66,1.72,3.94.19.49.98,1.36,1.17.57.29.58.84,1.38,1.52.89,1.05-.76.95.89.34,1.42.06-.45-.07-.66.17-1.18-.69.15-1.23.64-1.24,1.41.08-.05.16-.09.23-.14-.27.96-.83.98-.94,2.02.77.24,1.43-.1,1.7-.87-.11.04-.29.28-.42.35.02-.29.12-.53.17-.81,1,.48.3,1.46,1,1.93-.87.71-1.36,1.6-2.21,2.15-.77.5-1.22.22-2.14.23.26.62-.16.87-.06,1.47.08.5.77.43.67,1.15-.04.32.4,1.38-.23,1.28-.52-.08-.26-.47-.15-.79-.53.31-.48.05-1.11.52v-.76c-.9-.1-.94-.5,0-.88-.62-.81.21-1.84,0-2.75-.63.14-.97.5-.89,1.11-.15-.02-.48-.17-.65-.28.3-.36.29-.72.48-1.12-.4.18-.67.04-.94.1.08-.08.16-.15.23-.23-.46-.38-.83-.58-1.35-.72.06.16.12.31.18.47-.28-.53-.68-.78-1.24-.63.27.18.46.56.65.74-.73-.07-1.08-.15-1.53.19-.27-.2-.2-.23-.53-.29.44.43.71.88.83,1.41-.1-.05-.2-.1-.3-.16.35.51.66,1.04,1.06,1.42-.26-1.21,1.24-.29,1.6-.55.81,2.46-1.64.98-2.35.4-.13-.1-.23-1.27-.77-1.02-.48.23.4,1.23.6,1.41-1.29.19-1.64-.07-2.72-.21-1.28-.17-3.1.91-4.2.41-.81-.37-1.09.35-1.69-.02-.89-.55-1.57-1.83-2.4-2.13-.12.7-.13.25-.47.44v.29c-.74-.09-2.06.15-1.88-.96-.88-.14-1.2-.84-1.96-1.02.14-.04.25-.22.59-.24-.39-.34-.6-.75-.41-1.13-1.49-1.37-1.57-.77-3.17-.18-.83.31-2.36.31-3.01.82-.56.44-1.22,1.71-.12,1.51.01.28-.19.26.25.25-.04.08-.08.16-.13.23.46-.05.44.09,1.06,0-.08.05-.16.1-.23.15.27-.03.58-.1.89-.19-1.18-.65.26-1.1.94-.47.49-.57.94-.57,1.13.04.12-.24.12-.44.1-.72-.02.08-.04.16-.06.24-.1-.18-.2-.35-.29-.53.22-.02.43-.05.65-.07-.1-.1-.2-.21-.3-.31.57-.25,1.11-.35,1.6-.4-.05.35-.11.27-.3.56.08.02.16.04.23.06-.47.23-.72.61-.88,1.22-.04-.13-.08-.25-.12-.38-.1.26-.11.25-.11.62-.74.12-1.02.71-1.59.34-.49.2-1.02.44-1.3.88.1.03.2.05.29.08-1.28.49-.38.91-.17,1.6.22.73.15,1.71,1.06,2.13l-.35.24c.14.2.27.4.41.59-.68,0-1.15.05-1.24.76-.53-.33-.96-.83-1.24-1.4,1.69.33.7-1.08.06-1.68-.55.22-.5-.4-.71-.88-.01.57-.26.9-.29,1.02-.22-.44-.3-.97-.23-1.53-.88.02-.97.17-1.7,0,0-.04-.08-.45-.13-.69.2.23-.37.03-.35.04.03-.37,0-.23-.17-.63-.66.33-1.4,1.24-2.24,1.28.02-.2.04-.39.06-.59-.46.44-.89.96-1.47.44-.1.08-.2.15-.3.23.08.05.16.1.24.14h-.42c.04-.07.08-.15.12-.22-2.29.3-4.92.3-7.12-.54.08-.06.16-.13.24-.2-.4.05-.36,0-.71-.15.57-.24.79-.65.59-1.11.57.08.66-.13,1.05-.19-.16-.07-.31-.14-.47-.2,1.02-.11,1.35.22,2.12,0-.03-.24,0-.55-.05-.86-.1.11-.2.22-.3.33.1-1.05-.95-1.45-1.4-2.1-.53-.02-.35-.07-1-.38.08-.05.15-.1.23-.15-.91-.22-1.28-.05-2.18-.09.22.16.43.33.65.49-.04.1-.08.19-.11.29-1.33-1.04-3.43-.38-5.16-1.5-.7-.45-1.16-.85-2.11-.85-1.37,0-1.98-.94-3.01-1.61-1.04-.67-1.77-.78-2.87-.89-1.18-.12-1.24-.05-1.81.62-.46.53-.34,1.26-1.04,1.63-.59.31-1.9.01-1.86-.54.02.11.05.21.07.32.21-.54.51-1.06.88-1.51-2.01.44.25-2.24-1.42-2.04.2.2.37.29.52.44-.27.13-.25.03-.44.32-.38-.52-1.24-.65-.89.2.26-.2.3-.24.56-.35-.16.4-.45.75-.79,1.03-.04-.09-.08-.19-.12-.29.41.48.3.82-.43,1.06.25.18.35.37.6.51-.46.1-.79.42-1.02.51.6-.1.69.05.98.12-1.57.52-2.96-.55-3.53-2.13-.22-.62-2.52-5.25-2.87-2.87.45.21.35.8,1.2.87-1.41.75-1.57,2.03-3.16,2.65.3-.5.31-.87.53-1.33-.55.58-2,1.25-2.81,1.36-.51.07-1.4,1.93-1.7,2.45.39-.96-.01-1.9-.73-.71-.03-.12-.05-.23-.08-.35-.09.14-.18.27-.27.41-.31-.96-.34-.12-.7.2-.66.6-1.44.83-2.22,1.17.13-.34.24-.55.49-.87,0,0,.26.35.23.33.33-.63.61-.76,1.23-1.23-.09.02-.19.04-.28.06.41-.64.93-.71,1.66-.92.75-.22.97-.25,1.77-.68.92-.5,2.91-1.5,1.8-2.61-.28.51-.71.6-1.06.7-.34.09-.58-.38-.84-.19-.18.14-.62.49-.79.56-.56.22-1,.69-1.72,1.1-.67.39-.94.4-1.53.4-1.14,0-1.07,2.11-2.79,1.99-.26-.02-1.65,1.18-1.68,1.46-.09.97,1.26,1.17.87,2.26-1.36-.86-.89-1.66-2.76-1.61.29.35.46.81.81,1.13-.97-.07-1.95-1.07-3-1.38,0,.14.11.22.11.38-1.49-.18-3.11-.99-4-1.71-.43-.34-2.56-1.68-2.7-1.96-.28-.54-2.1-.03-2.74-.5v38.69c0,1.38,3.14.09,3.87.25-.11.31-.03.68-.15.9.81.57,1.41,1.34,2.09,2.08.25-.17.41-.12.67-.3-.15-.12-.3-.25-.45-.37.29.09.51.27.69.46-.22.15-.45.29-.67.44,1.72.78,1.02,2.3,3.13.49.62-.53,1.21-2.14,2.53-1.84.81.18,1.54,2.26,2.08,2.83,1.05,1.1,2.18,2.18,3.15,3.65.61.92,1.18,1.97,1.69,2.84.93,1.58,1.61,1.25,3.19,2.25,1.41.9,1.49,1.01,1.38,2.89-.04.71-.13,1.18-.23,1.88-1.07-.24-.83,1.42.38,1.27-1.07,1.02,1.69,2.2,1.9,2.64.35.72-.23.92.44,1.72.42.5,1.27.39,1.13,1.01.23-.1.49-.09.74-.22.22.7-.11,3,.96,1.89.08.09.16.18.25.27.06.16.09.22.23.5-.39.05-.71.25-1,.34.37-.02.41.05.68.14-1.16.18-.44.76.36,1.09.45.19,1.39-.33,2.23.01-.1.02-.39.07-.46.12.49.16.35.27.54.46.14,0,.29.01.43.02-.31.07-.7.29-1.08.33,1.32.45,2.75.32,3.83.41-.35.77.31,2.48,1.2,1.27.08.08.16.17.23.25,0-.13,0-.41,0-.47.31.46.43.63.72.89-.18,1.05.42.53.77-.07-.08,1.26.52,1.15,1.37,1.49-.43-.02-.6.11-.9.2,1.42.8,4.39.31,6.2.31h7.67c4.98,0,9.96,0,14.94,0,5.46,0,10.92.02,16.39.03,2.29,0,4.58,0,6.87,0h4.08c1.13,0,3.05.59,2.52-1.16.69.12.82.85,1.13,1.46.27.53.96.32,1.52.46.88.22,2.42-.25,3.16.54.8.85,2.1.9,3.07.84.69-.04,1.74.55,2.37.43,1.14-.21,1.22-.83,2-1.56.02.2.05.41.07.61.27-.34.71-.72.88-1.23-.1.29-.1.75-.16,1,.48-.25.63-1.33.73-1.38,1.08-.52,1.99.88,2.27,1.69-.43-1.46.77-1.47,1.57-.83,1.4,1.12.67,2.11,3,1.66-.43.91.34,2.45.98,2.86-.23.4-.11.65-.15.97.3-.18.15,0,.38-.3.08.23.36.52.46.78,1.35-.34,4.76.45,5.84.75,1.17.32,1.74.58,2.51,1.51.3.37.37.97.98,1.35-.2-.05-.6-.03-.8-.07.52,1.35-1.33.37-1.84.59-.03-.5-.2-.39-.16-.9-.76.19-.39-.69-1.35-.66.9.83.57,1.58-.07,2.43-.42.55.14,1.07-.09,1.62-.27.66-.61.59-.9,1.02-.29.42-.43-.02-.63.59.03-.09-.13,1.38.07,1.06-.51.8-1.42-.34-1.47,1.05,1.73.31,2.11-.97,3.51-1.39.62-.18,1.09-.19,1.73-.02.43.12.8-.44,1.27-.53.84-.16,1.65-.17,2.49-.02-.15-1.27-1.05-.7-1.97-1.07,1.5-1.79,3.85-1.67,5.87-1.48-.19-.24-.29-.35-.49-.5,1.8.01,3.53-2.1,5.4-2.1h6.01c.9,0,1.12-1.02,2.23-.67.23-.3-.14-.16.33-.14.72-1.52.98-3.39,2.16-4.94.62-.82.77.13,1.33.28,1.05.28,2.46-1.12,2.46,1.21,0,1.21-.17,2.64.57,3.33.62.58.87.24,1.53.56,1.18.57,4.22-1.1,4.82-1.94.24.17.12.13.43.22-.5.31-.85.72-.92,1.18.98-.34,1.99-.08,3.02-.17-.31.1-1.12.29-1.51.62-.3.25-.79-.26-1.3-.14-.82.19-2.67,1.32-3.08,1.92.18-.13.42-.29.61-.4-1.34,1.15.09,2.56,1.16,2.51.55-.02,2.25-1.73,2.53-2.51.04.09.09.17.13.26.11-.14.21-.28.32-.42.5.52.63.62.67-.15,1.71.21,3.77-.95,5.44-1.47-.22-.02-.52-.11-.77-.13-.01.02.2-.43.28-.3-.5-.32-.73-.51-1.4-.37,0-.26-.1-.36-.12-.59-1.18.95-2.81.13-4.17-.14.12-.1.22-.24.39-.37-.8-.5-1.73-.21-2.07-1.14-.27-.74-.13-1.62-1.12-1.38.79-.59,1.35-1.58.49-2-.35-.17-1.08.33-1.46.29-.37-.04-1-.73-1.77-.66.59-.3,6.1-.15,4.59-2.08.14-.07.24.08.35.03-1.55-2.87-7.03-.37-8.98.66-1.9,1.01-3.51,4.08-5.62,4.38,1.98-1.98,3.2-3.73,5.32-5.43.93-.75,1.82-.48,2.78-1.07.83-.52.82-1.58,1.85-2.02,1.62-.7,4.32-.66,6.27-.37,1.78.26,5.59.79,6.96-.48-.06,1.52,2.92-1.96,3.46-2.27,1.07-.6,2.31-.19,3.37-.52.89-.28,1.97-1.23,2.64-1.98-.17-.19-.38-.35-.61-.47h0Z"/>
</svg>
