<?xml version="1.0" encoding="UTF-8"?>
<svg fill="currentColor" xmlns="http://www.w3.org/2000/svg" viewBox="0 0 148.08 140">  
  <path d="M27.72,104.25c.37.85.5,1.6,1.47,1.2-1.53,1.56,1.45,3.53,1.98,4.61,1.01,2.05,2.02,4.05,2.51,6.32.36,1.67.91,4.45,2.29,5.58,2.1,1.72,2.77,3.5,3.51,6.03.63,2.17,1.93,4.11,2.57,6.3.53,1.8,2.03,3.92,3.5,5.07,1.55,1.2,3.73.63,4.6-1.16.29-.59.06-2.05.84-2.4,1.2-.54,2.13-.96,3.45-1.06-.43-1.88,1.56-4.6,3.2-4.98,1-.23,1.26,1.05,1.26-.93,0-1.11-.21-2.2-.2-3.31.04-3.58,4.33-8.17,1.62-11.2.09-.09.18-.19.27-.28.09.09.18.19.27.28-.4-1.57-.38-2.47-.38-3.95,0-1.17-.56-2.39-.56-3.73,0-.71,1.67-2.52,2.4-2.69,1.71-.4,2.2,1.07,3.23-1.22.65-1.45,2.1-1.04,3.45-1.51.53-.19,1.37-.3,1.75-.74.51-.6.19-1.1.57-1.66,1.33-1.94,4.9-4.07,6.87-5.42,2.49-1.71,4.19-3.27,6.25-5.6,1.43-1.62,4.95-3.78,7.16-3.78.98,0,2.18-1.99,2.62-2.71.24-.39,1.04-.64.9-1.13-.27-.96-.61-1.55-.22-2.47.5-1.2,2.25-1.64,3.46-2.06,1.21-.41,1.72-2.3,2.67-2.36-.17.73-.48,1.95.23,2.18.57.18.08.78.84.66.5-.08.8-.26,1.26-.31.04-.39.26-.69.3-1.01.04.82.49,1.34,1.27.92-.95-1.25-.9-3.71-1.46-5.15-.35-.89.48-2.1.05-2.85-.28-.49-.99-1.88-.99-2.41,0-.88.67-2.26.34-3.1-.39-.97-1.94-1.38-2.77-1.76-1.45-.66.4-1.64.77-1.93,1.04-.79,1.11-.92,2.62-1.04-.03-.46-.15-.95-.29-1.32-2.07.5-2.91-1.41-1.96-2.8.3-.44.79-1.94,1.14-2.13.35-.19,1.22,1.53,1.67,1.92.03-.57.16-1.13.38-1.67.96.3.37,1.05.96,1.68.74.79.9.05,1.81.73.17-.43.57-.78.72-1.21.62,1.11.32,2.73,1.13,3.75.98,1.24,2.59,1.05,4.06,1.16,2.52.19,5.02-.59,7.58.35.8.3,1.01.16,1.03.82-.02-.62-1.44,1.72-1.28,1.52-1.05,1.32-2.09,1.78-3.43,2.67-2.71,1.83-.33,4.65,1.65,5.78.99-1.74,2.21-5.69,3.39-1.7.73,2.47,1.31,4.73,1.62,7.32.74-.93,1.56-.1,2.31-.87.56-.58-.22-1.74-.28-2.58-.14-1.95.83-.78,1.54-1.76.82-1.13-.35-2.82.16-3.85.69-1.41,2.2-.39,3.17-.7,1.4-.44,1.09-.67,1.73-2.11.49-1.11,1.41-2.08,1.78-3.24.47-1.49,0-1.93,1.54-2.87,1.23-.75,1.06-1.82.97-3.11-.09-1.31.72-2.08,1.7-2.81.88-.66,1.93-.64,2.6-1.65.85-1.29,1.77-.9,3.11-1.49.89-.39,2.51,1.12,2.07-.77-.45-1.94,1.23-1.48,1.82-2.8,1.22-2.73-3.78-2.74-5.2-2.74.14-.52.26-1.07.29-1.6.09-1.62-.67-.25-1.06-1.21-.46-1.12.1-2.74-1.85-2.29-1.28.3-2.1,1.2-3.52,1.24-1.33.04-2.55-.74-3.69-.22-1.18.54-1.89,1.76-2.91,2.58-.53.42-.97.51-1.64.68-.63.16-1,.96-1.5,1.36-2.26,1.81-4.91,2.13-7.59,2.96-.64,2.18,2.92,1.38,2.13,4.08-.3,1.04-6.31,1.3-7.33,1.24-2.47-.15-4.83.77-7.41.15-2.22-.53-2.51-1.37-1.47-3.07-1.75.31-.53-2.03-.76-2.94-.39-1.54-2.2-.42-3.25-.04-1.64.6-.3,3.33-1.14,4.37-.48.59.55.92.89,1.46.38.61-.29,1.43-.51,1.97-1.1-.26-2.29.09-3.43,0-1.08-.08-2.2-.16-3.34-.32-.89-.13-1.77-.26-2.66-.39-.95-.14-1.38-.57-2.13-.78-1.22-.33-2.83.1-3.97-.57-1.17-.69-1.88-2-3.04-2.54-1.13-.52-2.06.2-3-.12-1.22-.41-2.01.3-3.1.06-.52-.11-1.41-.11-1.78-.52-.48-.53-.73-.97-1.45-1.08-2.32-.36-4.22-1.76-6.05-3.17-1.88-1.45-3.53-1.2-4.73-2.46-.23-.25-2.73-1.06-.63-1.85.18-.07.49-.77.59-1,.12-.29-.31-.6-.14-1.02.13-.31.5-.52.6-.81.16-.45-.48-.68-.02-1.13.32-.32.95-.8,1.37-1.06.87-.55.72-1.39,1.84-1.21-.96-.49-5.2-1.85-5.3-2.94-.11-1.18-1.56-.4-2.02-.55-.37-.12-.1-.78-.71-.88-.47-.08-1.06.2-1.53.15-1.32-.14-.7.04-1.6-1.31-.62-.93-.58-1.57-.69-2.59-.04-.33.39-1.08.32-1.28-.23-.63-1.15-.88-1.41-1.43-.77-1.63.32-1.55,1.2-2.2.13,1.19,1.14,1.65,2.11,1.38.34-1.27,1.2-.54,1.43-.73,1.31-1.1.57-1.3-.07-2.39-.34-.58.33-1.59-1.14-1.34-.75.12-1.82-1.87-.71-2.2,0-.76-.6-1.13-.56-1.75.02-.36,1.28-.64,1.59-.55,2.16.64,1.17-2.4,2.86-2.36-.17-.64.24-.71.64-1.27.76-1.09.92-1.49,1.39-2.94.19-.6,1.15-1.49.51-1.95-.54-.39-1.9,1.8-1.74-.54-1.46.94-1.73-1.75-3.17-2.02-2.15-.4-4.84,1.77-6.59,2.59-1.02.48-1.98.46-3.22,1.28-.64.42-1.63.83-2.04,1.49-.23.37.17.89-.41,1.34-.61.48-1.93-.11-2.92.13-.14.03-.96.58-1.2.68-.7.29-.73-.26-1.43.39-1.1,1-5.08-.66-6.25-1.13-.84-.34-2.55-.67-3.26.08-.28.3-.52,1.39-.79,1.84-.31.51.78.12.96.78.21.79-.96.32-.1,1.33.28.33,1.05-.44,1.3.23.27.73-.98.56-.99.92-.05,1.17,2.03,1.66.28,2.72-1.73,1.05,1.65,1.41,1.26,2.87.94.36,1.3.1,1.87.7.16.17-.08.93.29,1.25.39.34,1.4-.08,1.9.26,1.71,1.16,1.27,2.05-.85,2.17-2.59.15-1.48,2.57-1.31,3.74.03.19-.72.48-.61.96.11.47,1.09.07,1.13.26.22.85-.18.91-.91.53-.17.45-2.35,2.25-2.81,2.45-1.51.67-.52,2.37-1.58,2.96-1.52.84-1.74.83-2.63,2.42-.64,1.15-1.56,2.92-2.8,3.49-2.4,1.12-3.05,4.59-5.28,5.41-.64.24-1.55-.17-2.24-.01-.65.15-1.02.76-1.58.89-.83.19-.92-1.87-1.87-1.77-.54.06-2.18,1.81-2.56,2.26-1.17,1.37-2,2.1-2.43,3.86-.61,2.49,4.4.33,3.55,2.8-.53,1.52-.76,1.9.38,3.06.49.5.95-.12,1.48.05.59.19.11.84.31,1.23.5.95,1.4,2.13,1.79,3.06.4.93-.3.97-.13,2.12.31.07.53.29.66.34-1.12-.1-1.2.9-2.37.58-.46-.12-.03-.82-.19-.88-.6-.19-1.66.24-2.21.48-.57.25-.08.77-.92.76-.99-.02-1.16-.5-1.94-.64-.74-.14-2.38-.09-3.23-.03-.8.06-.86-.44-.86,1.33,0,.52-1.36.14-1.79.22-.58.11-.71.41-1.06.5-1.9.49,2.24,5.1,3.77,5.26,1.69.18,3.2.12,4.85-.28,1.2-.28,2.68-2.17,1.64.4-.57,1.41-2.15,2.05-3.58,2.2-.53.06-1.76.49-2.17.18-1.06-.79-.9.25-.78,1.12.16,1.12,2.9,2.78,3.75,3.55,1.19,1.07,2.17,2.51,3.76,2.97,2.31.66,6.54-.57,7.69-2.73.7-1.31.74-3.68.91-5.21.67,1.03,2.35.29,3.28.7-.71.96-1.34.08-1.8,1.3-.11.28.17,1.16.25,1.6.08.47.74-.15.41.56-.27.6-.37.88-.4,1.53-.04.74.59.3.55,1.03-.04.77.52,1.59.62,2.39.13,1-.29,1.66-.53,2.6-.44,1.75.51,3.13.38,4.82.19-.22.42-.32.61-.51.44.93-.14,2.35-.25,3.37-.05.43.42,1.41.5,2,.11.81.45,1.5.73,2.36.84,2.6.6,6.87,3.02,8.65h0Z"/>
</svg>
