<?xml version="1.0" encoding="UTF-8"?>
<svg fill="currentColor" xmlns="http://www.w3.org/2000/svg" viewBox="0 0 94.34 145">
  <path d="M67.15,132.47c-1.52.52-3.23.74-4.8.72-1.24-.01-2.43-.77-3.63-.77.12-.05.25-.05.38,0-.23.86-1.89,1.14-2.42.44-.3-.39-.38-1.87-1.01-1.86.55.62.69,2.1.3,2.82-.26.48.27.9.42,1.3.15.41-.62,1.12-.77,1.48-1.75-1.8-4.15,2.22-4.66-.69,0,.59.06,1.11.18,1.69-.28-.1-.59-.49-.78-.71.04.23.13.43.27.61-.19-.05-.38-.07-.57-.06.26.26.53.51.81.77-.93.75-2.09,1.83-3.31,2.05-.37.06-1.21-.03-1.5-.29-.61-.55.31-1.14-.01-1.76,0,.29-.12.43-.38.43,0-.6.89-1.14.47-1.7.12,1.15-1.03,2.35-.96,3.26,0-.03-.48-.44-.51-.64-.85.8-1.25-.62-1.71-.88-.68-.4-.45-1.51-.02-1.99-1.1.44-1.45,1.29-2.81.65-1.26-.58-1.05-3.08-2.4-3.04.37-.44-.05-.13-.15-.35.05.21.32.2-.09.29.84.15,1.04.84,1.35,1.51-.88.22-.84.87-.62,1.58.2.67.29.9.95,1.15.59.22,1.02,1.31.34.79-.16.75.76,4.95-1.08,4.23-1.67-.66-3.14-2.38-4.31-3.7-.37-.42-1.14-.67-1.57-1.15-.64-.71-1.47-.22-2.08-.9-1.32-1.46-1.2-.88-2.72.35-.91.73-.94,2.21.12,3.04.18.63.15,1.46.65,1.95.54.12.6.38.17.75-.19.49-.12,1.08.53,1.12-.78.22-1.87-.56-2.3-1.13-.73-.96,1.02-1.1-.24-1.98-.47-.33-.3-.93-.54-1.38-.37-.7-.91-1.29-1.47-1.84-1.34-1.3-2.15-2.31-2.16-4.29,0-1.19-.22-1.47.47-2.45.72-1.03.94-.71,1.42.22.28.55.59.8.31,1.27-.22.36-.08.92.09,1.27.45.95,1.53.8,1.35-.3-.31-1.98-1.85-2.91-.83-4.97.44-.88.86-1.77,1.28-2.66.59-1.24,2.01-2.14,2.42-3.29.79-2.25.68-5.28,2.92-6.88.48-.81,1.25-.3,1.72-1.46.59-1.45.14-1.99-1-2.95,1.02.43-.25-2.87-.49-3.24.16.37.15.8.28,1.18-.71-.41-1.01-.81-1.87-.76-.56.04-1.34-1.59-1.8-1.96-1.22-.99-.1-1.57.08-2.69.2-1.22-.57-2.71-.63-3.96-.27-5.91,5.43-1.36,8.6-2.13-1.6-.13-2.89-1.4-4.48-1.48-.07-.23.02-.32.29-.27-.38-.92-1.35-.9-2.01-1.5-.66-.59-.71-1.64-1.24-2.33.23.28-.02.93.11,1.26.3.81,1.19,1.36,1.46,2.11-1.41-.38-1.91-.12-2.38-1.83-.47-1.69,1.98-4.6,2.71-6.12-1.18.96-1.32,2.72-2.43,3.64-.47.39-.68-2.14-.83-2.41-.31.68-.05,1.39.2,2.03.41,1.04.23,1.27-.13,2.25-.31.86.76,3.8-1.03,2-.44.81,1.07.54.97,1.23-.15.95-.63,2.39-1.22,3.15-1.04,1.33-1.75-.14-1.86-1.15-.15-1.4-1.38-2.3-1.45-3.66-.33.95.92,2.64.93,3.69,0,.82-1.02.3-1.38,0-.78-.63-.79-1.73-.97-2.62-.79.64.2,1.8-.7,2.57-.85.72.85,2.76.37,2.98-.39.18-1.12-.87-1.61-.88-.46-.01-1.26-.78-1.35-1.45-.07-.5.36-2.15.13-2.37-.74-.72.9-3.12,1.32-3.7,1.11-1.53,1.8-2.46,3.3-3.62.72-.56.85-1.37,1.47-1.98.8-.79,1.99-1.13,2.72-1.99-.32.18-2.63,1.88-2.69.92-.79.6-.97,1.67-1.56,2.42-.49.63-1.31.75-1.86,1.3-.33.33-2.01,3.4-2.54,2.61.16-.09-2.44,4.89-2.21,1.25-1.02.42,0,5.55.88,5.97-.14.02-.27.07-.37.17,1.15.2,2.78,2.78,1.54,3.65-1.94,1.36-2.99,2.5-2.79,5.15.1,1.25.42,1.24-.37,1.61-.12.06-.43,1.89-.5,2.22-.16.79-.57,1.39-.72,2.17-.2,1.07-.69.44-1.32,1.02,1.04.79,2.12.76,1.92,2.46-.16,1.3-1.93,1.76-2.98,1.98-.85.18-1.76.73-2.62.39-.92-.36-.6-2.56-.34-3.35.35-1.05,1.57-1.55,1.71-2.76.25-2.13.1-4.19.66-6.3.47-1.79,1.66-3.3,2.87-4.69.71-.83,2.63-1.98,2.38-3.29-1.16,1.28-2.45,2.43-3.79,3.52.07-.52.08-.63.14-1.18-1.11.8-1.49-.96-1.22-1.72.43-1.23,1.73-2.1,1.89-3.51-.87.48-1.51,1.25-2.24,1.9.29-.71.19-1.5.51-2.2.45-.98,1.24-2.14,1.93-2.96-.22.17-.45.35-.67.52.21-.32.43-.62.66-.93-.17.11-.33.22-.48.33.45-.31-.3.19-.32.21.26-.29.46-.62.58-1-.24.42-.57.96-1.07,1.12.46.53-.2,1.16-.59,1.42.19-.34.32-.7.4-1.08-.42.81-.3,1.53-1,2.13.13.06.23.02.3-.11-.11.33-.27.63-.47.92-.32-.57.06-.73.24-1.22-.27.16-.51.37-.71.62.34-.72.86-2.59,1.63-2.89-.13-.58.26-1.2.58-1.64.78-1.05.8-.33,1.7-.1.11-.83-.36.58,0-.89-.18-.05-.37-.07-.56-.07-.44-.52.33-2.57,1.15-2.99-.52-.04-.85.21-.99.74.62-1.07-1.05.9-1.41,1.09.07-.04.57-.65.53-.62-.66.08.4-1.24.63-1.76.14-.33.34-.86-.09-1.1.35-.54,1.12-.84,1.73-.91-.09-.16-.18-.32-.27-.48-.56.55-1.49.29-2.11.76-.05-.46.06-.89.33-1.27-.45-.1-.24-.64-.12-1.09-.48.55-.26,1.24-.82,1.75-.09-.43-.22-1.17-.87-.89.44-.75,1.51-1.58,2.35-1.81.66-.18,1.98-.19,2.25-.98-.25.25-1.55.67-1.67.31-.28-.82.39-1.81,1.21-1.95-1.66-1.98,3.41-1.09,3.85-1.05,2.66.21,3.83-1.96,4.97-4.13-1.97.06-2.08,3.72-4.11,4.08-1.16-.49-1.64-.66-2.78-.37-.73.19-.79-1.53-.86-1.93-.18.43-.45.82-.78,1.15,0-.16.02-.32.09-.47-.15.07-.31.13-.46.2.67-.85.6-1.64,1.89-1.34.77.17,2.75-.71,2.95-1.54-1.2,1.02-2.6,1.42-3.56.74.03-.13.08-.25.16-.36-.09.07-.18.09-.29.06.1-.25.25-.46.46-.63.13.33.34.34.62.02-1.18-.75,2.17-2.91.93-2.92.37-.35,2.3-1.38,2.68-1.29,1.73.44,2.9-.53,4.53-1.05-1.11.05-2.08.72-3.15.95-.99.22-1.47-.71-2.44-.56.63-1.76,2.02-3.23,3.24-4.6-.95-.48-4.03-1.79-5.07-.96.78.73,5.46-.07,4.09,1.58-.57.68-1.95,1.54-2.14,2.08-.31.87-.51,1.2-.91,1.97-.33-.97-1.55,1.03-1.75,1.29-.38.49-.98.44-1.38.83-.38.38-.77.76-1.18,1.11-.23-.24-.51-.32-.83-.25.26.12.52.25.77.38-.88,1.21-2.01,2.95-3.47,3.52-.8.31-1.48-.87-2.13-.35-.51-.57-.12-1.18.31-1.62-1.81,1.79-4.16.09-5.3-1.69-1.42-2.2,2.42-1.56,3.4-.4-.23-.35-.91-1.05-.83-1.5-.07.44,2.31-1.05,2.46-1.17.58-.47,1.15.54,1.74.65.97.19,1.94-.13,2.89-.26-1.22-.42-2.47.3-3.64-.4-1.15-.7-1.57-.34-2.49.49-.64.58-1.34.21-2.1.2.04,0-1.49-.17-1.18.09-.42-.36-2.76-.26-2.78-.75-.79.68-2.03.33-2.44-.6-.47-1.05,1.37-.33.71-1.57.83.16,4.43.17,4.79-1,.34.2.62.45.85.76.73.92.33-.1,1.01.32-.09-.06.9,1.25.68.31-.1-.45-.02-.41-.58-.58-.61-.19-.31-1.2.33-.26.48-.25.05-.15.53-.06-.07-.91,1.25-.64,1.71-.39-.57-.34-1.22-.52-1.82-.81-.32-.16-.98-1.19-.14-1.05,1.68.27,2.32-.91,3.64-1.49-.57-.2-1.02.33-1.05.85-.46.1-.95-.22-1.4-.26.23-.59.75-.85,1.34-.96-.65-.98-3.63,1.19-4.23-.2.67-.63,1.36.15,1.64-.59-1.42-.25-.03-2.29.6-1.93-.16-.4-.33-.26-.66-.4.47-1.48,1.69-1.96,3.05-1,.52.37,1.21,1.26,1.8.9.61-.36,1.68-.83,2.41-.65-.41-.95-1.71.52-2.63.28-1.44-.38-.41-2.72-2.37-1.78,0,.2.44-.06.15.24-.55-.9-1.6-.65-.98-1.68.42-.7,1.49-1.51,2.32-1.67,1.34-.26,2.15,1.36,3.03,1.25.28-.04.77-.57,1.15-.65.62-.12,1.29-.15,1.92-.12-.76-.46-1.67-.06-2.45.11-1.05.23-.88-.51-1.59-.95-.73-.46-3.24-.58-1.98-1.86.48-.48.95-.93.56-1.57-.59-.98,1.02-.96,1.4-1.13,1.78-.78,2.56,2.43,3.96.9-.97.21-2.03-.64-2.54-1.38-.25-1.15,1.06-1.12,1.71-1.61-.95-.29-1.76.76-2.02,1.53-.48-.68-.64.23-1.29,0-.82-.29-2-.01-3.12-.31.11-.08.23-.09.35-.02-.86-.87.38-1.2.88-1.54-.15-.12-.19-.27-.11-.44.75-.47.42-.1.83.09.23.11,1.79-.81,2.16-.92,1.01-.29,2.01-.77,2.1-1.96-.54-.21-1.87.69-1.26.98-.22.1-2.87,1.75-2.12.79-1.73.43.11-.76-.26-1.8-.37,1.01-4.31,3.72-4.17,1.47-.51.92-.71-.98-.05-.59-.18-.56-.47-1.13.07-1.64-1.2.04-1.41-1.03-1.31-2,.05-.52.33-2.66.64-2.26-.48-2.57,3.23,1.5,2.6.09.62.55.5,1.23,1.55,1.49-.13-.38-.21-.78-.25-1.18.25.28.51.54.79.78-.33-.51,2.41-.43,2.14-.79-.22-.28-5.1-.45-3.5-.78-.74-.72-1.49-2.76-2.8-2.49-.29-1.79,1.28-2.9,2.83-1.89.01-.13-.03-.24-.12-.33.6-.56-.9-1.38-1.8-1.58-1.27-.29-1-2.52-.95-3.65.04-1.07,3.11-1.55,2.75-.11-.08.34.98,3.53,1.93,2.68-.19-.21-.39-.39-.62-.56.65-.45.26-.15.62.1.01-.2.1-.31.25-.34-.38-.55.24-.61.01-1.32-.2-.62-1.33-.86-1.53-1.56.07-.29.16-.77.32-1.09.52-1.05,1.1-.09,1.66-.41.23.44.83,3.36,2.23,2.19.43-.36.39-2.36,1.64-1.58.43.27.69.73,1.04,1.09.59.6,1.65.66,2.4,1,.21-1.13-3.52-2.01-3.99-3.04.77-.23.95-.64,1.48.12.56.8.93.32,1.7.25,1.62-.17,3.12,2.34,3.87,3.48.63-1.72-2.21-2.92-3.12-3.88.48-.29.96-.26.93-.97-.07.17-.19.29-.37.34.12-.66-1.73-1.09-2.14-1.17-.71-.14-.97-1.55-1.56-1.89-.92-.53-.65.33-1.11-.71-.25-.57-.7-.94-.59-1.62.13-.86,1.76,1.09,1.95,1.29.05-1.52,1.67.51,1.49-.8-.03-.2.23-.81.32-.81-.22-.21-.45-.41-.67-.61.27,0,.54-.05.8-.12-.31-.05-.54-.21-.7-.48.5-.01.99-.11,1.24-.61-.48.26-.97.26-1.45,0,.05-.12.11-.23.18-.34-.64-.19-2.69-2.74-1.63-3.72.53.64.99.64,1.44,1.53.52-.43,1.05-.82,1.66-1.12-.02.08-.03.17-.03.25.4-.71,1.13-.09,1.41.39-.24-.83.49-1.06.92-.41-.25-.97.3-.92,1.05-.32.39.31.74.33,1.08-.09.43.61,1.23.89,1.61,1.54-.05-1.15-1.79-1.38.44-1.43-.79-.29-4.57.19-4.45-1.2.06.11.16.17.28.17-.36-.23-.34-.37-.58-.61.1-.13.2-.14.29-.03.04-.38-.06-.5-.06-.9-.19.22-.37.26-.55.1-.06-.66-.63-1.05.22-1.05-.7-.71.32-.96.16-2.06.74.31,1.66.71,2.26,1.07-.07.07-.13.16-.17.25.77-.22.03-.93-.51-1.06.25-.1.5-.19.75-.25-.55-.03-1.1.18-1.62-.14.21-.07.42-.15.61-.25-.23-.09-.47-.17-.71-.23.2-.15.42-.28.65-.38-.11.02-.19-.02-.25-.11.21-.13.44-.2.68-.19-.06-.22-.27.14-.26-.17.74-.16,1.44.42,1.76,1.03.05-.51-.66-.93-.67-.87,0-.03.34,0,.29-.07-.44-.14-.89-.23-1.35-.3.15-.04.29-.09.43-.16-1.21-.19-1.83-1.21-.98-2.24.42-.51.95-.91,1.34-1.45.42-.59.29-1.31.63-1.91.28-.49,2.87.21,3.34.77.44.52,1.85,2.47.34,2.6.36.2.31-.52.41.19.57-.58-.03-2.1.93-2.12-.24-.25-.24-.67-.48-.91.35-.21.57-.09.65.35.2.33.43.63.69.9.66.67,2.04.28,1.34,1.47-.06-.06-.1-.13-.12-.21-.42,1.08-1.18,2.04-1.85,2.97,1.23.14,2.11-3.02,2.97-2.55.81-.57.04-1.59.96-1.95.77-.3,2.23.02,2.49.92.12-.04.23-.12.31-.22.26.54.8,1.15.39,1.62-.44.5-1.4,1.82-1.16,2.45.82-1.12.93-1.69,1.93-2.47,1.38-1.08,2.18-1.46,3.53,0-.19-.31-.34-.62-.48-.96,1.79.57-.28-.27.74-.51.35.31,1.18.49,1.11-.25-.08-.78,1.57.21,1.67.27.33-.6.55-1.42,1.24-1.71.13.41.2.83.21,1.26.68-.36,1.6-.25,2.05.35.1-.74,2.38-.36,2.84-.58,1.69-1.12,3.05-1.77,5.12-1.81.05.39-.28.31-.35.58-.02.08,2.46.05,2.77.13.61.16,1.01.53,1.42-.07.29-.43-.13-.62-.46-.76-1.64-.71.25-1.98.45-1.27.28.94,2.86.56,3.43.04.84,1.1,3.19-.47,3.45,1.05.1.61-.29,1.23-.89,1.37.32.54.09,1.02-.3,1.43-.53.57-1.82,2.31-.23,2.62,1.04.2,1.7.83.21,1.35,1.55,1.19-2.45,4.45-3.33,4.93-1.07.59-2.08.65-2.98,1.61-1.03,1.1-1.71,2.51-2.91,3.47-1.94,1.55-4.12,2.59-6.13,3.96-1.15.79-.7,2.15-2.39,2.55-.67.16-1.51.42-1.57,1.22-.04.53-1.03,1-.3.04-.6.15-1.06-.08-1.58-.33.16.69.88.74,1.42.96,1,.4-.06,1.86.07,2.62-.14-1.06-2.13.43-2.83.04.68-.41.09-.21.04-.53-.03.58-3.18-.37-2.61.36-1.22-.23-1.87-1.46-2.79-2.15.08.56.34.59.77.81.64.33.07.64.45.99.83.78,3.24-.04,3.33.78.43-.13.58,1.11,1.47.66-.14-.17-.28-.34-.41-.51.95.44,1.71,1.37,2.73.76.71-.43,1.29-.89,2-.13-.25.19-.49.38-.73.57.76-.27,1.57-.1,2.2-.71.5-.49.74-1.15,1.53-1.25-.4,1.52-1.63,2.72-2.64,3.85-.47.55-.73,1.24-1.18,1.8-.61.76-.97.23-1.71.5.06-.27.56-1.45.22-1.64-.16-.09-1.71,1.03-1.88,1.14-.76.46-2.3.31-2.81.93-.97.21-1.45.77-2.17,1.39-.42.36-.87.71-1.23,1.13-.47.54-.11,1.02-.7,1.56,1.16-1.25,2.8-3.39,4.59-3.68.97-.16.87.36,1.59.43,1.13.12,2.21-1.22,3.29-.56-.34.4-3.49,3.26-2.09,3.57-.48-.2-1.3-.14-1.65.29-.78.95-.61.35-1.76.69.5.39,1.68-.14,1.05.93-.37.62-1.12.73-1.78.74-.74.01-1.33-.31-2.05-.37-.68-.06-1.18.91-1.64,1.19.89-.6,1.96.06,3-.17,1.07-.23,2.03.05,3.06-.15.7-.13,3.7-3.07,2.06-3.43.86-.48,1.71-.5,2.62-.14-.29-.15-.58-.3-.88-.45,2.25,1.28,3.87-.51,5.7-1.61-.17.14-.34.28-.5.44.36-.04,1.94-.75.86-.77.66-.49,2.65-.24,1.43.61.13-.05,2.54-.05.46-.88.67-.22,3.88.15,2.65-1.45,1.36.04,3.39-1.06,4.6-.67.86.27,3.63,1.12,3.95,2.07.11-.12.12-.26.03-.4,1.45.56,2.47-.39,3.77-.81,1.36-.44,3.73.25,5.21.38.89.07,1.82.19,2.64.56.72.32,1.46-.04,2.37-.04,1.65,0,2.31-.84,3.91-.33,1.33.43,2.1-.79,3.39-.66.61.06,2.48.91,2.95.72.57-.24.88.88,1.01,1.2.29.68,1.21.6,1.59,1.19.39.7-.5,1.4.39,1.98.15.74.58,1.41.7,2.15-.1-.11-.23-.18-.38-.21-.24.74.25.9,0,1.59-.25.69-.74,1.32-1.19,1.89-.96,1.21-2.09,2.27-3.05,3.46-.09-.64.19-1.51-.62-1.79.07.25.23.4.48.46-.23.22-.26.46-.11.72.39.8-.02,1.24-.31,2-.54,1.38-2.02,3.32-1.16,4.65-.13-.05-.23,0-.28.13.26-.03.53-.03.79,0-.35.78-.43,1.65-.9,2.38-.43.66-1.08,1.14-1.46,1.87-.29.56-1.12,1.46-1.05,2.12-.21,1.13.19,2.2-.44,3.28-.59,1.01-1.46,2.27-2.45,2.92-1.01.66-2.02.71-1.91,2.08.13,1.72-1.56-.28-2.11.75.15-.36-.3-.11-.43-.18.81.44,1.48.47,2.38.51-.07.8-.85.95-1.35,1.42-.31.67.42,1.2.41,1.22-.1.66-.88,2.05-1.52,2.31-1.23.48-1.95,1.71-3.13,2.23-1.26.55.21,1.66-1.73.89-1.03-.41-2.81.64-3.81.87-.81.19-1.54-.4-2.23-.18-.75.24-1.32,1.07-1.81,1.63-1.11,1.28-2.62,2.82-4.2,1.24,1.56,1.15,3.45.72,5.02-.15.98-.54,2.72-1.11,3.54-1.85.98-.88,1.26-.24,2.55-.37,1.44-.14.1,2.69-1.27,2.85.47.14,1.23.71,1.46-.09.58.73,5.04,2.03,4.6,3.38-.61,1.85-4.43,3.75-5.96,2.53-.98-.78-2.14.12-2.86.79-.7.66-2.16,1.58-2.66,2.35-.32.67-.21,1.6-.99,1.9-1.11.43-3.09,1.55-4.29,1.36.53,1.24-3.8-1.16-4.32-1.09.13.16.12.3-.04.42-.6-.73-1.81.12-2.63-.8-.44-.49-1.4-2.02-2.23-1.34,0-.72-.42-.57-.75-.12-.03-.12-.03-.36,0-.48-.05.2-.02.38.09.54.56-.91,3.44,1.61,2.87,2.94.35.2.75-.62.95-.32.48.73.36.69,1.47.53,1.16-.17,2.09.66,3.18.86.48.05.97.04,1.45-.03.93-.12,1.2.28,2.03.49.9.23,1.88-.2,2.74-.06.68.11,1.27.93,1.85,1.27.94.56,4.14-.96,4.25-2.13-.02.23.99-.54.65-.29-1.8-1.44,3.32-1.75,3.81-1.63.91.21,1.79,1.08,1.43,1.76-.34.64,1.28.21,1.5.19,1.11-.07,1.99.96,2.72,1.64,1.1,1.02,1.85,1.04,3.29,1.02,2.5-.03,3.27,2.73,4.48,4.36-.89.3-1.06,1.2-1.54,1.88-.79,1.09-1.31,1.58-1.99,2.48-.26.35-.59,1.67-.88,1.7-.23.03-1.83.04-1.86.35.01-.15.73,1.31.78,1.43.44,1.01,1.25,1.27,1.25,2.43,0,1.26,2.01,1.59.95,2.59-.8.75-1.96.8-2.7,1.66-.68.79-.73,2.65-2.21,1.9-1.29-.66-3.82,2.75-4.7,3.45,1.44.09-.24,1.36-.55,1.89-.75,1.28-1.5,1.46-2.75,2.19-.85.49-1.19,1.21-1.84,1.9-.43.46-.98,1.28-1.62,1.46-.6.17-1.2-.13-1.81.03.68.65.06,1.92-.09,2.41-1.54.52.05-.17,0,0Z"/>
</svg>
