<?xml version="1.0" encoding="UTF-8"?>
<svg fill="currentColor" xmlns="http://www.w3.org/2000/svg" viewBox="0 0 134.91 140">
  <path d="M132.65,22.59l-1.82-.09v-2.07l-1.47-.84-.55-1.71,1.37-2.31.86-2.17-.65-.53-2.4,2.05-1.82,1.3-1.74.36-1.76-.7-.92-.87-3.29-.79-3.47-1.59-3.11-2.29-3.13-2.89-3.47-4.52-1.37-1.01-.47-.99-1.11-.94-.71.33-1.76,1.59-.1,1.37,1.58,4.69-1.08,4.38-.11,2.79-1.1,2.38-1.1,1.03v1.66l.29,1.85-1.1,1.97-3.29.1-1.87-.62-1.92-.44-.34,1.25.84,1.08-.5,1.61-1.53,1.56-1.98.89-1.37,1.47-.34,3.15,2.76,2.36-1.11,4.25.47,1.45,1.11.31,2.1-1.35.81-1.15,1.37-.82,1.37-.1,1.82.15.55-.99-2.63-2.07-3.47-1.45-.86-1.56,1.31-1.88,2.37-.17,1.74,1.25,1.66.19,1.4-1.1,1.89-.84,2.58.24,4.32,2.43,2.98,1.01,4.1,2.75.97-1.25.55-2.4,1.47-2.6,2.21-2.67,2.29-1.16,2.29-.29,2.71.39.92-1.21.84.46,1.48-.26,2.19-1.54,2.68-1.06.84-1.61-2.26.77ZM101.63,55.03l-.92-1.92-1.55-1.78-.77-2.12-.16-2.31.26-3.35-.37-.96-2.32.1-1.36-.84-.79.24-.58,1.66.58,1.56,2-.45,1.21-.94-.11,1.59-1,1.9-1,.1-1.1-.41-1.03,1.32-.66-.81-.71-1.9-.9-1.11-1.13.5-.55,1.1-.27,2.31-1.37.6-.73,1.15.18,4.26-1.47,2-.84.7,1.76.65,1.11.96-.08,2.12-.58,2.05-.81,1.56-.4,1.61-.66,1.59-2.26,3.83-.37,1.27-.16,1.51-1.31,1.66h-.79l-2.02,1.25-1.47,1.81-1.26,1.95-1.79,1.61-2.63,1.85-2.45.75-2.05.96-1.42,1.45-1.76.24-.95-.1v-1.68l-.6-1.57.18-.41,1.27-1.15,1.21-.6.26-1.34-1.26-.2-2.84,1.54-.4,1.57-.1,2.05-1.26,2.81-2.02,2.36-2.37,1.9-.11,4.5-1.92,1.18-.71.7-.77.15-3.45-.75.11-1.32-1.58.05-1.44.51-1.37.09-5.97,1.28-2.31-.1-2.84.24-2.63-.65-1.84.55-1.66.94-1.26,1.93-2.02,1.27-1.63,2.02-2.58,1.3-1.49,1.01-1.48,1.44-3.84.87-.16,1.04.05,1.9,1.47.27,1.5.51.71-.31h1.21l1.58-.55,1.37.7,1.92.58.71-.17,1.47-3.52.92-.24,1.1.91,4.13-1.01.98-.46,1.03-.1,1.44-.6.81-.1,1.31-.41,1,.6,2.58-1.44,1.63-1.22,1.87-.1,1.98.41,1.87.65,2.73-.45.37.26-.21.65-1.37,2.09-.71.65-.07,2.58.45,1.58,1.55.96.82,1.3,2.32.91,1.74-.91,2.37-3.85.16-.56.66-.86,1.1-.58,1.08-.17,1-.51,1.13.87v-2.17l-2.84-1.85,1.71-3.37.77-.34.1,1.85,1,1.01.42-.86.5.5,1.81.36-.92.7-.55.75,2.23-.6,4.29.05,2.66.55.24-.29.92-1.66,1.4-1.52,1.36-1.16,1.26.17-.24,1.49.34,2.21,1.08.15,1.05-1.01.71-3.61.92-1.35,2.03.27,1.1.75.16-1.42.73-1.32.48-1.57h2.03l-.37,1.16-1.11,1.13-.55,3.37.37,1.32,4.02-2.71.93-1.86,1.44-2.26,1.31-.75-.29-1.01-1.21-1.45.1-2.91.45-2.62,1.37-2.75,1.6-1.25-.18-1.76v-2.91l-.48-2.07-.29-2.55.76-2.46,2.1-1.35,1.89.15.08-2.14,1.39-3.97,1-.1,1-1.16.21-1.46.55-1.04.16-1.35-.82-3.42-1.26-3.1ZM41.17,111.49l-1.42-.1-1.53-.82-1.66-.41-1.1.12-2.03,1.69-.55,1.15-1.53.7-1.68.31-1.1-.46-1.71-.29-3.4,4.02-2.18,1.64h1.37l.98.75.55.96-.16.75,1.11,1.85.53.68,1.31.99,1.45-.15.16-1.52,1.58-2.09.84-1.66,1.42-.94,1.95-.51,2.21.7,1.74.98.73-.89.71-1.35.87-.91.81-.43,1-1.18-.44-.24-.81-3.34ZM18.81,120.7l-2.08-.46-.23-.75.84-1.9-.5-1.01-1.27.41-2.47.1-1.58-1.76-.05-.84-1.47-.17.42-.1-.71-.1-1.27.46-1.31,1.16-.81,1.44h-1.21l-.82.82-1.15.48-.55-.48-.92.65-1.66,2.04,1.47,1.06.89,1.08.11,1.11-.71-1.35-1.03-.1.52,3.71.87-.84,1.89-.5,1.47.74.71-1.15-1-.5-.43-.75v-1.71l.82-.55.92,1.85,1.05,1.56v1.49l.5.17-.11,1.76-.84,1.85-.98.74-.84,1.45-.1,1.97.45,2.19-.45,1.25.94.87,2.08.89.47-1.9-.63-1.64.42-1.23,1.37.36-.61.46-.21,1.08.45,1.78v2.1l1.1-.36,1.31-.99.08-1.25,1.21-1.15.89.38,1.03-2.04,1.1-4.36.92-2.45.89-1.52,1.1-1.39.58-1.16-.11-1.47-.82-1.54Z"/>
</svg>
