<?xml version="1.0" encoding="UTF-8"?>
<svg fill="currentColor" xmlns="http://www.w3.org/2000/svg" viewBox="0 0 103.69 140">
  <polyline points="100.54 47.41 99.38 45.51 99.38 39.45 98.61 36.63 92.44 30.79 79.04 33.75 76.42 38.4 70.95 42.98 65.86 40.65 62.79 33.46 55.54 29.1 60.55 25.57 60.55 20.5 65.17 20.08 67.56 16.13 68.26 10.99 68.57 9.22 67.79 .91 67.25 0 64.56 .42 60.24 2.61 58.63 1.41 53.93 4.37 50.46 7.61 48.31 8.24 46.92 12.19 48 13.95 47.38 15.22 44.45 18.32 39.37 21.56 40.45 23.88 44.15 23.88 46.6 24.66 48.99 23.88 53 23.88 53.31 25.57 51.7 29.1 43.84 34.03 44.15 35.65 43.68 38.19 36.98 37.9 28.96 39.17 27.35 36.63 16.26 35.65 13.72 38.75 11.56 42.55 13.17 48.82 10.48 47.98 6.47 48.69 9.62 51.93 18.95 52.84 19.8 55.31 12.87 59.26 11.24 62.36 7.78 64.54 7.55 67.5 10.48 70.31 12.56 70.74 12.56 72.92 18.19 72.64 18.95 75.39 33.43 75.88 34.83 78.07 32.97 79.55 27.35 81.73 24.11 84.97 23.35 90.75 21.41 94.49 14.49 100.68 28.96 98.65 35.83 92.02 36.14 96.74 39.83 97.16 40.13 97.79 25.43 101.32 18.5 101.81 13.72 108.58 13.33 111.39 12.1 112.59 9.32 112.1 6.63 113.15 3.7 112.59 1 114.78 0 118.3 10.94 116.96 11.79 118.93 6.16 121.4 2.47 125.35 1.93 127.67 4.85 127.53 6.16 129.72 6.94 129.72 16.88 126.83 17.18 129.15 13.17 130.91 7.25 135.5 9.01 135.5 20.26 131.97 21.18 133.23 20.11 135.5 17.41 135.77 14.64 137.25 15.56 138.24 15.56 140 19.57 138.24 22.96 137.82 24.58 138.67 26.81 139.01 30.05 137.05 32.59 137.25 45.3 133.38 48.54 130.91 48.99 128.24 48.85 125.35 50.46 125.77 51.23 127.95 53 128.73 58.63 126.19 60.24 123.58 64.25 124.01 65.86 122.39 66.95 119.43 68.09 118.02 78.81 115.91 83.81 114.21 89.44 114.21 92.75 115.48 95.84 115.48 97.29 112.87 95.68 108.93 98.61 101.81 100 95.82 102.62 91.24 103.69 87.93 102.62 79.83 100.99 72.22 102.62 71.44 103.39 65.03 97.46 51.93 97.76 48.69 100.54 47.41"/>
</svg>
