<?xml version="1.0" encoding="UTF-8"?>
<svg fill="currentColor" xmlns="http://www.w3.org/2000/svg" viewBox="0 0 180 87.19">
  <path d="M88.71,1.88h2.88c.95,0,.53-1.07.53-1.88,1.04.09.82.93,1.33,1.75.63,1,.55.85,1.4,1.22,1.56.69,3.01-.05,4.63.37,1.45.38,2.76,1.66,4.08,2.27.86.39,1.69-.36,2.71-.02.89.3,1.88.14,2.79.48-1.57,1.53-6.18,2.67-6.95,4.89-.9,2.62,4.59-2.55,3.41.98,1.42-.62,3.6-.42,5.06-1.48,1.27-.93,2.78-2.46,4.51-2.27-.6.8-2.42,1.72-2.17,2.95,1.49-1.29,2.89.64,4.17,1.02,1.34.4,1.29.03,2.3-.32.99-.34,1.75-.25,2.8-.41,1.81-.27,1.31.8,3.4.8.43,0,.99,1.72,1.43,2.08-.68.22-1.43.32-1.94-.19-.46,1.27-1.27-.2-2.33-.22-1.29-.03-3.03,1.21-4.06,1.85.07-.31-.02-.66.02-.98-1.55.77-3.91,3.38-4.18,5.23.45-.36,1.4-.79,1.72-1.14.47-.52.2-1.14.96-1.67.29,1.02-.92,2.54-1.25,3.57-.35,1.08-.82,2.6-1,3.7-.26,1.6-.42,6.71,2.06,6.65,1.35-.03,2.13-2.08,2.54-3.06.86-2.08-.38-2.74-.56-4.59-.1-.93.58-2.48.82-3.31.35-1.19.65-1.71,1.8-2.4.02.34.29.76.28,1.11.32-.25.38-.8.59-.96.34-.26-.33-.63.3-.75.23-.04.86-.15,1.01-.33.35-.43-.94-1.88,1.04-1.35,2.13.57,3.74,1.39,4.01,3.4.16,1.2.43,2.08-.68,2.91-.65.49-1.64,1.94-.13,1.62,1.13-.24,1.44-2.72,2.81-.82.61.85.32,2.75,1.08,3.1-.23,1.78-.79,1.33-1.6,2.37-.68.87-.66,1.99-1.61,2.86,2.01.68,3.71,1.46,5.84.29,2.17-1.19,4.54-1.6,6.56-2.99.47-.32,1.69-.99,1.93-1.53.57-1.29-1.6-1.39.83-1.99,1.96-.48,4.23,1.06,5.94-.14,1.15-.81,1.23-.41,1.65-1.47.06-.14.16-1.08-.17-1.08-.6,0,2.54-2.72,3.04-3.13,1.72-1.39,5.66-.56,7.9-.56.88,0,3.35.5,3.76-.4.36-.81,1.54-1,2.31-.7.42-.28-.3-.21.5-.22-.01-.84.44-.61.67-1.3.3-.88.4-2.02.66-2.94.45-1.56,1.05-2.63,1.99-4,.77-1.13,1.01.39,1.49.53.95.28,2.26-.76,2.67-.4,1.54,1.35,1.33,1.88,1.33,3.95,0,1.04.43,5.81,2.37,4.63-.07.49.11.77-.11,1.25,1.03.63-3.73,2.52-4.06,2.29-1.29-.91-.93-.61-1.94.33-.58.54-.96,1.59-1.94,1.15-.07.31-.22.48-.35.73-.67-1.01-4.44,2.87-2.93,4.35-2.4,1.36,2.37,4.38,2.17,2.47.94.89-.71,1.57-1.63,1.46-.45-.06-.63.04-1.28.02-.57-.02-.77.02-1.01-.57-.81,3.15-7.59.44-8.86,3.77-.44,1.16.4,1.42-.07,2.69-.54,1.46-1.25,2.35-2.36,3.59.01-1.12-1.47-1.12-2.21-2.1-.3,1.78,2.6,2.98,1.1,4.71-.33.39-2.01,5.39-2.43,3.26-.22-1.13,1.95-2.51.21-3.33-1.72-.81.16-1.83-1.1-2.38.05-.08.99-1.81,1-1.77-.19-1.09-.85.49-1.79.79.29.77.15,2.36-.08,2.75.43.42.36.65.63,1.17-.79-.51-2.9-.89-2.66-1.75-1.11.87,1.43,1.6,2.15,1.9,1.39.58-.14,1.62.86,2.57-.44.38-.53.36.02.95-1.57.17-.38.41.28.55,1.24.26.58,1.91,1.1,3.01-.81-1.13-2.48,1.06-2.61-.76-.71,1.53.66,1.41,1.73,1.14,0,.3.21.68.23.86.13-.32.4-.52.55-.81,1.01,1.3-1.28,2.91-1.99,1.5-.3.07-.77.19-1.08.28.45.06.75.4,1.1.56-.38.36-.41.75-.63,1.08,1.05-.36,1.01.37.09.9-1.05.6-2.15.57-3.22,1.37-.84.63-1.11,1.14-2.35,1.28-1.11.12-1.52,1.22-2.37,1.77-.21.14-.78,1.18-1.2,1.51-1.19.94-1.83,1.05-3.27,1.17-.59.05-.24.74-.55,1.15-.61.82-1.24,1.33-1.78,2.59-1.02,2.35-.81,5.1.74,7.33,1.09,1.56.98,2.26,1.41,3.95.37,1.45,1.35,2.53,1.49,4.1.16,1.88-.33,6.01-3.11,4.68-.7-.33-.15-2.27-1.39-2.32-.84-.03-1.29-1.9-1.19-2.39-.01-.03-.31-.58-.46-.83-2.04.58-1.16-3.08-1.82-3.4-.02.16-.04.32-.06.48-1.1-.81.52-2.87-.33-4.1-.3-.44-1.55-.94-1.99-1.37-.45-.44-.66-1.35-1.56-1.66-1.12-.39-2.58.76-3.83.99-.63.11-3.56-2.11-3.47-2.34-.88-.25-1.67.14-2.56.18.04-.17.13-.34.17-.5-.94.4-1.74.92-2.87,1.05.07-.69.03-1.45-.15-2.18-.38,1.29-.21,1.45-1.22,1.75-.28.09-2.54.24-2.78.18-.33-.09-2.67-.24-3.01-.14-.43.12-.73.51-.3.83.61.45.76-.2,1.25-.14.41.05.41.59.49.6.15.01.57-.22.58-.22.16.07.78-.57.91-.14.21.73-.63.9-.91,1.36-.48.78.99.98,1.33,1.41.9,1.12-1.56-.17-1.19-.07-.8-.2-1.08-.38-1.42-.35-.03,0-1.22.42-1.46.53-1.13.47-2.61-.57-3.38-1.33-1.46-1.44-2.09.53-3.84-.11-2.34-.86-3.99.29-6.17.52.26-.12.29-.19.47-.36-.1-.14-.28-.34-.46-.62-.95.4-.34,2.02-1.03,2.94-.56.75-2.22,1.35-3.07,1.46.44-.2.96-.56,1.42-.74-.34.07-.7.14-1.05.24-.03-.15-.07-.29-.1-.44-.56.38-.14.21-.72.07-.13.02-.04.29-.13.36-.17-.08-.26-.19-.46-.26.53,1.02-1.05,1.5-1.85,2.18.1-.03.21-.05.31-.08-.32.55-.21.69-1.05.79.71.99.13,1.85-.71,1.78.93.33.36,2.93,1.4,4.07-.67.17-3.16-.29-3.83-.65-1.62-.87-2.86-.89-3.57-2.93-.59-1.68-1.54-2.79-2.8-4.05-1.26-1.25-1.58-2.91-3.02-4.14-.95-.8-2.93-1.06-4.18-.65-1.62.53-1.02,3.71-3.36,2.34-1.68-.99-2.85-1.87-3.45-3.76-.6-1.9-2.25-1.99-3.42-3.5-.69-.89-1.83-1.7-3.01-1.69-1.18.01-2.36.03-3.54.04-1.72.02.11.94-.81,1.55-.72.48-4.23,0-5.13,0-1.79,0-3.14.06-4.8-.5-2.43-.81-4.86-1.63-7.29-2.44-.8-.27-2.87-1.37-3.46-1.32-2.14.16-4.28.32-6.43.47-.05,0-1.48-2.64-2-3.18-.54-.57-2.09-.79-2.21-1.32-.17-.75-.77-.85-1.16-.42-1.21-.81-2.58-.99-3.72-1.53-1.4-.66-1.28-.14-2.06-1.35-.17-.26.17-.62.1-.81-.16-.42-.62-.4-.8-.7-.93-1.44-2.69-2.85-3.36-4.57,0,0,.49-.55.36-.89-.25-.66-.88-.41-1.32-.84-.5-.48-.88-1.86-.76-2.56.29.3.84.65,1.16,1.02-.63-.87-1.02-1.84.33-2.08-1.92-1.03-1.22,1.52-3-.05-.29-.26-1.04-1.57-1.4-2.03-.64-.81-.87-1.47-1.12-2.52-.2-.84.22-.89-.33-1.68-.3-.43-1.44-1.54-1.47-2.06-.05-.81.75-1.38.77-2.3.02-1.2.14-1.94-.23-3.16-.56-1.83-1.07-3.31-.63-5.23.1-.45.42-.96.49-1.2.24-.84.21-1.79.46-2.62.57-1.9-.88-8.98,2.42-7.7-.49-1.14-2.87.01-2.34-2.02.12.28.18.37.25.74.6-.7-.33-1.65-.27-2.6-.08.11-.17.23-.25.34-.66-1.29-.9-2.69-1.64-3.98-1.01-1.77.54-1.61,1.65-1.26.77.24,3.99.18,4.3.61.61.84-1.03,1.95-.93,2.99.36-.26,1.42-2.5,2.17-1.52.3-1.13.08-2.34-.88-2.97.43-.49.5-.76.97-.91-.63-.18-1.35-.45-1.6-1.15,27.57,0,55.13.04,82.7.06h0Z"/>
</svg>
