<?xml version="1.0" encoding="utf-8"?><!-- Uploaded to: SVG Repo, www.svgrepo.com, Generator: SVG Repo
Mixer Tools -->
<svg fill="currentColor" version="1.1" id="Layer_1" xmlns="http://www.w3.org/2000/svg"
  xmlns:xlink="http://www.w3.org/1999/xlink"
  viewBox="0 0 512 512" xml:space="preserve">
  <path
    d="M8 2L8 6L4 6L4 48L46 48L46 14L30 14L30 6L26 6L26 2 Z M 10 4L24 4L24 8L28 8L28 46L19 46L19 39L15 39L15 46L6 46L6 8L10 8 Z M 10 10L10 12L12 12L12 10 Z M 14 10L14 12L16 12L16 10 Z M 18 10L18 12L20 12L20 10 Z M 22 10L22 12L24 12L24 10 Z M 10 15L10 19L12 19L12 15 Z M 14 15L14 19L16 19L16 15 Z M 18 15L18 19L20 19L20 15 Z M 22 15L22 19L24 19L24 15 Z M 30 16L44 16L44 46L30 46 Z M 32 18L32 20L34 20L34 18 Z M 36 18L36 20L38 20L38 18 Z M 40 18L40 20L42 20L42 18 Z M 10 21L10 25L12 25L12 21 Z M 14 21L14 25L16 25L16 21 Z M 18 21L18 25L20 25L20 21 Z M 22 21L22 25L24 25L24 21 Z M 32 22L32 24L34 24L34 22 Z M 36 22L36 24L38 24L38 22 Z M 40 22L40 24L42 24L42 22 Z M 32 26L32 28L34 28L34 26 Z M 36 26L36 28L38 28L38 26 Z M 40 26L40 28L42 28L42 26 Z M 10 27L10 31L12 31L12 27 Z M 14 27L14 31L16 31L16 27 Z M 18 27L18 31L20 31L20 27 Z M 22 27L22 31L24 31L24 27 Z M 32 30L32 32L34 32L34 30 Z M 36 30L36 32L38 32L38 30 Z M 40 30L40 32L42 32L42 30 Z M 10 33L10 37L12 37L12 33 Z M 14 33L14 37L16 37L16 33 Z M 18 33L18 37L20 37L20 33 Z M 22 33L22 37L24 37L24 33 Z M 32 34L32 36L34 36L34 34 Z M 36 34L36 36L38 36L38 34 Z M 40 34L40 36L42 36L42 34 Z M 32 38L32 40L34 40L34 38 Z M 36 38L36 40L38 40L38 38 Z M 40 38L40 40L42 40L42 38 Z M 10 39L10 44L12 44L12 39 Z M 22 39L22 44L24 44L24 39 Z M 32 42L32 44L34 44L34 42 Z M 36 42L36 44L38 44L38 42 Z M 40 42L40 44L42 44L42 42Z" />
</svg>
