<?xml version="1.0" encoding="iso-8859-1"?>
<svg fill="currentColor" version="1.1" id="Layer_1" xmlns="http://www.w3.org/2000/svg"
  xmlns:xlink="http://www.w3.org/1999/xlink"
  idth="779" height="815" viewBox="0 0 779 815" xml:space="preserve">
  <path
    d="M627.4 1.66664C597.4 2.33331 596.333 2.46664 593.4 5.39997C590.733 8.06664 590.333 9.66664 590.333 19.8V31.1333L583.8 30.7333C577.8 30.3333 577.133 29.9333 576.2 26.4666C575.667 24.4666 574.2 21.5333 572.867 20.2C569.933 17 562.333 15.5333 558.2 17.5333C552.067 20.3333 551.267 24.8666 552.067 54.4666L552.733 81.6666H547.533H542.333L542.733 57.4C543.267 29.2666 542.2 24.2 535.133 19.4C532.6 17.6666 529.133 16.3333 527.4 16.3333C522.6 16.3333 515.667 23.9333 514.467 30.3333C512.467 40.6 509 41.8 507.667 32.6C506.2 21.9333 501.4 16.4666 493.533 16.3333C486.6 16.3333 483.667 19.4 479.533 31.5333C476.333 40.7333 476.067 42.2 477.933 43.5333C479.4 44.7333 480.067 49.4 480.733 64.4666L481.533 84.0666L477 84.6L472.333 85.1333V64.2C472.333 48.3333 472.867 42.3333 474.333 39.5333C477.933 32.4666 474.6 20.3333 468.2 17.6666C460.6 14.4666 452.333 19.4 450.333 28.3333L449.533 32.2L426.467 32.6L403.4 33L392.2 38.6C386.067 41.6666 378.2 46.7333 374.733 49.6666C366.467 56.8666 356.067 72.6 352.2 83.9333C349.267 92.3333 349 95 349.133 118.6L349.267 144.333H336.067C321.133 144.333 317.8 145.533 311.133 153L306.867 157.933L307.267 187L307.667 216.2L312.333 221C315.267 224.067 318.6 225.933 321.8 226.467L326.6 227.267L327.533 236.2C327.933 241 328.333 251.8 328.333 260.2C328.333 275 328.2 275.533 324.067 282.067C318.2 291.133 309.267 297.8 291.133 306.467C270.333 316.467 255.267 326.733 242.2 339.667C232.867 349 230.333 352.6 224.6 364.467C212.067 390.6 213 373.133 213.267 572.733L213.533 748.467L216.733 755.533C226.6 777 239 792.2 252.467 799.667C255.933 801.533 263.533 804.333 269.267 805.933C279.533 808.733 280.6 808.867 385.667 808.467C490.6 808.2 500.733 807.8 513.267 803.533C518.867 801.533 519.267 801.667 527.4 805.667C539.4 811.533 549.8 812.067 665.933 813L767 813.933L771 809.933C777.933 803 775.4 792.733 765.667 787.667C760.2 784.867 554.6 783 545.133 785.667C541.667 786.6 538.6 787.133 538.333 786.733C537.933 786.467 540.867 782.333 544.867 777.533C552.067 768.867 559.133 756.333 561 749C561.533 746.733 561.933 667.8 561.8 573.533C561.8 420.733 561.533 400.867 559.667 391.533C555 369.267 543.667 348.867 526.467 332.733C515.8 322.467 505.933 316.2 484.333 305.933C466.333 297.267 460.2 292.733 454.067 283.4L449 275.933L448.6 251.133L448.067 226.333L452.867 226.2C458.733 226.067 464.2 222.333 467.267 216.2C470.6 209.667 470.867 161.133 467.533 154.2C463.533 145.933 459 144.333 439.133 144.333H421.667V125.933C421.667 103 421.667 103 438.2 102.067L449.4 101.267L451.667 105.8C456.6 115.533 461.933 118.733 469.133 116.333C471.667 115.533 474.733 113.4 476.067 111.667C478.467 108.733 478.867 108.6 481.533 110.467C489.8 116.333 499.667 114.733 503.667 107.133C505.267 103.933 506.6 103 509.533 103C512.467 103 514.333 104.467 518.467 109.933C521.667 114.333 524.867 117.133 526.867 117.4C532.067 118.2 537.667 115 540.467 109.533C541.933 106.6 543.933 104.333 545 104.333C546.067 104.333 549.133 107.267 551.667 110.867C556.733 117.933 558.467 119 564.6 119C569.533 119 576.067 112.867 577.133 107.133C577.933 103.267 578.467 103 583.667 103H589.4L590.333 116.467C591.133 127.667 591.8 130.467 594.333 133.4L597.267 136.867L631.133 137.133C649.8 137.267 666.067 136.867 667.267 136.2C671.8 133.8 673.667 127.667 673.667 115V103H720.867C767.133 103 768.067 103 771.667 100.067C776.467 96.3333 779.4 89.4 777.8 85.4C777.133 83.6666 775 80.8666 773 79L769.4 75.6666L721.533 75.2666L673.667 74.8666V67V59L681.4 58.7333C685.533 58.7333 707.4 58.6 729.8 58.4666C768.067 58.3333 770.867 58.2 773.533 55.8C778.6 51.1333 776.2 37.1333 769.8 33.6666C768.067 32.8666 749.933 32.3333 720.467 32.3333H673.667V22.4666C673.667 17.1333 673 10.8666 672.2 8.46664C670.6 4.06664 664.867 0.0666405 660.733 0.599974C659.4 0.733307 644.333 1.26664 627.4 1.66664ZM644.733 40.6C645.133 46.7333 645.533 64.4666 645.667 79.9333L645.8 108.333H631.8H617.667V69V29.6666H630.867H644.067L644.733 40.6ZM516.333 63.2666V80.3333H511H505.667V67.8C505.667 61 506.067 52.7333 506.467 49.4L507.267 43.5333L511.8 44.8666L516.333 46.3333V63.2666ZM589.667 66.3333V76.3333H584.333H579V66.3333V56.3333H584.333H589.667V66.3333ZM447 63.9333C447 67.5333 447.4 71.6666 447.8 73.2666C448.6 76.3333 448.467 76.3333 434.2 76.3333C416.733 76.3333 411.533 78.3333 403.4 87.5333C395.933 95.9333 394.467 102.867 395.267 126.067L395.8 144.333H386.2H376.733L375.8 124.6C374.333 95.8 376.333 86.6 386.6 74.0666C396.2 62.2 407.8 57.9333 430.733 57.8L447 57.6666V63.9333ZM440.333 185.667V201.667H413.933C399.267 201.667 375.667 201.267 361.267 200.733L335 199.933V185.533V171L370.733 170.6C390.333 170.467 413.933 170.2 423.4 169.933L440.333 169.667V185.667ZM425.267 294.067C429.533 302.867 433.133 308.067 439.267 314.2C447.8 322.6 452.2 324.867 477 334.467C505.4 345.267 522.467 365.133 531.267 397.667L534.333 409V573.133V737.133L529.4 747.133C523.4 759.267 511.4 771.933 501.267 776.867L494.067 780.467L388.2 780.733L282.333 781L275 777.533C271 775.667 265.667 772.467 263.267 770.333C257.8 765.8 249.267 753.4 244.6 743.267L241 735.667L240.2 688.333C238.867 615.8 238.867 414.2 240.333 403.4C243 382.6 252.6 364.467 267.533 351.933C273.133 347.267 284.067 341.133 302.6 332.067C332.2 317.667 338.333 313 346.867 298.6C355 284.6 355.667 281 357.667 228.733C357.667 227.533 365.4 227.133 387.267 227C403.533 227 417.133 226.6 417.533 226.2C417.933 225.8 418.6 238.2 419 253.933L419.667 282.333L425.267 294.067Z" />
  <path
    d="M323.667 400.467C315.667 400.867 298.6 401.4 286.067 401.533L263 401.667L263.4 501.533C263.533 556.467 264.067 601.933 264.6 602.333C265.933 603.667 510.067 603.133 511.4 601.8C511.933 601.267 512.2 556.2 512.067 501.533L511.667 402.333L479.667 401.533C426.867 400.067 339.267 399.533 323.667 400.467ZM425 429.8C443.4 429.8 463.8 429.267 470.467 428.867L482.6 428.067L483.4 440.467C483.933 447.267 484.333 480.6 484.333 514.6V576.333L390.333 576.6C338.6 576.733 295.267 576.867 294.067 576.867C291.8 577 291.667 572.867 291.267 511C291 474.733 291.267 441.4 291.667 437L292.467 429L342.067 429.533C369.4 429.8 406.733 429.933 425 429.8Z"
    />
  <path
    d="M293.667 655.933C283.533 656.6 266.467 659.133 264.2 660.467C262.333 661.4 262.2 662.6 263 666.6C264.467 673 268.067 677.533 274.067 680.733C278.6 683 283.533 683.4 325.4 684.333C350.867 685 401 685.267 436.867 684.867C505.8 684.2 508.333 684.067 510.333 677.8C512.2 671.933 511.4 665.533 508.6 662.733C504.6 658.6 492.6 657.933 413.667 657C376.6 656.6 335.8 656.2 323 655.933C310.2 655.667 297 655.667 293.667 655.933Z"
    />
  <path
    d="M26.3333 785.267C8.73328 785.8 7.66661 786.2 3.53328 792.333C0.733276 796.467 0.199943 798.6 0.86661 802.2C1.93328 807.8 7.93328 813.267 14.0666 814.333C21.9333 815.667 217.8 814.067 227.8 812.6C238.333 811 243.8 808.867 244.867 806.067C246.467 802.2 239.533 793.267 231 788.067C228.067 786.333 214.867 786.067 133.667 785.533C81.9333 785.133 33.6666 785.133 26.3333 785.267Z"
    />
</svg>
