<svg viewBox="0 0 325 393" fill="none" xmlns="http://www.w3.org/2000/svg">
<path d="M272.212 2.03124C255.793 9.19139 245.423 23.5117 241.843 43.8811C237.399 69.4354 247.521 90.0516 264.434 90.0516C288.507 89.9282 315.049 73.7561 322.086 54.8682C325.666 45.4859 325.295 32.1532 321.098 22.771C317.888 15.4874 309.988 6.96927 303.074 3.26575C296.161 -0.314323 279.248 -0.931577 272.212 2.03124ZM293.816 21.5365C302.087 25.8572 306.284 35.9802 303.692 45.4859C300.729 56.7199 283.075 69.4354 270.607 69.5588C265.422 69.6823 264.681 69.3119 263.076 65.9787C261.965 63.7566 261.225 58.942 261.348 54.1275C261.471 30.7953 278.508 13.6356 293.816 21.5365Z" fill="currentColor"/>
<path d="M160.488 14.7469C159.131 16.1048 155.55 22.2774 152.341 28.5733C140.243 52.7697 126.786 75.2377 97.7755 120.544C65.5548 170.665 47.0372 207.207 38.8895 236.958C34.5687 252.636 33.3342 279.796 36.1736 293.992C40.9881 317.325 52.2222 337.447 70.246 355.594C88.1463 373.371 105.8 383.865 129.132 390.284C137.774 392.63 141.971 393 166.044 393C191.722 393 193.944 392.877 205.301 389.79C249.743 377.569 285.05 343.496 296.284 301.646C299.988 287.943 300.852 264.611 298.26 249.921C295.297 232.761 288.507 213.626 277.89 191.899C265.298 166.591 257.891 153.876 227.028 104.866C196.536 56.4732 195.178 54.2511 184.561 33.8817C179.87 24.9933 175.056 16.5986 173.698 14.9938C170.488 11.5371 163.945 11.2902 160.488 14.7469ZM177.154 61.2878C182.463 70.6701 196.536 93.8788 208.634 112.89C247.892 174.863 264.434 205.478 273.322 232.02C287.766 275.598 278.878 314.362 247.768 343.99C231.596 359.298 211.35 368.927 187.401 372.754C173.698 374.976 146.539 373.742 133.947 370.285C99.2569 360.903 70.4929 334.608 58.2712 300.906C55.185 292.511 54.9381 290.412 54.9381 272.759C54.9381 256.587 55.4319 252.143 57.7774 243.748C66.5424 213.132 82.2207 182.023 113.33 133.26C132.836 102.767 155.427 65.9789 161.723 54.498C164.809 48.9427 167.402 44.375 167.525 44.375C167.525 44.375 171.969 52.029 177.154 61.2878Z" fill="currentColor"/>
<path d="M74.1965 275.969C70.9868 280.043 70.9868 282.759 74.1965 293.252C83.5787 323.744 105.059 345.595 136.416 356.335C145.551 359.545 147.65 359.792 166.044 359.792C188.759 359.792 196.66 358.064 214.19 348.928C230.485 340.41 247.274 322.633 249.003 311.893C249.497 308.313 249.126 306.955 246.534 304.362C243.447 301.276 239.003 300.289 236.411 302.14C235.67 302.634 232.337 306.585 229.004 310.782C213.202 331.151 189.993 341.521 162.958 340.287C141.107 339.299 125.305 332.386 109.997 317.201C100.985 308.189 95.43 298.807 91.3561 285.721C89.8747 280.907 87.5292 276.092 86.1712 274.858C82.4677 271.648 77.1593 272.142 74.1965 275.969Z" fill="currentColor"/>
<path d="M64.4436 34.6223C45.1853 44.3749 47.9012 71.781 68.6409 77.0893C85.1833 81.2867 99.874 69.5588 98.516 53.3868C97.8987 46.1032 95.6766 42.2762 88.5165 36.474C82.2205 31.4126 72.221 30.6718 64.4436 34.6223ZM78.7639 50.7943C82.2205 54.2509 79.628 60.4235 74.69 60.4235C69.5051 60.4235 67.4064 54.9916 71.1099 51.2881C73.332 48.9426 76.6652 48.6957 78.7639 50.7943Z" fill="currentColor"/>
<path d="M18.6436 93.0146C12.5946 95.2367 4.94062 102.15 2.34815 107.829C-0.73812 114.495 -0.73812 126.099 2.34815 132.642C7.16273 143.012 17.1622 149.308 28.7666 149.308C55.9258 149.308 68.6412 117.705 49.136 99.0636C46.9139 96.8415 42.9635 94.2491 40.4944 93.2615C35.0626 90.9159 24.5693 90.7924 18.6436 93.0146ZM33.9515 110.298C41.3586 113.384 42.9635 120.668 37.5316 126.964C34.9392 130.173 33.4577 130.79 29.137 130.79C17.1622 130.79 13.2118 114.989 23.952 110.298C28.7666 108.199 28.8901 108.199 33.9515 110.298Z" fill="currentColor"/>
</svg>
