<?xml version="1.0" encoding="iso-8859-1"?>
<!-- Uploaded to: SVG Repo, www.svgrepo.com, Generator: SVG Repo Mixer Tools -->
<svg fill="currentColor" height="800px" width="800px" version="1.1" id="Layer_1"
  xmlns="http://www.w3.org/2000/svg" xmlns:xlink="http://www.w3.org/1999/xlink"
  viewBox="0 0 512 512" xml:space="preserve">
<g>
	<g>
		<path d="M411.234,443.384V247.83c0-20.946-14.142-45.673-32.196-56.293l-60.4-35.53V8.17c0-4.512-3.658-8.17-8.17-8.17H201.532
			c-4.512,0-8.17,3.658-8.17,8.17v147.837l-60.4,35.53c-18.054,10.62-32.196,35.346-32.196,56.293v195.555
			c-6.963,7.519-10.894,17.442-10.894,27.765c0,22.526,18.325,40.851,40.851,40.851h250.553c22.526,0,40.851-18.325,40.851-40.851
			C422.128,460.826,418.197,450.903,411.234,443.384z M209.702,16.34h92.596v49.021h-92.596V16.34z M209.702,81.702h92.596v16.34
			h-92.596V81.702z M381.277,495.66H130.723c-13.516,0-24.511-10.995-24.511-24.511c0-6.958,2.978-13.616,8.172-18.265
			c1.731-1.55,2.721-3.764,2.721-6.087V247.83c0-15.182,11.055-34.511,24.141-42.208l64.427-37.899
			c2.496-1.467,4.027-4.147,4.027-7.042v-46.298h92.596v46.298c0,2.896,1.533,5.574,4.027,7.042l64.427,37.899
			c13.085,7.697,24.141,27.027,24.141,42.208v198.967c0,2.324,0.989,4.537,2.721,6.087c5.194,4.65,8.172,11.308,8.172,18.265
			C405.787,484.665,394.792,495.66,381.277,495.66z"/>
	</g>
</g>
<g>
	<g>
		<path d="M343.725,339.954l-27.231-29.708c-1.547-1.688-3.732-2.65-6.023-2.65c-2.291,0-4.475,0.961-6.023,2.65l-21.207,23.138
			l-21.208-23.138c-1.547-1.688-3.732-2.65-6.022-2.65c-2.291,0-4.475,0.961-6.023,2.648l-21.219,23.141l-21.209-23.139
			c-1.547-1.688-3.732-2.65-6.022-2.65c-2.291,0-4.475,0.961-6.023,2.648l-27.242,29.709c-3.049,3.326-2.826,8.494,0.5,11.544
			c1.569,1.438,3.547,2.148,5.52,2.148c2.209,0,4.413-0.891,6.024-2.648l21.219-23.141l21.209,23.139
			c1.547,1.688,3.732,2.65,6.022,2.65c2.291,0,4.475-0.961,6.023-2.648l21.22-23.141l21.209,23.139
			c1.547,1.688,3.732,2.65,6.023,2.65c2.291,0,4.475-0.961,6.023-2.65l21.207-23.138l21.208,23.138
			c3.048,3.327,8.217,3.552,11.543,0.502C346.55,348.449,346.774,343.28,343.725,339.954z"/>
	</g>
</g>
<g>
	<g>
		<path d="M362.468,219.706l-80.539-47.375c-1.256-0.739-2.685-1.129-4.143-1.129h-43.574c-1.456,0-2.887,0.389-4.143,1.129
			l-80.538,47.375c-7.97,4.689-16.09,18.882-16.09,28.124v165.583c0,4.512,3.658,8.17,8.17,8.17h220.601v41.391l-212.43,0.004
			v-16.885c0-4.512-3.658-8.17-8.17-8.17s-8.17,3.658-8.17,8.17v25.055c0,2.167,0.861,4.245,2.393,5.777
			c1.533,1.533,3.61,2.393,5.777,2.393l228.77-0.004c4.512,0,8.17-3.658,8.17-8.17V247.83
			C378.553,238.587,370.435,224.393,362.468,219.706z M157.818,233.79l78.62-46.248h39.124l78.62,46.248
			c1.411,0.83,3.266,3.216,4.84,5.87H152.976C154.55,237.006,156.406,234.62,157.818,233.79z M362.213,405.243h-212.43V256h212.43
			V405.243z"/>
	</g>
</g>
</svg>
