<?xml version="1.0" encoding="iso-8859-1"?>
<svg version="1.0" xmlns="http://www.w3.org/2000/svg"
 width="1024.000000pt" height="1024.000000pt" viewBox="0 0 512 512"
 preserveAspectRatio="xMidYMid meet">
  <g fill="currentColor" stroke="none">
    <path d="M191.215,151.743V88.816h21.943v-49.11H97.174v49.11h21.943v62.927c-37.727,14.75-62.691,51.005-62.691,91.947V512
             h197.479V243.69C253.904,202.747,228.942,166.493,191.215,151.743z M112.846,73.143V55.38h84.637v17.763H112.846z
             M238.231,369.894H149.94v15.673h88.291v18.808h-53.809v15.673h53.809v76.278H72.1V243.69c0-36.066,23.021-67.807,57.284-78.983
             l5.406-1.764V88.816h40.751v74.127l5.406,1.764c34.263,11.176,57.283,42.917,57.283,78.983V369.894z"/>
    <polygon points="119.116,0 119.116,25.078 134.79,25.078 134.79,15.673 175.541,15.673 175.541,25.078 191.215,25.078 191.215,0"/>
    <polygon points="222.563,261.224 222.563,245.551 117.026,245.551 117.026,454.531 222.563,454.531 222.563,438.857
                     132.699,438.857 132.699,261.224"/>
    <path d="M289.435,311.016V512h166.139V311.016H289.435z M439.9,496.327H305.109v-13.991H439.9V496.327z M439.9,386.513v80.149
             H305.109v-80.149L439.9,386.513L439.9,386.513z M439.9,370.84H305.109v-44.15H439.9V370.84z"/>
    <rect x="321.818" y="394.083" width="11.878" height="11.878"/>
    <rect x="419.223" y="395.672" width="11.878" height="11.878"/>
    <rect x="372.592" y="399.541" transform="matrix(0.7071 -0.7071 0.7071 0.7071 -175.8483 386.4244)" width="11.878" height="11.878"/>
    <rect x="412.012" y="436.135" transform="matrix(0.7071 -0.7071 0.7071 0.7071 -190.1782 425.0167)" width="11.878" height="11.878"/>
    <rect x="316.365" y="447.055" transform="matrix(0.7071 -0.7071 0.7071 0.7071 -225.9149 360.5846)" width="11.878" height="11.878"/>
    <rect x="334.492" y="421.804" width="11.878" height="11.878"/>
    <rect x="380.426" y="446.349" width="11.878" height="11.878"/>
  </g>
</svg>
