<?xml version="1.0" encoding="iso-8859-1"?>
<svg fill="currentColor" version="1.1" id="Layer_1" xmlns="http://www.w3.org/2000/svg"
  xmlns:xlink="http://www.w3.org/1999/xlink"
  viewBox="0 0 1025 1025" xml:space="preserve">

  <path
    d="M185.962 21.5082C173.429 25.3749 164.229 37.2416 162.629 51.6415C161.295 62.8416 158.362 70.5749 153.029 76.8416C147.562 83.1082 136.895 88.8416 130.495 88.8416C120.495 88.8416 109.562 95.3749 105.029 104.042C103.295 107.375 103.029 154.175 103.162 511.242C103.429 909.908 103.429 914.575 106.095 919.642C109.562 926.575 116.629 930.975 128.362 933.508C150.495 938.042 159.962 948.708 161.962 970.708C163.162 983.108 165.962 989.908 172.895 996.442C182.362 1005.51 153.029 1004.84 513.296 1004.84C783.829 1004.84 840.096 1004.57 843.696 1003.11C855.829 997.908 863.029 986.442 864.496 969.642C865.696 957.642 868.762 950.308 875.429 943.642C880.896 938.042 885.296 935.908 896.096 933.375C906.496 930.975 910.762 928.975 914.896 924.575C922.096 916.842 921.696 944.842 921.829 511.108C921.962 121.775 921.962 109.908 919.562 104.442C915.696 95.6415 910.496 92.1749 896.496 88.9749C889.696 87.3749 882.229 84.8416 879.696 83.3749C871.562 78.3082 864.629 65.5082 864.629 55.5082C864.629 42.1749 855.562 27.6415 844.362 22.7082C838.762 20.3082 827.562 20.1749 515.296 19.9082C241.162 19.7749 191.029 19.9082 185.962 21.5082ZM842.096 39.2416C844.096 41.9082 844.496 43.7749 843.829 48.1749C841.829 61.6415 849.696 82.0416 861.162 93.6415C869.696 102.175 882.896 108.708 893.429 109.775C903.696 110.708 905.962 112.842 905.962 120.842C905.962 127.908 904.896 128.842 897.296 128.842C889.962 128.842 872.096 122.442 863.962 117.108C839.829 100.842 825.962 76.7082 825.962 51.1082C825.962 40.9749 827.429 37.2416 831.696 35.6415C835.696 34.1749 838.896 35.2416 842.096 39.2416ZM197.029 37.5082C203.562 43.9082 200.229 67.5082 190.229 86.8416C178.229 109.908 147.562 129.908 126.362 128.575L119.962 128.175L119.562 121.508C119.429 117.775 119.829 114.042 120.495 112.975C121.295 111.775 125.429 110.575 131.429 110.042C150.629 107.908 168.095 94.8416 176.895 76.0416C180.495 68.3082 181.162 64.9749 181.829 53.1082C182.495 41.5082 183.029 38.9749 185.162 37.3749C188.629 34.9749 194.629 34.9749 197.029 37.5082ZM805.296 48.4415C805.162 52.7082 804.896 57.2416 804.762 58.4415C804.629 60.7082 789.696 60.8416 511.962 60.8416H219.295V50.8416V40.8416H512.362H805.429L805.296 48.4415ZM809.562 83.1082C817.429 105.775 833.296 124.442 855.296 136.842L863.429 141.508L863.696 511.375L863.962 881.375L856.096 885.375C845.696 890.708 827.562 908.042 820.629 919.108C817.562 923.908 813.696 931.508 811.962 936.042L808.896 944.175H512.629H216.495L212.762 935.242C204.762 916.308 190.095 898.842 172.762 887.642C168.229 884.708 163.829 882.175 162.895 881.775C161.695 881.375 161.295 797.242 161.295 511.642L161.162 142.042L169.029 137.908C187.429 128.042 207.162 105.775 213.429 87.7749L215.962 80.8416H512.362C793.429 80.8416 808.762 80.9749 809.562 83.1082ZM141.962 511.642V874.442L135.029 873.508C131.162 872.975 126.629 872.042 125.029 871.375L121.962 870.175V535.242C121.962 350.975 122.362 188.975 122.895 175.242L123.695 150.308L128.495 149.775C131.162 149.508 135.295 149.242 137.695 149.108L141.962 148.842V511.642ZM895.029 149.642L901.962 150.575V510.842V871.242L893.562 872.708C888.896 873.508 884.362 874.175 883.562 874.175C882.362 874.175 881.962 787.242 881.962 511.508V148.842H885.029C886.629 148.842 891.162 149.242 895.029 149.642ZM143.962 896.842C176.895 908.175 199.295 938.975 199.829 973.642C199.962 986.042 197.829 990.175 191.162 990.175C184.362 990.175 181.962 985.908 181.962 973.242C181.962 954.842 174.895 938.708 161.429 926.442C153.429 918.975 143.962 914.708 131.562 912.708C120.362 910.842 119.695 910.175 120.495 899.375L120.895 892.442L128.495 893.242C132.629 893.775 139.562 895.375 143.962 896.842ZM904.629 901.375C904.629 906.175 903.962 910.442 903.162 910.842C902.362 911.375 897.962 912.308 893.296 912.842C864.229 916.442 840.896 946.175 844.096 975.642C844.762 982.175 844.496 983.508 841.696 986.708C838.229 990.842 832.762 991.775 829.296 988.842C821.829 982.708 825.562 952.575 835.962 934.842C849.829 910.975 876.496 893.242 899.029 892.975L904.629 892.842V901.375ZM805.029 973.775C805.429 978.842 805.429 983.242 805.029 983.775C804.762 984.442 672.762 984.842 511.829 984.842H219.295V974.842V964.842H511.829H804.229L805.029 973.775Z" />
  <path
    d="M385.029 120.841C381.162 122.441 377.562 129.508 378.762 133.241C380.229 138.441 384.762 142.175 389.295 142.175C400.229 142.175 404.762 129.908 396.495 122.975C392.229 119.375 389.829 118.841 385.029 120.841Z" />
  <path
    d="M615.162 123.375C611.029 127.508 610.362 131.241 612.896 135.908C615.162 140.308 618.096 142.041 623.429 142.175C633.696 142.175 637.962 129.775 629.829 122.975C624.496 118.441 619.962 118.575 615.162 123.375Z" />
  <path
    d="M438.629 126.841L435.296 130.042V175.108C435.296 217.242 435.429 220.442 437.829 224.308C439.429 226.975 442.362 229.242 445.162 230.175L449.962 231.775V260.708C449.962 276.708 449.296 293.242 448.496 297.641C444.096 321.908 421.962 345.108 395.829 352.841C367.696 361.108 349.696 377.641 341.029 403.508C338.762 410.441 338.629 421.108 338.229 628.841C337.962 776.042 338.362 849.908 339.296 856.175C342.762 879.775 360.762 900.175 383.162 906.175C387.562 907.375 420.362 907.775 507.296 907.642C638.629 907.508 632.096 907.908 646.762 898.442C660.362 889.642 669.029 877.508 673.162 861.242C675.029 854.042 675.296 829.108 675.296 635.108C675.296 493.241 674.762 414.708 673.962 410.041C669.296 385.508 648.629 362.975 623.429 355.375C603.962 349.375 588.762 339.908 578.229 327.242C565.029 311.508 563.296 304.042 563.296 263.242V231.508L567.829 229.641C576.762 225.908 576.629 226.575 576.629 175.775V130.042L573.296 126.841L570.096 123.508H505.962H441.829L438.629 126.841ZM472.362 156.441L472.762 168.841H465.296H457.962V157.108C457.962 150.575 458.362 144.841 458.896 144.308C459.429 143.775 462.629 143.508 465.962 143.775L471.962 144.175L472.362 156.441ZM499.029 156.441L499.429 168.841H493.296H487.296V157.108C487.296 150.575 487.696 144.841 488.229 144.308C488.762 143.775 491.296 143.508 493.962 143.775L498.629 144.175L499.029 156.441ZM553.962 156.308V168.975L547.696 168.575L541.296 168.175L540.896 157.641C540.629 151.775 540.762 146.308 541.162 145.242C541.562 144.175 544.096 143.508 547.962 143.508H553.962V156.308ZM525.962 156.841V168.841H520.096H514.096L513.696 156.841L513.296 144.841H519.696H525.962V156.841ZM553.962 198.175V207.508H505.962H457.962V198.175V188.841H505.962H553.962V198.175ZM541.696 237.108L541.296 245.508L509.296 245.908C491.696 246.042 475.962 245.908 474.362 245.508C471.562 244.841 471.296 244.042 471.296 236.841V228.841H506.629H542.096L541.696 237.108ZM508.762 294.841C509.429 317.108 509.962 322.708 512.229 329.108C516.896 341.908 528.229 355.775 535.429 357.508C538.229 358.175 539.562 357.641 541.829 354.708C543.296 352.708 544.629 350.575 544.629 349.775C544.629 348.975 541.962 344.308 538.629 339.242C528.629 324.442 527.029 318.442 526.362 291.775L525.562 268.841H532.896H540.229L541.029 287.108C541.429 300.708 542.362 307.375 544.362 312.841C555.162 342.975 578.362 364.575 611.962 375.508C617.162 377.241 623.695 379.775 626.496 381.108C634.496 385.108 643.962 394.841 647.429 402.575C650.496 409.241 650.629 410.975 651.029 445.775L651.429 482.175H642.762H634.229L633.695 449.108C633.162 412.441 632.762 410.441 623.029 401.375C614.362 393.108 608.629 391.241 592.229 391.375C577.562 391.375 575.429 392.042 575.296 396.441C575.296 397.375 576.629 399.641 578.362 401.508C580.762 404.441 583.029 405.241 591.829 406.308C597.696 407.108 603.429 408.175 604.762 408.975C608.096 410.708 611.296 417.108 611.296 422.175V426.175H598.896C583.029 426.175 576.229 424.041 561.296 414.708C536.096 398.841 526.496 395.508 506.629 395.508C485.962 395.508 473.296 399.775 450.229 414.708C436.496 423.641 428.229 426.175 413.029 426.175C401.296 426.175 400.629 426.041 400.629 423.375C400.629 418.708 404.762 411.508 408.629 409.508C410.629 408.441 416.362 407.241 421.429 406.708C434.896 405.508 440.362 400.841 435.696 394.308C433.962 391.775 432.496 391.508 419.829 391.508C407.696 391.508 405.029 391.908 399.562 394.708C396.096 396.441 391.429 399.908 389.029 402.441C381.162 410.708 380.629 413.375 380.629 449.508V482.175H371.162H361.829L362.229 446.441C362.629 411.108 362.629 410.708 366.096 403.375C373.029 388.841 382.896 381.108 405.429 373.241C433.562 363.241 454.496 344.442 465.696 319.108C469.962 309.508 472.629 294.442 472.629 280.175V267.375L490.362 267.775L507.962 268.175L508.762 294.841ZM522.762 418.841C526.496 419.908 534.496 423.908 540.762 427.641C567.562 444.175 576.762 447.508 594.762 447.508C612.362 447.508 611.296 446.441 611.296 465.641V482.175H593.296H575.296L566.896 473.641C536.096 442.841 489.296 439.241 452.896 464.708C448.629 467.775 442.896 472.841 440.229 476.175L435.162 482.175H418.629H401.962V464.841V447.508H414.362C435.296 447.508 445.562 444.041 468.096 429.375C474.496 425.108 483.029 420.708 487.162 419.375C496.496 416.441 513.696 416.175 522.762 418.841ZM522.362 472.175C537.296 476.041 551.962 485.775 559.562 496.841C561.962 500.441 565.162 503.641 566.629 504.041C568.096 504.441 587.696 504.841 610.362 504.841H651.296V632.042V759.108L646.362 760.042C643.562 760.442 639.296 760.842 637.029 760.842H632.629V646.175V531.375L629.296 528.041L625.962 524.708L605.029 525.508C579.296 526.575 578.762 526.575 576.896 530.841C574.762 535.641 574.896 537.375 577.829 540.975C580.229 543.908 581.696 544.175 595.562 544.841L610.629 545.508L611.029 653.375C611.162 712.842 610.896 761.775 610.362 762.308C606.762 765.775 487.829 767.508 437.962 764.842C423.696 764.175 409.696 763.508 407.029 763.508H401.962V654.175V544.841H414.629C429.296 544.841 432.629 542.975 432.629 534.975C432.629 526.975 429.962 526.175 405.029 526.175C385.029 526.175 383.296 526.308 381.962 528.708C381.029 530.441 380.629 569.508 380.629 646.042C380.629 754.442 380.496 760.842 378.362 760.842C377.029 760.842 372.762 760.442 369.029 760.042L361.962 759.108V632.042V504.841H402.629C433.429 504.841 443.562 504.441 444.629 503.108C445.429 502.308 447.829 498.975 449.962 495.908C457.162 485.641 473.829 474.708 486.896 471.641C495.029 469.775 514.096 470.041 522.362 472.175ZM389.962 784.842C459.962 790.975 580.629 790.042 645.695 782.842L651.296 782.175V792.708V803.108L630.362 804.575C541.296 811.242 449.029 810.975 382.629 804.175C372.362 803.108 363.562 802.175 363.029 802.175C362.362 802.175 361.962 797.642 361.962 792.042V781.908L368.362 782.708C371.829 783.108 381.562 784.042 389.962 784.842ZM377.429 826.175C380.496 826.175 380.629 826.442 380.629 837.508C380.629 844.842 381.296 850.308 382.496 852.708C385.562 858.575 394.629 865.908 400.229 866.975C403.029 867.508 451.562 868.042 507.962 868.042C594.629 868.175 611.296 867.908 615.296 866.308C627.829 861.108 632.762 853.508 633.695 838.042C634.229 827.908 634.362 827.775 638.229 826.975C640.496 826.575 644.762 826.175 647.695 826.175H653.029L652.229 839.908C651.162 858.175 647.962 866.708 639.162 874.708C627.296 885.375 634.362 884.842 506.762 884.842C402.496 884.842 392.762 884.708 386.896 882.575C378.762 879.642 371.029 873.108 366.229 865.108C362.896 859.375 362.629 857.508 362.096 841.642L361.696 824.442L367.962 825.242C371.429 825.775 375.696 826.175 377.429 826.175ZM463.962 831.508C495.562 832.175 527.029 832.442 533.962 832.175C540.896 831.775 561.562 831.242 579.829 830.842L613.029 830.042L612.229 836.442C611.695 841.108 610.629 843.508 607.962 845.775L604.496 848.842H505.829H407.162L403.962 845.508C401.296 842.975 400.629 840.975 400.629 835.375C400.629 828.975 400.762 828.575 403.696 829.375C405.296 829.775 432.496 830.842 463.962 831.508Z" />
  <path
    d="M491.695 489.509C467.029 496.175 452.095 513.775 449.162 539.509C448.229 547.909 450.762 560.042 455.429 568.975C462.895 583.642 480.629 595.775 497.162 597.509C514.495 599.375 529.162 594.575 541.962 582.709C564.895 561.509 566.095 528.309 544.762 505.775C530.495 490.709 510.362 484.575 491.695 489.509ZM519.962 512.575C526.095 515.775 532.762 522.309 535.829 528.442C548.762 554.175 520.362 584.575 492.629 574.842C470.495 567.109 462.495 538.709 477.562 521.375C480.895 517.509 488.629 512.175 493.295 510.309C499.295 508.175 513.695 509.375 519.962 512.575Z" />
  <path
    d="M436.762 636.308C435.162 638.308 433.962 640.841 433.962 642.175C433.962 643.508 435.162 646.041 436.762 648.041L439.429 651.508H506.496C581.696 651.508 579.296 651.775 579.296 642.308C579.296 632.441 582.629 632.841 506.896 632.841H439.429L436.762 636.308Z" />
  <path
    d="M437.829 679.508C432.362 682.708 434.495 694.308 440.895 696.042C442.629 696.442 472.895 696.842 508.095 696.842C571.029 696.842 572.362 696.842 575.829 694.042C578.362 692.042 579.295 690.042 579.295 686.842C579.295 677.908 581.029 678.175 506.629 678.175C466.629 678.175 439.029 678.708 437.829 679.508Z" />
  <path
    d="M452.629 725.908C450.495 727.641 449.562 729.775 449.695 732.841C449.962 741.641 448.629 741.508 504.895 741.908L555.695 742.308L558.762 739.375C562.762 735.641 562.895 729.775 559.295 726.175C556.762 723.641 554.895 723.508 506.095 723.508C459.029 723.508 455.429 723.641 452.629 725.908Z" />
  <path
    d="M662.362 125.108C660.762 125.908 658.762 128.175 657.962 130.042C656.896 132.708 656.629 160.308 656.896 226.308L657.296 318.842L660.496 325.908C664.496 334.842 674.496 343.908 683.696 346.975C689.829 349.108 696.362 349.375 741.962 349.508C793.296 349.508 793.296 349.508 800.362 346.308C809.962 342.042 818.629 332.175 821.562 322.308C823.429 315.775 823.696 304.575 823.829 225.508C823.962 142.442 823.829 135.908 821.562 131.908C816.896 123.242 819.029 123.508 738.362 123.642C690.096 123.642 664.362 124.175 662.362 125.108ZM800.629 170.042V195.108L791.029 196.175C785.696 196.708 758.362 196.575 730.362 196.042L679.296 195.108V170.042V144.842H739.962H800.629V170.042ZM697.962 252.842V287.642L689.029 287.242L679.962 286.842L679.562 271.508C679.296 263.108 679.562 247.642 679.962 237.108L680.896 218.175H689.429H697.962V252.842ZM767.296 244.842V271.508H742.629H717.962V244.842V218.175H742.629H767.296V244.842ZM800.629 252.842V287.508H792.629H784.629V252.842V218.175H792.629H800.629V252.842ZM798.896 309.642C801.429 310.308 801.562 310.842 800.496 314.042C799.696 315.908 797.829 318.975 796.229 320.708C790.229 327.242 787.829 327.508 739.962 327.508C697.562 327.508 694.896 327.375 689.829 324.842C684.496 322.042 679.296 315.375 679.296 311.108C679.296 308.975 682.896 308.842 737.696 308.842C769.696 308.842 797.296 309.242 798.896 309.642Z" />
  <path
    d="M732.629 236.442C725.829 239.108 723.962 245.375 728.762 249.642C730.896 251.642 734.096 252.308 742.629 252.575C752.496 253.108 753.962 252.842 756.496 250.308C760.096 246.708 760.096 241.908 756.496 238.708C754.362 236.842 751.296 236.175 744.229 235.908C738.896 235.775 733.696 235.908 732.629 236.442Z" />
  <path
    d="M306.762 152.175C300.495 157.908 303.295 164.708 313.695 168.842C331.962 176.042 336.362 199.642 323.029 219.508C317.162 228.308 311.695 232.842 300.895 237.908C294.095 241.108 291.829 241.508 277.962 241.508C260.362 241.508 254.495 239.642 244.629 230.708L238.895 225.508L261.695 224.842C283.429 224.175 284.629 224.042 287.829 220.975C292.362 216.708 292.495 210.442 288.229 206.442C285.162 203.642 284.095 203.508 253.029 203.508C222.629 203.508 220.762 203.642 217.429 206.308C214.495 208.575 213.962 210.175 213.962 215.375C213.962 229.108 228.095 247.775 245.429 256.975L253.962 261.508V295.108V328.842H232.762C221.029 328.842 210.495 329.242 209.295 329.642C203.562 331.908 202.895 344.442 208.362 347.375C211.295 348.842 288.895 350.708 298.095 349.508C309.962 347.908 315.429 338.442 308.229 331.775C305.562 329.242 303.429 328.842 290.629 328.575L275.962 328.175L275.562 296.708L275.295 265.108L284.229 264.175C305.562 262.042 318.495 256.308 332.095 242.842C354.362 220.842 358.895 190.442 343.429 166.308C333.695 151.108 315.429 144.042 306.762 152.175Z" />
  <path
    d="M383.962 268.175C379.962 272.175 379.696 276.708 383.429 281.375C385.429 283.908 387.429 284.842 390.762 284.842C400.496 284.842 404.496 274.442 397.162 267.775C392.762 263.908 387.962 264.042 383.962 268.175Z" />
  <path
    d="M615.296 268.175C608.762 275.108 613.162 284.842 622.762 284.842C628.629 284.842 632.629 280.842 632.629 275.108C632.629 265.908 621.562 261.508 615.296 268.175Z" />
  <path
    d="M209.295 402.175C206.762 407.108 206.629 422.442 209.162 427.242C210.229 429.242 213.829 433.508 217.295 436.842C220.762 440.175 229.295 449.242 236.229 457.108C243.162 465.108 249.295 471.508 249.695 471.508C250.229 471.375 252.895 468.442 255.695 464.708C259.962 459.375 270.762 435.108 274.895 421.908C276.095 417.908 274.229 413.375 270.495 411.642C265.429 409.375 259.429 413.642 254.229 423.108C246.762 436.975 247.429 436.842 240.095 428.708C236.629 424.842 230.095 416.308 225.695 409.908C216.629 396.708 213.029 394.975 209.295 402.175Z" />
  <path
    d="M799.829 404.441C786.629 421.108 782.629 425.908 777.829 431.108C774.895 434.308 772.362 436.842 772.095 436.842C771.695 436.842 769.562 432.842 767.029 428.042C759.162 412.308 752.362 407.775 745.829 414.308C742.495 417.642 742.629 418.175 749.295 435.508C756.895 455.775 759.295 460.308 765.429 466.308L771.162 472.042L774.229 468.042C779.162 461.775 787.029 452.975 799.562 440.042C805.962 433.375 811.829 426.308 812.629 424.308C814.762 418.708 814.362 404.575 811.829 401.108C808.762 396.575 805.295 397.508 799.829 404.441Z" />
  <path
    d="M798.496 462.442C791.962 469.242 782.896 478.842 778.362 483.775L770.096 492.708L751.162 472.175C740.229 460.442 731.029 451.508 729.696 451.508C725.029 451.508 723.296 456.575 724.496 467.775L725.429 478.175L742.762 495.775C752.229 505.508 762.362 516.175 765.162 519.375L770.362 525.242L775.162 519.375C777.696 516.175 788.096 505.108 798.096 494.842L816.362 476.175L817.296 465.108C818.362 453.508 817.296 450.175 812.762 450.175C811.429 450.175 805.029 455.775 798.496 462.442Z" />
  <path
    d="M206.629 453.775C204.762 455.642 204.495 457.642 205.295 466.708C205.829 472.708 206.895 478.708 207.695 480.175C208.362 481.642 215.429 489.108 223.295 496.842C231.162 504.575 240.362 514.042 243.829 518.042L249.962 525.108L253.029 521.375C259.829 512.575 277.029 494.042 282.762 489.375C290.895 482.708 294.762 475.375 295.829 465.108C296.762 455.375 295.295 451.508 290.762 451.508C287.829 451.508 278.762 460.175 257.829 483.108L249.162 492.575L229.962 472.042C219.429 460.708 210.362 451.508 209.829 451.508C209.295 451.508 207.829 452.442 206.629 453.775Z" />
  <path
    d="M798.362 515.108C790.229 522.975 780.629 533.108 776.895 537.508L770.095 545.508L749.962 524.442C737.695 511.908 728.762 503.508 727.162 503.508C725.562 503.508 724.362 504.708 723.829 506.975C722.495 512.175 724.229 528.708 726.495 531.908C727.562 533.508 737.829 544.442 749.295 556.042L770.229 577.242L773.562 572.708C775.429 570.175 785.962 559.375 796.762 548.575C818.495 526.975 818.362 527.108 817.695 510.842C817.429 503.642 816.762 501.508 815.162 501.108C813.962 500.842 806.895 506.842 798.362 515.108Z" />
  <path
    d="M269.562 523.508L248.629 544.708L242.895 538.442C208.895 501.508 209.695 502.308 206.495 504.842C203.962 506.975 203.962 524.575 206.495 530.575C207.429 533.108 213.295 539.642 219.429 545.242C225.562 550.842 234.762 560.308 239.829 566.175C245.029 572.042 249.429 576.842 249.829 576.842C250.229 576.842 252.095 574.575 253.962 571.775C255.829 569.108 265.562 558.575 275.562 548.575C285.695 538.442 294.229 528.842 294.629 527.242C296.362 519.242 297.429 506.175 296.362 504.308C295.695 503.108 294.095 502.175 292.762 502.175C291.429 502.175 281.162 511.508 269.562 523.508Z" />
  <path
    d="M808.895 556.841C805.962 558.975 795.829 569.108 786.362 579.375L769.295 598.042L748.895 576.841C737.562 565.108 727.562 555.508 726.629 555.508C723.029 555.508 721.962 560.308 722.895 571.642L723.695 582.708L746.495 606.442L769.295 630.042L776.495 621.775C780.495 617.242 790.095 607.242 797.962 599.508C805.829 591.775 813.295 584.042 814.362 582.175C817.429 577.242 818.895 556.575 816.362 554.441C814.762 553.108 813.295 553.642 808.895 556.841Z" />
  <path
    d="M204.762 556.441C204.095 557.775 203.962 564.175 204.495 571.108L205.295 583.508L222.895 601.108C232.629 610.842 242.495 621.375 244.895 624.442C247.295 627.508 249.562 630.042 249.962 630.042C250.362 630.042 253.295 626.442 256.629 622.042C259.962 617.642 269.295 607.508 277.562 599.508C285.695 591.508 293.295 583.375 294.362 581.242C296.362 577.242 298.362 559.375 297.029 556.041C296.629 554.975 295.162 554.175 293.829 554.175C290.762 554.175 272.362 571.642 259.029 587.108L249.429 598.308L240.762 588.575C228.229 574.575 208.362 554.175 207.162 554.175C206.495 554.175 205.562 555.242 204.762 556.441Z" />
  <path
    d="M791.162 627.375L768.629 650.575L753.562 634.708C745.296 626.042 735.696 615.775 732.229 612.175C726.096 605.642 725.829 605.508 723.829 608.175C722.096 610.308 721.829 613.108 722.496 623.375C723.562 637.775 723.962 638.575 738.896 651.508C748.229 659.508 752.629 666.442 752.629 672.842C752.629 674.308 751.429 678.975 749.962 683.242C746.896 691.908 747.829 696.575 753.429 699.508C759.562 702.842 762.896 700.175 771.829 684.708C783.029 665.375 784.629 663.508 797.562 652.708C814.096 638.842 816.096 635.642 817.296 620.708C818.096 610.308 817.829 608.175 815.962 606.308C813.962 604.308 812.096 605.908 791.162 627.375Z" />
  <path
    d="M206.229 607.775C204.229 609.775 204.095 629.775 205.962 635.108C206.762 637.108 215.029 646.308 224.495 655.508C239.295 670.041 242.362 673.775 248.495 685.241C252.362 692.308 256.762 698.841 258.229 699.641C261.962 701.641 266.895 700.041 269.429 696.175C271.695 692.708 271.562 692.041 268.095 680.041C266.629 674.841 266.495 671.775 267.562 666.975C268.762 661.508 270.495 659.108 281.429 648.575C288.362 641.775 294.229 635.241 294.762 633.908C295.162 632.441 295.962 626.708 296.495 621.108C297.562 610.708 296.629 606.175 293.562 606.175C291.695 606.175 265.162 632.708 255.562 644.175L249.962 650.841L236.895 636.841C210.362 608.041 208.095 605.908 206.229 607.775Z" />
  <path
    d="M271.295 755.508C268.762 758.042 268.629 759.908 268.629 785.908C268.629 811.242 268.895 813.908 271.029 815.908C274.362 818.975 281.429 818.708 284.629 815.508C287.162 812.975 287.295 811.108 287.295 785.508C287.295 759.242 287.162 758.175 284.362 755.508C280.629 752.042 274.762 752.042 271.295 755.508Z" />
  <path
    d="M733.829 755.375C730.629 757.908 730.629 758.175 730.629 785.242C730.629 810.175 730.895 812.842 733.162 815.375C736.495 818.975 743.695 819.108 747.295 815.508C749.829 812.975 749.962 811.108 749.962 785.642V758.308L746.495 755.642C742.095 752.175 737.829 752.042 733.829 755.375Z" />
  <path
    d="M210.362 832.175C203.162 835.242 201.162 842.442 206.095 846.975C207.562 848.308 212.362 850.175 216.762 851.108C232.095 854.175 239.562 859.908 266.229 889.108C280.762 904.842 289.562 911.508 296.096 911.508C300.896 911.508 305.296 908.308 306.629 903.775C307.429 901.108 306.496 899.775 301.829 895.775C294.096 889.108 281.029 876.042 266.229 859.775C252.495 844.708 245.562 839.375 234.229 834.842C224.095 830.842 215.695 829.908 210.362 832.175Z" />
  <path
    d="M794.629 831.775C778.362 834.842 765.162 844.308 741.829 870.042C733.295 879.375 724.229 887.642 718.362 891.642C709.429 897.642 708.629 898.708 708.629 902.842C708.629 908.175 712.495 911.508 718.495 911.508C727.162 911.508 734.095 906.308 757.962 882.175C784.095 855.642 789.695 852.042 805.429 850.442C813.029 849.642 814.762 848.975 817.029 845.908C820.495 841.242 819.162 836.175 813.562 832.842C808.895 830.042 805.029 829.775 794.629 831.775Z" />
  <path
    d="M123.695 42.3083C117.829 44.0416 113.962 49.9083 113.962 57.1083C114.095 66.4416 119.829 71.5083 130.229 71.5083C146.895 71.375 150.229 49.2416 134.495 42.7083C129.562 40.575 129.562 40.575 123.695 42.3083Z" />
  <path
    d="M891.696 42.3082C885.429 44.1749 881.962 49.2415 881.962 56.9749C881.962 64.7082 885.696 69.7749 892.629 71.3749C905.962 74.3082 916.362 62.4415 910.896 50.7082C907.429 43.5082 899.696 40.0415 891.696 42.3082Z" />
  <path
    d="M124.229 950.175C119.029 951.775 116.495 954.042 114.362 959.375C109.029 971.908 123.162 984.842 135.695 978.842C143.695 975.108 146.895 964.442 142.495 956.975C138.762 950.708 131.429 948.042 124.229 950.175Z" />
  <path
    d="M891.429 950.575C877.695 955.375 878.495 975.508 892.629 979.641C901.829 982.441 911.029 976.308 912.095 966.575C913.429 955.241 902.495 946.841 891.429 950.575Z" />
</svg>
