<?xml version="1.0" encoding="iso-8859-1"?>
<svg version="1.0" xmlns="http://www.w3.org/2000/svg"
 width="1024.000000pt" height="1024.000000pt" viewBox="0 0 1025 1025"
 preserveAspectRatio="xMidYMid meet">
  <g fill="currentColor" stroke="none">
    <path
      d="M258.386 38.6335C254.386 39.5668 248.653 45.5668 247.72 49.7001C246.786 53.9668 248.92 59.9668 252.786 64.1002C255.32 66.9001 256.786 67.1668 265.72 66.9001L275.72 66.6335L275.586 83.1668C275.453 106.1 273.72 109.833 251.986 132.1C234.52 150.1 229.053 158.9 225.853 173.433C222.52 189.3 225.053 208.233 231.986 220.367C236.386 227.967 249.986 241.433 254.386 242.5C257.986 243.433 258.253 244.5 256.92 255.967L255.986 262.9L248.52 265.833C219.853 277.167 185.853 299.167 163.186 320.9C147.186 336.5 129.853 359.034 117.986 379.967C108.92 396.1 96.9196 427.567 93.8529 443.034C87.7196 474.233 86.6529 486.367 87.4529 512.367C87.9863 525.967 88.9196 541.034 89.7196 545.967C95.8529 587.167 129.186 641.167 170.253 676.367C183.853 687.967 183.72 685.7 172.653 709.034L165.186 724.9L164.653 761.3C164.253 787.034 163.586 797.7 162.52 797.7C158.653 797.7 150.653 800.767 148.253 803.167C146.386 805.034 145.72 807.567 145.72 812.767V819.967L102.653 819.3L59.7196 818.634L55.3196 822.367C49.1863 827.567 49.4529 832.5 56.3863 839.3L61.7196 844.767L73.4529 843.834C79.9863 843.3 86.9196 843.3 88.7863 843.7L92.3863 844.634V866.9V889.034L82.6529 889.434C74.3863 889.7 72.6529 890.234 70.1196 893.167C65.8529 897.834 66.1196 903.434 70.6529 907.034C73.7196 909.434 75.7196 909.834 83.3196 909.434L92.3863 909.034V931.967C92.3863 944.5 92.7863 955.7 93.1863 956.9C93.8529 958.767 91.9863 959.034 76.6529 959.034C58.1196 959.034 57.5863 959.167 52.7863 966.5C50.1196 970.634 51.4529 977.567 55.7196 982.234L58.9196 985.7L509.453 985.567C757.32 985.434 961.986 985.034 964.386 984.5C969.453 983.567 973.32 979.034 974.52 972.767C975.32 969.034 974.786 967.834 970.653 963.7L965.986 959.034H948.52H931.053V937.3C931.053 925.434 930.653 914.367 930.253 912.634C929.453 909.834 929.72 909.7 937.586 909.7C947.986 909.7 954.653 907.034 955.853 902.5C956.92 897.834 955.586 892.9 952.253 889.567C949.853 887.167 948.253 886.767 940.253 887.3L931.053 887.834V865.434V843.034L947.586 843.834C966.653 844.9 969.72 843.834 973.32 835.434C974.92 831.567 974.92 829.967 973.586 826.767C970.653 819.567 967.72 819.034 933.053 819.034H901.72V798.234C901.72 786.5 901.186 776.367 900.386 774.9C899.053 772.5 899.586 772.367 913.453 772.367C929.986 772.367 933.586 770.767 936.386 762.367C937.72 758.367 937.586 756.9 935.453 752.767C932.253 745.967 928.386 744.367 915.453 744.367H904.52L903.853 739.967C903.453 737.7 902.786 729.034 902.386 721.034C901.32 701.7 898.653 690.234 893.053 681.567C890.52 677.567 887.32 672.234 885.853 669.434L883.053 664.634L893.986 654.767C909.72 640.634 927.053 619.833 934.386 606.367C937.853 599.967 942.786 588.5 945.32 580.767C949.453 567.967 949.853 565.167 950.653 543.7L951.453 520.634L957.453 519.7C971.453 517.567 977.053 502.5 966.52 495.567C963.453 493.567 949.053 493.3 802.786 492.634C654.786 491.967 641.986 492.1 638.12 494.233C626.253 500.233 627.586 515.567 640.386 519.034L645.453 520.367L646.253 534.767C648.653 576.367 650.92 585.967 663.853 608.5C677.586 632.5 688.253 643.833 715.053 663.567L723.72 669.834L716.92 677.034C705.186 689.434 703.053 696.9 703.053 726.367V745.3L688.253 745.967C671.053 746.9 669.853 747.7 669.72 758.634C669.72 764.634 670.253 765.834 673.853 768.9C677.32 771.834 679.32 772.367 686.12 772.367C690.653 772.367 696.52 772.767 699.053 773.167L703.72 773.967V795.7C703.586 807.7 703.32 817.834 702.92 818.234C702.52 818.634 662.786 819.167 614.653 819.3L527.053 819.7V814.9C527.053 804.5 523.986 800.5 513.853 797.967C507.72 796.5 507.586 795.967 505.853 757.967C504.653 733.3 503.72 723.834 501.053 712.367C499.186 704.367 497.053 696.234 496.386 694.367C493.453 686.634 494.253 685.567 518.52 661.567C555.32 625.167 565.72 610.5 580.253 573.967C593.853 539.967 596.786 505.034 589.586 463.034C583.453 426.767 564.386 381.833 543.053 353.034C526.92 331.433 497.72 304.367 472.386 287.7C459.32 279.034 430.253 264.234 422.92 262.367C419.853 261.567 419.32 260.633 418.52 254.633C417.32 244.633 417.453 243.034 419.453 243.034C420.386 243.034 425.72 238.633 431.32 233.3C439.053 225.967 442.52 221.3 446.52 213.167C451.186 203.567 451.72 201.567 452.12 189.7C452.786 175.034 450.786 165.967 444.12 153.567C439.986 145.7 426.92 131.3 415.986 122.633C412.52 119.833 408.92 115.967 407.853 113.967L405.986 110.233L543.453 110.633C713.453 111.167 717.72 111.167 726.386 114.367C738.653 118.633 751.586 129.433 758.253 140.767C766.12 154.233 765.853 148.767 765.72 318.1C765.72 403.3 765.586 474.1 765.72 475.3C765.72 477.434 767.186 477.7 778.253 477.7H790.653L791.586 408.633C792.12 370.767 792.253 298.9 792.12 249.034C791.586 147.567 792.12 152.767 781.72 131.567C772.386 112.5 755.186 97.7001 733.453 90.1002C718.386 84.7668 688.786 83.9668 534.786 84.9001L400.386 85.7001V76.2335C400.386 67.7001 400.653 66.9001 402.786 67.8335C403.986 68.5001 474.92 69.3002 560.386 69.7001C734.653 70.6335 727.32 70.2335 747.72 80.3668C777.72 95.4335 796.653 116.633 805.186 145.034C807.453 152.5 807.72 163.433 807.986 315.167L808.52 477.3L816.653 478.233C821.053 478.634 827.053 479.034 829.853 479.034H835.053L835.32 346.633C835.586 273.967 835.32 200.5 834.92 183.7C834.12 155.967 833.72 151.833 830.52 141.034C825.72 124.767 819.32 111.567 810.386 99.7001C793.186 76.9001 762.92 56.6335 735.453 49.7001C717.32 45.0335 692.786 44.2335 557.453 44.5001C429.32 44.6335 427.32 44.6335 423.453 41.9668C419.853 39.4335 417.053 39.3002 340.386 38.6335C296.786 38.3668 259.853 38.3668 258.386 38.6335ZM372.92 67.8335C373.32 69.0335 373.72 77.1668 373.72 86.1002C373.853 113.567 377.986 125.7 391.453 136.633C415.053 156.1 424.786 170.633 424.786 186.767C424.786 201.433 419.453 210.367 404.786 219.833C393.453 227.3 386.12 228.5 351.053 229.3C333.853 229.567 311.853 229.3 302.253 228.633C286.653 227.567 283.853 226.9 275.853 223.034C266.253 218.233 257.32 209.7 254.12 201.967C250.786 194.1 251.186 181.167 254.92 171.034C257.853 163.3 259.986 160.633 275.053 145.7C299.32 121.833 303.053 113.167 303.053 81.5668V65.7001H337.586C367.853 65.7001 372.253 65.9668 372.92 67.8335ZM388.92 260.367C389.32 262.234 389.986 266.234 390.386 269.433C391.453 276.1 392.92 277.3 408.52 283.567C439.453 296.1 459.986 308.5 485.053 329.967C513.72 354.633 539.453 389.967 551.186 421.3C556.92 436.367 564.386 462.9 564.386 467.967V471.034H339.186H114.12L115.853 461.3C121.453 428.633 136.52 392.5 154.253 369.034C170.653 347.3 194.52 325.167 220.253 307.7C226.52 303.567 243.053 294.5 257.053 287.7C284.92 274.367 284.386 274.9 284.386 263.034V257.034H336.386H388.386L388.92 260.367ZM567.72 499.167C568.92 500.367 566.12 525.434 563.586 537.7C558.92 559.567 543.186 595.3 531.32 611.034C515.853 631.567 487.186 659.167 468.386 671.7C448.52 684.767 413.72 699.834 392.386 704.5C344.52 714.9 310.386 713.567 266.386 699.434C212.786 682.367 175.853 654.1 142.12 604.367C126.12 580.634 113.986 541.967 111.986 507.434L111.453 497.833L339.186 498.1C464.386 498.233 567.186 498.767 567.72 499.167ZM892.786 519.833L923.32 520.767L922.653 542.9C922.12 565.7 920.786 573.3 914.786 588.367C908.653 603.434 893.986 621.7 876.253 636.234C862.386 647.567 851.72 653.434 835.053 659.3C822.786 663.567 821.72 663.7 802.386 663.7C782.386 663.567 782.386 663.567 765.72 657.967C743.586 650.367 728.12 641.034 710.92 624.634C697.72 612.1 690.386 602.767 684.386 591.034C677.986 578.367 673.72 556.234 673.72 535.034V519.567L768.12 519.167C819.986 519.034 876.12 519.3 892.786 519.833ZM751.72 681.7C756.12 683.034 763.986 685.567 769.053 687.167C776.12 689.434 782.786 690.234 796.12 690.767C817.053 691.434 825.586 690.1 847.32 682.9C868.653 675.967 869.053 676.234 871.053 702.1C871.72 711.167 872.653 719.567 873.186 720.9C873.986 723.034 869.853 723.167 803.986 722.767C765.453 722.5 733.453 721.967 733.053 721.434C731.853 720.367 735.986 687.167 737.986 681.567C739.053 678.634 739.986 677.7 741.586 678.367C742.786 678.9 747.32 680.367 751.72 681.7ZM271.853 731.167C294.386 736.367 318.786 737.967 354.12 736.367C379.32 735.167 401.053 732.234 413.72 728.234C419.453 726.367 440.253 716.767 453.986 709.7C459.586 706.767 464.786 704.367 465.586 704.367C467.053 704.367 470.12 714.234 471.72 723.7C472.253 726.634 473.986 731.434 475.586 734.367C477.32 737.3 479.053 743.034 479.453 747.167L480.12 754.767L446.653 755.567C326.786 758.5 275.986 757.967 204.786 752.9L193.72 752.1V747.434C193.72 744.9 194.92 737.834 196.253 731.834C197.72 725.967 199.853 716.5 201.053 710.9L203.186 700.634L229.053 713.834C252.12 725.7 256.52 727.434 271.853 731.167ZM771.72 745.834C787.453 749.967 820.52 750.367 832.653 746.634C841.186 744.1 876.92 743.3 878.386 745.7C879.853 748.1 872.52 749.7 855.32 750.367C845.986 750.767 827.853 752.1 814.92 753.3C793.32 755.3 789.986 755.3 770.92 753.3C759.586 752.1 745.186 750.767 738.786 750.234C732.253 749.834 727.053 749.034 727.053 748.5C727.053 748.1 727.453 746.234 727.986 744.5C728.786 741.434 728.92 741.434 744.253 742.1C754.253 742.5 763.853 743.834 771.72 745.834ZM862.786 774.634L879.053 775.434V797.3V819.034H803.72H728.386V799.167C728.386 788.234 727.986 778.367 727.586 777.3C727.053 775.834 727.853 775.034 729.986 774.634C735.053 773.7 845.186 773.567 862.786 774.634ZM481.72 788.634C481.72 796.767 481.453 797.567 478.786 797.967C477.053 798.234 461.986 797.967 445.053 797.434C412.92 796.367 191.32 797.434 189.453 798.5C188.92 798.9 188.386 795.3 188.386 790.5V781.7L193.453 781.567C196.12 781.434 206.786 781.034 217.053 780.5C227.32 780.1 291.053 779.7 358.786 779.7H481.72V788.634ZM903.586 851.567C903.986 855.834 904.386 865.567 904.386 873.034V886.5L513.053 886.367C297.853 886.367 121.586 885.967 121.32 885.7C120.92 885.3 120.386 875.7 120.12 864.367L119.453 843.7H511.053H902.786L903.586 851.567ZM729.453 914.9L904.386 915.034V937.034V959.034H511.72H119.053V937.3C119.053 925.3 119.32 915.167 119.586 914.9C120.12 914.367 288.92 914.367 729.453 914.9Z" />
    <path
      d="M282.92 157.7C272.786 168.234 269.186 175.834 268.653 187.967C268.12 197.567 268.12 197.7 272.786 202.367C276.52 206.1 278.52 207.034 282.653 207.034C290.653 207.034 292.92 203.834 292.52 193.034C292.386 188.367 292.92 183.034 293.853 181.434C294.653 179.7 299.32 174.367 303.986 169.567C309.32 164.1 312.386 159.967 311.72 159.034C309.32 155.167 299.72 149.7 295.186 149.7C291.186 149.7 289.32 150.767 282.92 157.7Z" />
    <path
      d="M325.853 303.7C302.653 310.234 286.386 328.5 283.32 351.434C281.053 369.034 284.92 381.567 296.52 394.234C304.386 402.9 320.653 411.834 331.186 413.434C350.253 416.234 375.986 405.034 386.92 389.3C402.653 366.367 398.12 337.567 375.453 316.367C369.186 310.5 365.186 307.967 358.786 305.834C347.186 301.967 334.92 301.167 325.853 303.7ZM352.12 330.5C355.853 332.367 360.786 335.967 362.92 338.5C367.053 343.034 371.053 354.1 371.053 360.234C370.92 365.967 366.52 374.1 360.12 379.967C350.52 388.634 340.653 390.367 327.72 385.567C305.453 377.3 301.986 346.5 321.853 331.967C327.986 327.567 329.586 327.034 336.92 327.034C343.186 327.034 346.92 327.834 352.12 330.5Z" />
    <path
      d="M207.053 357.967C205.586 360.367 204.386 362.634 204.386 363.034C204.386 363.567 202.253 363.567 199.72 363.3C197.186 363.034 193.586 363.167 191.853 363.567C186.12 365.034 171.853 378.367 164.386 389.167C152.386 406.5 140.12 436.9 143.053 441.7C144.52 444.1 156.653 446.9 159.186 445.567C162.386 443.967 165.053 439.3 170.253 426.367C177.853 407.434 188.653 392.9 213.586 367.567C219.453 361.567 220.386 358.367 216.786 355.567C212.92 352.634 209.853 353.434 207.053 357.967Z" />
    <path
      d="M135.453 515.967C133.053 516.767 133.32 528.1 135.72 539.7C139.32 556.5 147.053 577.167 153.986 588.634C165.986 608.367 180.253 625.7 184.52 625.7C187.186 625.7 190.653 623.034 194.12 618.634L197.586 614.1L194.786 608.9C193.32 606.1 190.12 601.3 187.72 598.367C181.453 590.634 169.053 567.834 165.72 557.7C164.12 552.9 161.453 542.5 159.72 534.634C155.853 516.767 154.52 515.034 144.52 515.167C140.386 515.167 136.253 515.567 135.453 515.967Z" />
    <path
      d="M521.986 517.967C519.986 520.633 505.72 563.833 505.72 567.567C505.72 570.367 507.053 571.7 512.253 574.367C515.986 576.233 519.72 577.3 520.653 577.033C525.986 574.9 539.453 541.833 541.32 525.967C541.986 519.433 541.853 519.033 538.52 517.7C533.453 515.833 523.72 515.967 521.986 517.967Z" />
    <path
      d="M495.72 585.834C493.72 588.9 489.72 593.967 486.92 597.034C484.12 600.1 480.92 604.767 479.72 607.434L477.853 612.1L483.053 616.9C485.986 619.567 489.186 621.7 490.12 621.7C493.986 621.7 508.253 605.3 511.986 596.5C514.786 589.967 513.32 586.634 506.653 583.3C503.453 581.7 500.52 580.367 500.12 580.367C499.72 580.367 497.72 582.9 495.72 585.834Z" />
    <path
      d="M452.52 632.233C440.653 641.167 438.52 643.967 440.253 648.633C442.12 653.567 447.72 658.1 450.92 657.033C455.853 655.567 473.453 643.3 475.053 640.367C477.986 634.9 472.253 624.367 466.386 624.367C464.653 624.367 458.52 627.967 452.52 632.233Z" />
    <path
      d="M206.52 631.833C203.053 639.167 203.853 642.1 211.053 650.1C219.72 659.567 223.72 660.633 228.653 655.167C230.786 652.9 232.386 649.833 232.386 648.5C232.386 645.033 227.053 638.9 219.32 633.3C210.12 626.633 209.053 626.5 206.52 631.833Z" />
    <path
      d="M692.386 551.034C690.253 553.167 689.72 555.434 689.72 563.434C689.72 580.767 699.32 593.834 709.453 590.234C712.786 589.034 713.053 588.367 713.053 582.367C712.92 571.434 708.786 551.967 706.253 550.1C702.653 547.434 695.453 547.967 692.386 551.034Z" />
    <path
      d="M895.986 553.834C890.786 557.834 888.92 562.1 884.92 579.034C881.986 591.434 881.72 594.234 883.186 595.167C889.053 598.9 898.253 593.7 903.186 584.1C905.72 579.167 909.586 563.967 909.72 558.9C909.72 552.634 901.72 549.567 895.986 553.834Z" />
  </g>
</svg>
