<svg viewBox="0 0 346 395" fill="none" xmlns="http://www.w3.org/2000/svg">
<path d="M20.0666 1.20006C9.93331 2.00006 8.73331 2.40006 4.73331 6.40006L0.333313 10.8001L0.59998 26.4001C0.733313 34.9334 2.19998 59.2001 3.66665 80.2667C11.6666 193.467 15.6666 255.2 18.3333 303.333C20.0666 333.467 21.8 343.067 27.8 355.067C33.6666 366.533 48.7333 381.467 59.9333 386.667C76.6 394.4 79 394.667 170.333 394.667C220.733 394.667 257 394.133 262.067 393.333C291.667 388.533 314.6 367.733 321.533 339.333C322.733 334.933 324.467 316.933 325.667 299.333C327.533 269.467 328.733 253.867 335.667 164.667C337.133 145.6 340.2 105.733 342.467 76.0001C344.733 46.2667 346.333 19.4667 345.933 16.2667C345.133 9.20006 339.8 3.06673 333 1.46673C327.667 0.266727 36.6 6.07967e-05 20.0666 1.20006ZM324.067 23.6001C324.467 24.2667 324.2 31.6001 323.533 40.0001C322.867 48.4001 321.533 67.6001 320.333 82.6667C318.333 110 314.6 159.333 308.333 239.333C306.6 262.8 304.467 291.6 303.667 303.333C301.933 329.333 299.533 340.667 293.933 348.933C288.2 357.333 277.667 365.733 268.333 369.2C260.867 372 259.8 372 169.933 371.733L79 371.333L71.2666 367.733C61.5333 363.2 49.9333 351.6 45.5333 342.133C43.4 337.467 41.8 330.533 41 323.067C39.2666 307.333 33.2666 218.933 31.6666 187.333C30.6 164.667 29.1333 141.733 23.1333 50.6667C22.2 36.4001 21.6666 24.2667 21.9333 23.6001C22.2 23.0667 90.2 22.6667 173 22.6667C255.8 22.6667 323.8 23.0667 324.067 23.6001Z" fill="currentColor"/>
<path d="M191.267 37.8666C180.467 41.7333 176.867 45.7333 151 81.7333C130.2 110.667 126.6 116.533 125.533 123.467C124.867 128.4 124.067 129.467 121.133 130.133C98.3333 135.333 92.4666 138 63.6666 156.8C37.9333 173.6 34.0666 178.933 34.2 198C34.2 217.6 41 300.4 43.1333 307.333C47.2666 320.8 60.2 333.867 73.6666 338C79 339.733 86.2 340 109.267 339.867L138.2 339.6L143 343.733C150.733 350.667 160.333 354.8 170.067 355.6C177.8 356.267 182.067 355.467 201.667 350.267C214.2 346.933 231.533 342.667 240.333 340.667C268.2 334.4 273.8 332.267 281.8 325.067C291.933 315.733 296.333 306.133 296.2 294C295.933 281.6 284.333 212.533 280.867 203.333C279.4 199.2 276.733 194.267 274.867 192.133C273.133 190 271.667 187.6 271.667 186.933C271.667 186.133 279.133 175.333 288.333 162.8C297.533 150.267 306.067 137.467 307.267 134.4C308.467 131.2 309.4 124.533 309.4 119.333C309.533 104 304.6 97.0666 283 82.4C276.467 77.8666 260.867 67.0666 248.6 58.2666C236.333 49.6 223.133 41.0666 219.267 39.2C211.267 35.6 199.533 34.9333 191.267 37.8666ZM209.533 61.8666C212.067 62.9333 220.333 68.1333 227.933 73.4666C235.4 78.8 249.8 88.8 259.8 95.6C269.8 102.4 279.533 109.733 281.533 112C285.4 116.667 286.067 123.867 283.267 128.8C280.867 132.933 251.8 170.4 250.333 171.333C249.667 171.733 246.333 170.533 243.133 168.667C233.8 163.2 225.267 163.733 211.533 170.533L200.467 175.867L187.8 168C169 156.133 155.533 146.4 152.6 142.533C149.267 138 148.2 128.133 150.467 123.867C152.333 120.267 186.6 73.0666 190.867 68.1333C194.067 64.4 200.867 60 203.4 60C204.333 60 207.133 60.8 209.533 61.8666ZM135.8 160.4C139.533 164.533 146.467 170 153.133 173.867L164.2 180.533L156.6 182.267C147.667 184.267 143.533 186.267 136.467 191.867L131.267 196H110.467C99 196 87.2666 196.667 84.3333 197.467C74.0666 200.267 64.2 213.467 67.6666 220C71.6666 227.467 79.8 228.133 84.8666 221.2L87.8 217.333H102.467C117.133 217.333 117.133 217.333 116.067 220.267C113.8 226.533 115.4 247.067 120.867 279.867C123.8 298.533 126.333 314.267 126.333 314.933C126.333 315.6 115.8 316 101.667 315.733L77.1333 315.333L71.6666 310C68.0666 306.4 65.6666 302.533 64.3333 298C62.0666 290 55.2666 199.467 56.4666 194.667C58.0666 189.067 60.3333 186.667 71.2666 179.467C77 175.6 85.8 169.6 90.8666 166.267C102.067 158.8 114.467 154.4 127.667 153.467C128.733 153.467 132.467 156.533 135.8 160.4ZM237.667 207.067C242.067 208.933 248.733 210.8 252.6 211.333L259.533 212.267L260.733 219.067C261.533 222.933 263.4 233.733 265 243.333C266.6 252.8 269.133 267.733 270.6 276.267C272.067 284.933 272.867 293.467 272.467 295.333C270.867 301.467 263.667 307.867 254.2 311.333C246.2 314.133 184.733 329.333 181.133 329.333C180.2 329.333 175.667 326.133 171.133 322.267C166.6 318.4 160.733 314.4 158.2 313.467C149.8 310.4 149.8 310.267 147.4 296.533C143.267 271.733 138.333 237.733 138.333 233.6C138.333 228.8 146.867 217.2 153.4 213.2C158.733 210 162.867 210 177.8 213.333C184.333 214.8 192.467 216 195.8 216C204.6 216 214.733 212.667 221.267 207.467C224.467 204.933 227.667 203.067 228.333 203.333C229.133 203.6 233.267 205.333 237.667 207.067Z" fill="currentColor"/>
<path d="M198.6 78.8001C191.8 82.2667 184.867 90.1334 180.067 99.8667C175.267 109.467 175.4 115.333 180.2 119.467C182.2 121.2 184.733 122.667 185.8 122.667C189.133 122.667 194.067 116.667 195.667 110.533C196.6 107.333 198.733 102.667 200.6 100.267C203.8 96.0001 204.2 95.8667 210.333 96.6667C214.067 97.2001 217.8 96.9334 219.4 96.1334C223.133 94.1334 224.067 88.8001 221.667 84.1334C217.4 75.7334 208.867 73.7334 198.6 78.8001Z" fill="currentColor"/>
<path d="M217.667 220.667C211.8 226.533 214.867 234.667 223 234.667C225.4 234.667 229 235.2 230.867 236C235.267 237.6 239.667 244.8 239.667 250.133C239.667 259.733 249.4 264.667 255.4 258.267C259.133 254.267 259.133 249.867 255.133 240C248.733 224.267 240.333 217.333 227.667 217.333C222.2 217.333 220.2 218 217.667 220.667Z" fill="currentColor"/>
<path d="M154.6 228.667C150.067 233.733 148.333 240.267 149.4 247.733C153.267 272.267 159.533 300.267 161.667 302.667C164.6 305.867 171.933 306.267 174.867 303.2C177.8 300.267 177.667 297.467 172.333 271.467C167 244.533 166.6 241.6 168.733 237.733C171 233.467 170.733 229.733 167.667 226.667C163.667 222.667 159.267 223.333 154.6 228.667Z" fill="currentColor"/>
</svg>
