<svg viewBox="0 0 321 387" fill="none" xmlns="http://www.w3.org/2000/svg">
<path d="M56.9737 2.72943C54.8633 4.23684 50.1904 21.2706 38.7341 68.754C30.1418 103.877 19.4392 146.536 14.917 163.57C0.747323 216.028 -1.66453 233.363 2.40547 255.371C7.37993 282.957 29.9911 317.929 53.6574 334.661L58.0289 337.827L53.9589 352.599C47.9293 373.703 47.6278 377.472 51.547 382.446L54.7126 386.667H160.834H266.956L269.971 382.747C274.041 377.472 274.041 375.512 268.765 355.916L264.243 339.334L276.905 327.576C303.887 302.403 317.454 276.475 320.62 244.97C322.278 228.238 319.112 211.958 299.064 130.407C288.21 86.8429 277.056 41.0176 274.041 28.6569C269.971 11.4724 268.011 5.44277 265.449 3.3324C262.434 0.920539 255.198 0.769798 160.985 0.769798C79.4341 0.769798 59.0841 1.22202 56.9737 2.72943ZM250.374 31.9732C251.128 35.1387 254.595 49.9114 258.062 64.8347C261.529 79.7581 271.177 119.704 279.618 153.772C294.542 213.918 294.994 216.028 294.994 232.911C294.994 243.161 294.089 252.959 293.034 256.879L290.924 263.662L287.004 258.386C275.397 243.011 255.801 229.142 238.014 223.716C229.723 221.153 225.05 220.701 213.141 221.153C194.751 222.058 188.269 224.319 145.76 244.367L112.597 259.894L74.9119 262.305C54.2604 263.511 35.87 264.868 34.2118 265.019C29.3881 265.471 26.9763 258.085 26.2226 239.996C25.4688 220.701 26.3733 215.576 38.2818 171.861C45.3667 145.481 74.1582 29.7121 74.1582 26.9987C74.1582 26.6972 113.502 26.3958 161.588 26.3958H248.867L250.374 31.9732ZM236.205 251.754C244.797 255.974 262.584 271.651 262.584 274.817C262.584 279.641 200.63 280.394 174.552 276.023C148.926 271.802 149.076 272.254 169.879 262.305C196.56 249.342 205.755 246.478 217.362 246.93C224.748 247.231 229.572 248.437 236.205 251.754ZM135.208 294.112C144.403 296.222 157.216 299.388 163.849 300.895C182.39 305.116 210.88 307.226 234.547 306.171C246.003 305.568 257.61 304.664 260.173 304.211C264.544 303.307 264.695 303.458 262.584 306.02C261.378 307.528 257.61 310.693 254.444 313.105L248.566 317.326H160.834H73.103L66.4704 312.502C58.6319 306.925 45.0652 293.207 46.1204 292.152C47.477 290.795 89.5338 288.987 104.306 289.59C112.296 289.891 126.013 292.001 135.208 294.112ZM240.576 345.364C241.933 346.57 242.988 348.529 242.988 349.584C242.988 350.79 243.44 353.805 243.893 356.368L244.948 361.041H161.136H77.4745L78.2282 357.574C78.6804 355.765 79.5849 351.695 80.3386 348.529L81.846 342.952H160.081C229.12 342.952 238.466 343.253 240.576 345.364Z" fill="currentColor"/>
</svg>
