<svg
  xmlns="http://www.w3.org/2000/svg"
  viewBox="0 0 744.03 1000"
  fill="currentColor"
>
  <!--
    Islay coastline from Natural Earth 1:10m admin-0 map subunits (Scotland).
    Source: https://github.com/nvkelso/natural-earth-vector/blob/master/geojson/ne_10m_admin_0_map_subunits.geojson
    Public domain: https://www.naturalearthdata.com/about/terms-of-use/
    Island bounds: -6.503896, 55.578437 to -6.023508, 55.941352.
    Equirectangular projection at 55.8 degrees north; north is up.
  -->
  <path
    d="M733.37,584.93 L729.66,616.33 L730.35,647.50 L735.08,675.41 L744.03,697.73 L744.03,714.99 L725.62,724.41 L709.62,735.96 L697.39,752.21 L690.20,774.86 L680.63,754.23 L652.77,797.06 L617.10,829.80 L576.14,852.90 L532.59,867.14 L466.73,856.37 L446.95,867.14 L435.41,925.33 L428.92,935.76 L414.05,952.69 L374.85,985.20 L335.40,1000.00 L298.47,986.77 L276.79,925.33 L285.99,862.77 L319.71,823.52 L403.71,774.86 L370.31,677.43 L351.28,654.00 L289.83,623.50 L276.79,622.61 L283.34,572.82 L322.73,522.03 L393.25,453.30 L359.47,436.26 L315.11,428.64 L271.31,435.92 L239.86,462.72 L203.43,558.36 L181.69,603.54 L132.16,638.53 L83.00,713.08 L63.40,735.40 L20.04,742.69 L0.57,716.45 L2.27,671.49 L22.06,622.61 L14.24,617.56 L8.19,606.79 L0.00,602.09 L16.51,556.90 L85.58,453.30 L33.65,415.74 L53.95,397.92 L66.74,380.65 L73.17,354.64 L75.00,311.36 L79.15,276.83 L90.88,254.96 L146.84,214.26 L231.41,176.14 L249.75,155.51 L267.21,141.61 L287.38,150.58 L275.65,168.07 L256.62,246.22 L256.62,263.37 L268.22,312.82 L279.81,333.00 L298.91,338.72 L298.91,319.88 L287.25,265.73 L320.46,204.39 L370.31,154.17 L425.64,121.43 L464.09,68.28 L484.00,56.51 L506.06,50.34 L529.19,35.54 L549.54,16.93 L563.41,0.00 L578.91,5.38 L588.87,16.15 L594.22,32.85 L600.84,150.35 L621.89,303.40 L626.74,386.70 L636.26,412.38 L657.94,440.52 L681.38,462.83 L695.94,472.14 L703.31,482.23 L699.41,505.10 L692.35,530.44 L690.20,547.26 L698.02,562.28 L708.23,572.60 L733.37,584.93Z"
  />
</svg>
