<svg xmlns="http://www.w3.org/2000/svg" viewBox="322 466 230 211" fill="currentColor"><desc>Lowland whisky region. Adapted from Scotch regions.svg by Briangotts and Interiot, CC BY-SA 3.0. https://commons.wikimedia.org/wiki/File:Scotch_regions.svg — https://creativecommons.org/licenses/by-sa/3.0/. Cropped and recolored by Peated.</desc><g transform="translate(-103.0381,132.7)"><path d="M 591.96,348.5 C 590.62,348.0 589.5,347.51 587.95,347.02 C 582.08,345.14 575.21,343.3 571.46,342.05 C 566.74,340.47 562.35,339.37 558.0,338.62 C 553.65,337.87 549.37,337.48 544.89,337.48 C 541.76,337.48 539.34,337.51 537.39,337.65 C 535.43,337.78 533.9,338.03 532.52,338.51 C 531.15,338.98 529.91,339.66 528.51,340.68 C 527.12,341.69 525.6,343.08 523.59,344.84 C 521.3,346.86 518.4,348.89 515.57,350.61 C 512.75,352.33 509.96,353.73 507.96,354.33 C 505.81,354.97 503.83,355.92 502.23,357.01 C 500.63,358.1 499.45,359.32 498.91,360.49 C 498.37,361.67 496.25,363.53 493.41,365.75 C 490.58,367.97 486.97,370.51 483.51,373.0 C 481.34,374.56 479.55,375.94 477.73,377.34 C 478.12,379.61 479.53,381.41 483.17,384.71 C 491.73,392.49 491.56,395.5 482.54,395.5 C 476.37,395.5 475.12,396.23 473.14,400.99 C 470.64,407.03 470.0,407.26 463.24,404.7 C 458.67,402.97 458.71,403.09 464.78,411.55 C 468.59,416.86 472.6,425.99 475.15,435.31 L 479.27,450.45 L 466.22,462.33 C 454.0,473.45 453.0,474.92 450.99,485.11 C 449.08,494.8 448.37,496.02 444.46,496.02 C 442.04,496.02 439.61,494.85 439.08,493.45 C 438.51,491.99 436.64,491.32 434.61,491.85 C 432.67,492.36 431.54,493.48 432.09,494.37 C 432.64,495.26 432.18,496.02 431.12,496.02 C 430.05,496.02 429.17,498.08 429.17,500.59 C 429.17,503.14 430.23,505.16 431.57,505.16 C 432.92,505.16 435.02,509.11 436.33,514.18 L 438.67,523.27 L 442.68,518.58 C 446.59,514.05 446.94,514.0 453.28,516.64 C 458.04,518.63 461.43,522.16 465.7,529.61 C 468.93,535.24 472.13,539.89 472.74,539.89 C 473.36,539.89 475.73,538.09 478.01,535.95 L 482.13,532.06 L 478.47,524.81 C 476.43,520.82 475.16,517.14 475.66,516.64 C 478.34,513.97 488.04,518.74 491.58,524.47 C 494.77,529.61 496.54,530.75 501.66,530.75 C 506.78,530.75 508.1,529.93 509.05,526.18 C 510.09,522.02 511.08,521.61 519.93,521.61 C 528.21,521.61 530.16,520.92 533.04,516.98 C 536.35,512.45 536.54,512.39 545.0,514.93 C 549.75,516.35 555.0,518.84 556.63,520.47 C 557.06,520.9 556.87,521.0 557.14,521.32 C 557.64,521.11 558.15,520.9 558.58,520.64 C 559.65,519.97 560.5,519.18 561.04,518.41 C 561.72,517.44 563.32,516.14 565.33,514.81 C 567.35,513.48 569.77,512.15 572.15,511.1 C 574.52,510.05 577.31,508.54 579.88,506.93 C 582.44,505.32 584.78,503.64 586.29,502.25 C 589.31,499.47 594.05,495.74 596.82,494.02 C 598.66,492.89 599.92,491.79 600.72,490.43 C 601.52,489.06 601.86,487.45 601.86,485.46 C 601.86,483.35 602.21,481.77 603.12,480.37 C 604.04,478.98 605.53,477.77 607.82,476.38 C 609.46,475.38 611.58,474.47 613.66,473.81 C 615.73,473.14 617.76,472.73 619.27,472.72 C 621.15,472.71 623.67,472.09 626.43,471.12 C 629.18,470.16 632.19,468.81 634.96,467.35 C 637.73,465.89 640.26,464.34 642.17,462.84 C 644.09,461.34 645.41,459.92 645.61,458.84 C 645.97,456.94 647.38,454.11 648.76,452.56 C 649.29,451.96 649.94,450.79 650.59,449.25 C 650.78,448.79 650.95,448.18 651.11,447.59 C 651.09,447.5 650.88,447.26 650.88,447.19 C 650.88,445.89 650.15,444.85 649.27,444.85 C 648.4,444.85 646.66,441.12 645.38,436.57 C 644.1,432.02 642.23,427.8 641.26,427.2 C 640.22,426.56 640.55,425.44 642.0,424.52 C 643.87,423.34 643.56,422.95 640.8,422.92 C 635.65,422.87 624.93,415.83 618.3,408.18 C 613.83,403.04 611.45,401.8 606.56,401.96 C 603.18,402.07 598.82,403.09 596.82,404.24 C 593.22,406.33 593.18,406.36 596.77,406.41 C 600.11,406.46 600.08,406.69 596.14,409.44 C 592.47,412.01 590.84,412.05 584.28,410.07 C 578.15,408.21 577.37,407.55 580.22,406.53 C 582.97,405.54 581.06,404.17 571.52,400.36 C 564.78,397.67 557.35,395.5 555.03,395.5 C 550.55,395.5 539.44,385.41 541.57,383.28 C 542.26,382.59 549.46,384.75 557.54,388.08 L 572.2,394.13 L 583.6,388.54 C 598.07,381.42 602.89,380.1 605.7,382.43 C 608.43,384.69 623.39,382.95 623.39,380.37 C 623.39,377.9 618.36,373.96 610.85,370.6 C 605.32,368.13 604.81,367.28 605.81,362.26 C 606.85,357.09 606.59,356.81 602.78,358.15 C 597.94,359.86 581.7,359.97 580.05,358.32 C 578.64,356.92 586.8,349.95 589.95,349.87 C 590.96,349.84 591.65,349.23 591.96,348.5 z " fill-rule="evenodd" /></g></svg>
