<svg xmlns:dc="http://purl.org/dc/elements/1.1/" xmlns:cc="http://creativecommons.org/ns#"
    xmlns:rdf="http://www.w3.org/1999/02/22-rdf-syntax-ns#" xmlns:svg="http://www.w3.org/2000/svg"
    xmlns="http://www.w3.org/2000/svg" id="svg4" xml:space="preserve" y="0px" x="0px" version="1.1"
    viewBox="228.92 317.75 566.16 132.5"><metadata id="metadata10"><rdf:RDF><cc:Work rdf:about=""><dc:format>image/svg+xml</dc:format><dc:type rdf:resource="http://purl.org/dc/dcmitype/StillImage"></dc:type></cc:Work></rdf:RDF></metadata><defs id="defs8"></defs><path id="path2" d="m296.94 317.75c-2.83 0-5.87 0-6.74 0.02s-2.28 0.06-3.12 0.09c-0.85 0.02-2.26 0.07-3.13 0.1-0.87 0.04-2.37 0.1-3.32 0.15s-2.51 0.13-3.46 0.19c-0.95 0.05-2.38 0.15-3.19 0.21-0.8 0.05-2.05 0.15-2.77 0.2-0.72 0.06-2.03 0.17-2.9 0.25s-2.14 0.2-2.81 0.27c-0.68 0.07-1.82 0.2-2.53 0.28s-1.89 0.22-2.61 0.31c-0.73 0.09-1.88 0.24-2.55 0.33s-1.77 0.25-2.45 0.36c-0.67 0.1-1.68 0.26-2.23 0.35s-1.26 0.22-1.58 0.27c-0.32 0.06-1.08 0.2-1.69 0.32-0.61 0.11-1.6 0.31-2.19 0.44-0.6 0.12-1.65 0.36-2.33 0.52-0.69 0.16-1.73 0.42-2.32 0.58s-1.39 0.38-1.78 0.49c-0.39 0.12-1.03 0.32-1.43 0.44-0.4 0.13-0.97 0.32-1.25 0.42-0.29 0.1-0.77 0.27-1.07 0.39-0.29 0.11-0.8 0.31-1.12 0.44-0.32 0.14-0.91 0.4-1.32 0.59-0.4 0.18-1.01 0.49-1.35 0.68s-0.92 0.54-1.27 0.78c-0.36 0.24-0.81 0.56-1 0.71-0.2 0.16-0.57 0.5-0.84 0.77-0.26 0.27-0.58 0.63-0.72 0.82-0.13 0.18-0.33 0.51-0.44 0.73-0.11 0.21-0.25 0.54-0.31 0.72s-0.13 0.46-0.16 0.61c-0.02 0.15-0.04 0.47-0.04 0.73 0 0.25 1.12 22.22 2.48 48.83 1.55 30.21 2.51 48.52 2.55 48.76 0.03 0.22 0.11 0.55 0.17 0.73 0.06 0.19 0.2 0.53 0.31 0.75 0.11 0.23 0.33 0.62 0.49 0.86s0.42 0.6 0.58 0.79c0.15 0.2 0.55 0.62 0.87 0.94 0.32 0.33 0.83 0.79 1.12 1.04 0.3 0.25 0.77 0.62 1.05 0.83 0.27 0.2 0.9 0.64 1.39 0.97 0.5 0.32 1.29 0.82 1.76 1.09 0.47 0.28 1.17 0.67 1.56 0.89 0.39 0.21 1.21 0.63 1.83 0.93 0.62 0.31 1.47 0.71 1.88 0.9s1.1 0.49 1.52 0.68c0.43 0.18 1.16 0.49 1.63 0.68s1.22 0.48 1.67 0.66c0.45 0.17 1.26 0.47 1.81 0.66 0.55 0.2 1.57 0.55 2.27 0.78s1.87 0.6 2.6 0.81c0.73 0.22 1.91 0.56 2.63 0.76 0.71 0.19 1.97 0.52 2.78 0.73 0.81 0.2 2.02 0.49 2.69 0.64 0.66 0.15 1.71 0.37 2.33 0.5 0.61 0.13 1.67 0.34 2.35 0.46 0.68 0.13 1.79 0.33 2.47 0.44s1.61 0.26 2.07 0.33 1.11 0.16 1.44 0.21 1.1 0.15 1.72 0.23 1.65 0.2 2.28 0.27 1.77 0.18 2.54 0.25 1.78 0.15 2.25 0.19c0.47 0.03 1.17 0.08 1.54 0.1 0.38 0.03 1.26 0.07 1.94 0.11 0.69 0.03 2 0.08 2.92 0.11 1.06 0.03 2.78 0.04 4.69 0.02 1.67-0.01 3.47-0.04 4.01-0.07 0.54-0.02 1.52-0.07 2.19-0.1 0.66-0.04 1.73-0.11 2.37-0.15 0.65-0.05 1.79-0.14 2.55-0.21 0.75-0.07 2.05-0.2 2.87-0.29 0.83-0.09 2.07-0.24 2.76-0.34 0.69-0.09 1.68-0.23 2.21-0.31 0.52-0.08 1.41-0.22 1.96-0.31s1.47-0.25 2.04-0.35c0.57-0.11 1.65-0.31 2.4-0.46 0.74-0.15 1.94-0.41 2.67-0.57 0.72-0.16 1.99-0.46 2.81-0.67 0.83-0.2 2.12-0.54 2.87-0.75 0.76-0.2 1.96-0.55 2.67-0.76 0.72-0.22 1.71-0.53 2.22-0.69 0.5-0.16 1.33-0.44 1.83-0.61 0.51-0.18 1.4-0.5 1.98-0.72 0.59-0.21 1.48-0.56 1.99-0.76 0.5-0.2 1.25-0.51 1.66-0.69 0.42-0.17 1.19-0.52 1.73-0.76s1.56-0.73 2.25-1.08c0.7-0.35 1.65-0.84 2.11-1.1 0.46-0.25 1.11-0.62 1.44-0.82s0.96-0.6 1.4-0.89 1.05-0.72 1.36-0.94c0.3-0.23 0.8-0.62 1.09-0.87 0.3-0.25 0.79-0.7 1.09-1s0.67-0.7 0.83-0.9c0.15-0.19 0.42-0.56 0.59-0.81s0.4-0.65 0.51-0.89c0.12-0.25 0.26-0.61 0.32-0.81s0.12-0.52 0.15-0.71c0.02-0.19 1.16-22.1 2.52-48.69 1.37-26.6 2.49-48.57 2.49-48.83 0-0.27-0.02-0.6-0.05-0.75s-0.1-0.42-0.15-0.61c-0.06-0.18-0.2-0.51-0.32-0.73-0.11-0.22-0.33-0.57-0.48-0.78-0.15-0.2-0.48-0.56-0.72-0.8-0.24-0.25-0.6-0.57-0.79-0.73-0.2-0.15-0.6-0.44-0.9-0.64-0.3-0.21-0.77-0.51-1.06-0.67-0.29-0.17-0.86-0.47-1.27-0.67s-0.95-0.45-1.19-0.56c-0.24-0.1-0.72-0.3-1.06-0.43-0.35-0.14-1.03-0.4-1.51-0.57-0.49-0.18-1.37-0.47-1.97-0.65-0.6-0.19-1.5-0.45-2-0.59-0.5-0.13-1.36-0.36-1.91-0.49-0.55-0.14-1.42-0.35-1.95-0.46-0.52-0.12-1.36-0.3-1.85-0.41-0.5-0.1-1.49-0.29-2.22-0.43-0.72-0.13-1.99-0.36-2.82-0.5-0.82-0.13-2.07-0.33-2.77-0.43-0.7-0.11-1.9-0.28-2.67-0.38s-1.85-0.25-2.42-0.31c-0.56-0.07-1.61-0.19-2.33-0.28-0.72-0.08-1.97-0.21-2.77-0.29-0.81-0.08-1.99-0.19-2.63-0.25s-1.63-0.14-2.19-0.19c-0.56-0.04-1.67-0.13-2.46-0.18-0.79-0.06-1.88-0.13-2.42-0.17-0.54-0.03-1.46-0.09-2.04-0.13-0.59-0.03-1.62-0.09-2.3-0.12-0.67-0.04-1.9-0.09-2.73-0.12-0.82-0.04-2.08-0.09-2.79-0.11-0.71-0.03-1.95-0.06-2.75-0.09-0.81-0.02-3.78-0.05-6.61-0.06zm-1.51 3.29h0.01c1.18-0.01 3.45 0.01 5.04 0.03 1.6 0.02 3.6 0.06 4.44 0.08 0.85 0.02 2.08 0.06 2.73 0.09 0.66 0.02 1.86 0.07 2.67 0.1 0.82 0.03 2.19 0.1 3.05 0.15 0.86 0.04 2.28 0.13 3.17 0.18 0.88 0.06 2.34 0.17 3.25 0.23 0.91 0.07 2.28 0.19 3.04 0.25 0.77 0.07 2.14 0.2 3.05 0.3 0.9 0.09 2.13 0.22 2.73 0.29s1.68 0.2 2.42 0.29c0.73 0.09 2.11 0.28 3.06 0.42 0.95 0.13 2.27 0.33 2.92 0.43 0.66 0.11 1.73 0.29 2.38 0.4 0.65 0.12 1.85 0.34 2.67 0.51 0.81 0.16 2.03 0.41 2.71 0.56 0.67 0.15 1.85 0.43 2.6 0.62 0.76 0.19 1.88 0.49 2.49 0.66 0.6 0.18 1.65 0.51 2.33 0.73 0.68 0.23 1.61 0.57 2.08 0.75 0.46 0.19 1.09 0.45 1.39 0.59 0.31 0.14 0.75 0.36 0.99 0.49s0.63 0.35 0.86 0.49 0.55 0.35 0.73 0.48c0.17 0.13 0.43 0.34 0.57 0.48 0.15 0.13 0.35 0.35 0.45 0.48 0.11 0.14 0.25 0.37 0.32 0.53 0.12 0.24 0.14 0.33 0.14 0.59 0 0.27-0.02 0.36-0.14 0.59-0.07 0.15-0.24 0.39-0.36 0.54-0.13 0.15-0.37 0.39-0.54 0.53-0.16 0.15-0.57 0.45-0.89 0.67l-0.6 0.4-0.12-0.09c-0.07-0.05-0.4-0.2-0.74-0.34-0.35-0.14-1.07-0.41-1.6-0.6-0.54-0.2-1.43-0.5-1.98-0.67s-1.44-0.43-1.98-0.58-1.35-0.37-1.81-0.48c-0.46-0.12-1.17-0.29-1.59-0.38-0.41-0.1-1.14-0.26-1.62-0.36s-1.34-0.27-1.9-0.37-1.59-0.28-2.29-0.4c-0.7-0.11-1.74-0.27-2.32-0.35-0.57-0.08-1.41-0.19-1.85-0.25-0.45-0.06-1.23-0.15-1.73-0.21-0.51-0.06-1.39-0.15-1.96-0.21-0.58-0.06-1.48-0.14-2-0.19-0.53-0.04-1.33-0.11-1.78-0.14-0.45-0.04-1.08-0.08-1.42-0.11-0.33-0.02-1.06-0.07-1.62-0.1-0.56-0.04-1.62-0.09-2.36-0.13-0.73-0.03-1.81-0.08-2.4-0.1-0.58-0.02-1.84-0.06-2.8-0.09s-2.93-0.05-4.38-0.05l-2.64-0.01-0.24 0.1c-0.14 0.06-0.34 0.19-0.49 0.33-0.16 0.15-0.29 0.32-0.38 0.5l-0.14 0.28v0.84l0.16 0.32c0.1 0.21 0.22 0.37 0.35 0.49 0.1 0.09 0.29 0.21 0.42 0.27 0.18 0.09 0.31 0.12 0.69 0.15 0.26 0.02 1.28 0.03 2.28 0.03 1 0.01 2.58 0.02 3.52 0.05 0.94 0.02 2.27 0.06 2.95 0.08 0.67 0.02 1.83 0.07 2.56 0.11 0.73 0.03 1.65 0.08 2.04 0.1s1.17 0.07 1.73 0.11c0.75 0.04 1.7 0.15 3.51 0.39 1.36 0.19 3.79 0.52 5.4 0.73 1.6 0.22 3.46 0.47 4.13 0.56 0.66 0.09 2.11 0.29 3.22 0.44 1.27 0.17 2.25 0.33 2.65 0.42 0.35 0.08 1.04 0.25 1.55 0.38 0.5 0.12 1.22 0.31 1.58 0.42 0.37 0.1 0.98 0.28 1.36 0.39 0.38 0.12 0.95 0.3 1.26 0.4 0.32 0.1 0.57 0.2 0.56 0.21s-0.31 0.12-0.68 0.24c-0.36 0.13-0.98 0.34-1.38 0.46-0.4 0.13-1.05 0.32-1.44 0.44-0.4 0.11-1.07 0.29-1.49 0.41-0.43 0.11-1.2 0.31-1.73 0.44-0.53 0.12-1.25 0.29-1.61 0.37-0.35 0.08-1.05 0.23-1.54 0.34-0.49 0.1-1.35 0.27-1.9 0.38-0.55 0.1-1.47 0.27-2.04 0.37-0.58 0.1-1.57 0.27-2.21 0.37-0.64 0.11-1.88 0.3-2.75 0.42-0.87 0.13-2.34 0.32-3.26 0.44-0.91 0.11-2.25 0.27-2.98 0.35-0.72 0.09-1.97 0.22-2.77 0.3s-2.11 0.2-2.9 0.27-2.19 0.18-3.11 0.25c-0.91 0.07-2.4 0.17-3.31 0.23-0.91 0.05-2.36 0.14-3.23 0.18-0.87 0.05-2.27 0.12-3.11 0.15-0.84 0.04-2.12 0.08-2.86 0.11-0.73 0.02-2 0.06-2.81 0.08-0.81 0.03-3.56 0.06-6.11 0.07-2.9 0.01-5.61 0.01-7.28-0.02-1.45-0.03-3.25-0.07-4-0.09-0.74-0.02-1.86-0.06-2.48-0.09-0.62-0.02-1.75-0.07-2.52-0.1-0.77-0.04-1.76-0.08-2.19-0.11-0.44-0.02-1.27-0.06-1.86-0.1-0.58-0.03-1.62-0.1-2.31-0.14-0.69-0.05-1.63-0.12-2.09-0.15-0.46-0.04-1.18-0.09-1.6-0.12-0.43-0.04-1.41-0.12-2.19-0.19s-2.07-0.19-2.86-0.27-2.02-0.22-2.73-0.3-1.96-0.23-2.77-0.33-2.14-0.28-2.96-0.4c-0.82-0.11-2.14-0.31-2.93-0.44s-2.09-0.35-2.9-0.49c-0.8-0.15-1.89-0.36-2.42-0.46-0.52-0.11-1.51-0.32-2.18-0.47-0.68-0.15-1.79-0.41-2.46-0.58-0.68-0.17-1.61-0.41-2.07-0.54-0.45-0.13-1.21-0.35-1.68-0.5-0.48-0.14-1.14-0.36-1.49-0.48-0.34-0.12-0.93-0.33-1.31-0.48-0.38-0.14-0.81-0.31-0.95-0.37-0.15-0.06-0.46-0.2-0.69-0.3-0.24-0.1-0.7-0.33-1.04-0.5-0.35-0.17-0.79-0.4-0.99-0.52-0.19-0.12-0.49-0.31-0.67-0.42-0.17-0.12-0.42-0.3-0.56-0.4-0.14-0.11-0.42-0.36-0.63-0.57-0.26-0.27-0.42-0.47-0.54-0.69l-0.17-0.31v-0.68l0.18-0.35c0.11-0.22 0.27-0.46 0.45-0.65 0.15-0.16 0.44-0.43 0.64-0.59s0.52-0.39 0.71-0.52c0.2-0.12 0.57-0.34 0.82-0.48 0.26-0.14 0.76-0.4 1.13-0.57 0.36-0.16 1.05-0.46 1.52-0.64 0.47-0.19 1.41-0.53 2.08-0.76 0.68-0.23 1.73-0.55 2.34-0.73 0.6-0.17 1.68-0.46 2.39-0.64 0.72-0.18 1.8-0.44 2.42-0.58s1.45-0.32 1.84-0.4 1.04-0.21 1.46-0.29c0.41-0.08 1.1-0.21 1.54-0.29s1.35-0.24 2.04-0.36c0.69-0.11 1.55-0.25 1.92-0.31s1.39-0.21 2.27-0.33c0.89-0.13 2.28-0.32 3.11-0.42s2.1-0.26 2.84-0.34c0.73-0.08 1.79-0.19 2.35-0.25 0.56-0.05 1.54-0.15 2.17-0.2 0.63-0.06 1.36-0.13 1.63-0.15 0.26-0.02 0.97-0.08 1.58-0.13 0.61-0.04 1.35-0.1 1.65-0.12s0.82-0.06 1.17-0.09c0.34-0.02 1.06-0.06 1.6-0.1 0.54-0.03 1.51-0.09 2.15-0.12 0.64-0.04 1.77-0.09 2.5-0.13 0.73-0.03 1.83-0.08 2.44-0.1 0.61-0.03 1.7-0.07 2.42-0.09s2.29-0.06 3.48-0.08c1.19-0.03 2.63-0.05 3.19-0.06 0.56 0 1.99-0.01 3.17-0.01zm11.12 7.45c-0.14 0.01-0.35 0.04-0.47 0.07-0.13 0.03-0.32 0.11-0.43 0.17s-0.3 0.21-0.43 0.33c-0.12 0.13-0.28 0.35-0.35 0.49s-0.15 0.39-0.18 0.56c-0.04 0.22-0.04 0.37 0 0.58 0.02 0.15 0.1 0.39 0.17 0.54 0.08 0.17 0.22 0.36 0.37 0.51s0.34 0.29 0.51 0.37c0.16 0.08 0.4 0.15 0.57 0.18 0.19 0.02 0.38 0.02 0.56-0.01 0.14-0.02 0.38-0.09 0.51-0.16 0.14-0.06 0.36-0.21 0.5-0.33 0.16-0.15 0.28-0.31 0.38-0.52 0.09-0.17 0.17-0.43 0.2-0.58 0.04-0.21 0.04-0.35 0-0.58-0.03-0.17-0.11-0.42-0.18-0.56s-0.22-0.36-0.34-0.48c-0.13-0.12-0.32-0.28-0.43-0.34-0.12-0.06-0.32-0.14-0.46-0.17-0.13-0.04-0.36-0.07-0.5-0.06v-0.01zm470.49 6.02v34.15c-0.96-0.48-1.92-0.96-2.88-1.32-4.21-1.8-8.66-2.64-13.35-2.64-4.57 0-9.13 0.84-13.34 2.64-4.09 1.68-7.7 4.21-10.94 7.33-3.13 3.13-5.54 6.86-7.34 10.95-1.68 4.21-2.65 8.65-2.65 13.22 0 4.69 0.97 9.14 2.65 13.35 1.8 4.09 4.21 7.81 7.34 10.94 3.24 3.13 6.85 5.65 10.94 7.34 4.21 1.8 8.77 2.64 13.34 2.64s9.14-0.84 13.35-2.64c4.09-1.69 7.7-4.21 10.94-7.34 3.13-3.13 5.53-6.85 7.34-10.94 1.8-4.21 2.64-8.66 2.64-13.35v-58.31l-18.04-6.02zm-544.56 2.95c0.01 0 0.26 0.15 0.57 0.33s0.87 0.49 1.25 0.68c0.38 0.2 0.95 0.47 1.26 0.61 0.32 0.13 0.89 0.37 1.27 0.53 0.39 0.15 1.07 0.4 1.52 0.56 0.44 0.16 1.19 0.41 1.66 0.56 0.48 0.15 1.33 0.4 1.9 0.56 0.58 0.16 1.64 0.44 2.36 0.62s1.78 0.44 2.35 0.56c0.58 0.13 1.61 0.35 2.29 0.49s1.81 0.35 2.5 0.48 1.83 0.32 2.53 0.44c0.7 0.11 1.86 0.29 2.57 0.39 0.71 0.11 1.84 0.26 2.52 0.35 0.68 0.1 1.63 0.22 2.11 0.28s1.44 0.17 2.12 0.25c0.69 0.08 1.91 0.21 2.71 0.29 0.81 0.08 1.97 0.19 2.59 0.25s1.83 0.16 2.69 0.23 2.25 0.17 3.09 0.23c0.83 0.06 2.16 0.14 2.94 0.19 0.78 0.04 1.79 0.1 2.25 0.12 0.46 0.03 1.47 0.07 2.25 0.11 0.78 0.03 1.98 0.08 2.67 0.1 0.69 0.03 1.87 0.06 2.62 0.08 0.76 0.03 3.07 0.07 5.13 0.09 2.92 0.04 4.59 0.04 7.49 0 2.05-0.02 4.35-0.06 5.11-0.08 0.75-0.03 1.95-0.06 2.65-0.09 0.7-0.02 1.92-0.07 2.71-0.1 0.79-0.04 1.97-0.09 2.62-0.13 0.66-0.03 1.51-0.08 1.9-0.1 0.39-0.03 1.15-0.07 1.69-0.11 0.54-0.03 1.25-0.08 1.58-0.1 0.34-0.02 1.22-0.09 1.96-0.15 0.75-0.05 1.69-0.13 2.09-0.17 0.4-0.03 1.14-0.1 1.64-0.14 0.51-0.05 1.58-0.15 2.38-0.23s2.11-0.22 2.9-0.31 2.03-0.24 2.75-0.34c0.72-0.09 1.79-0.23 2.36-0.31s1.59-0.23 2.27-0.34c0.68-0.1 1.73-0.27 2.34-0.37 0.6-0.1 1.51-0.26 2.02-0.35 0.5-0.1 1.4-0.27 1.98-0.38 0.59-0.12 1.58-0.32 2.21-0.46s1.86-0.43 2.73-0.64c0.87-0.22 2.07-0.53 2.67-0.7s1.48-0.44 1.96-0.6c0.48-0.15 1.21-0.4 1.63-0.54 0.41-0.15 1.02-0.39 1.36-0.52 0.34-0.14 0.86-0.35 1.15-0.48s0.84-0.39 1.22-0.58c0.38-0.2 0.96-0.51 1.29-0.71s0.6-0.35 0.6-0.35c0.01 0.01-0.93 18.44-2.08 40.95l-2.1 40.92-0.17 0.34c-0.09 0.19-0.3 0.52-0.47 0.75s-0.55 0.64-0.83 0.92c-0.28 0.27-0.74 0.68-1.02 0.89-0.27 0.22-0.7 0.55-0.95 0.73-0.26 0.18-0.69 0.48-0.98 0.67s-0.85 0.53-1.24 0.76c-0.38 0.23-0.97 0.56-1.29 0.74-0.32 0.17-1.08 0.57-1.69 0.87-0.6 0.3-1.54 0.75-2.08 0.99-0.54 0.25-1.4 0.63-1.92 0.84-0.52 0.22-1.36 0.56-1.88 0.76-0.51 0.2-1.41 0.54-2 0.75-0.58 0.21-1.54 0.55-2.13 0.74-0.58 0.2-1.55 0.51-2.14 0.7-0.6 0.19-1.7 0.52-2.45 0.73-0.75 0.22-1.95 0.55-2.65 0.73-0.71 0.18-1.79 0.45-2.41 0.6s-1.59 0.37-2.17 0.5c-0.57 0.13-1.56 0.33-2.19 0.46s-1.65 0.33-2.27 0.44c-0.62 0.12-1.7 0.3-2.4 0.42-0.7 0.11-1.92 0.3-2.71 0.42-0.79 0.11-1.97 0.27-2.62 0.35-0.66 0.08-1.63 0.19-2.17 0.25-0.54 0.05-1.5 0.15-2.13 0.21-0.63 0.05-1.51 0.13-1.96 0.16-0.45 0.04-1.26 0.09-1.81 0.13-0.55 0.03-1.59 0.09-2.32 0.12-0.72 0.04-2.15 0.09-3.19 0.11-1.14 0.03-2.83 0.04-4.31 0.03-1.34-0.02-3.14-0.06-3.99-0.09-0.84-0.04-2.02-0.09-2.6-0.13-0.59-0.03-1.34-0.08-1.67-0.1-0.33-0.03-1.06-0.08-1.63-0.13-0.56-0.05-1.5-0.13-2.08-0.19-0.59-0.05-1.56-0.16-2.17-0.23-0.61-0.06-1.32-0.15-1.58-0.18-0.27-0.04-0.7-0.09-0.96-0.13-0.27-0.03-0.94-0.13-1.51-0.21-0.56-0.08-1.59-0.24-2.29-0.35-0.7-0.12-1.74-0.29-2.31-0.4-0.58-0.1-1.66-0.31-2.4-0.46-0.75-0.15-1.86-0.38-2.48-0.52s-1.61-0.36-2.19-0.5c-0.59-0.14-1.66-0.41-2.4-0.61-0.73-0.19-1.76-0.47-2.29-0.62s-1.42-0.42-1.98-0.59-1.4-0.43-1.86-0.58-1.16-0.38-1.56-0.52-1.09-0.38-1.54-0.54c-0.44-0.16-1.21-0.45-1.71-0.64-0.49-0.19-1.27-0.5-1.72-0.69-0.46-0.18-1.05-0.43-1.32-0.55-0.27-0.11-0.88-0.39-1.37-0.61-0.48-0.22-1.29-0.61-1.81-0.87-0.51-0.26-1.23-0.63-1.58-0.82-0.36-0.19-0.93-0.52-1.27-0.72-0.35-0.2-0.89-0.53-1.21-0.74-0.33-0.2-0.81-0.53-1.09-0.73-0.27-0.19-0.72-0.53-0.99-0.75-0.27-0.21-0.71-0.6-0.98-0.86-0.26-0.25-0.6-0.62-0.76-0.8-0.15-0.19-0.35-0.47-0.44-0.63-0.09-0.15-0.2-0.36-0.24-0.45-0.06-0.14-0.35-5.74-2.15-40.87-1.15-22.38-2.1-40.8-2.11-40.93-0.01-0.14-0.01-0.24-0.01-0.24zm180.44 1.02v93.79h18.87v-32.59h13.35c4.81 0 9.38-0.48 13.35-1.68 4.21-1.2 7.93-3.13 10.94-5.65 3.25-2.65 5.77-5.89 7.34-9.74 1.68-3.97 2.64-8.42 2.64-13.47 0-8.9-2.77-16.47-7.94-21.76-5.65-5.89-13.94-8.9-24.52-8.9h-34.03zm229.74 5.29l-18.03 6.02v46.65c0 5.05 0.96 9.86 2.88 14.43 1.81 4.45 4.57 8.41 7.94 11.78 3.36 3.49 7.33 6.13 11.78 8.06 4.57 1.92 9.5 2.88 14.55 2.88v-18.03c-10.58 0-19.12-8.54-19.12-19.12v-14.31h19.12v-16.84h-19.12v-21.52zm-210.87 12.63h14.07c4.57 0 8.3 1.2 10.7 3.24 2.41 2.05 3.61 5.17 3.61 9.26 0 3.97-1.2 7.1-3.48 9.26-2.65 2.41-6.86 3.61-12.51 3.61h-12.39v-25.37zm164.64 8.17l0.12 3.85c-4.81-2.4-10.1-3.72-15.51-3.72-4.57 0-9.14 0.84-13.35 2.64-4.09 1.8-7.7 4.21-10.94 7.33-3.13 3.13-5.53 6.86-7.34 10.95-1.68 4.21-2.64 8.77-2.64 13.34s0.96 9.14 2.64 13.35c1.81 4.09 4.21 7.7 7.34 10.94 3.24 3.13 6.85 5.53 10.94 7.34 4.21 1.68 8.78 2.64 13.35 2.64 5.41 0 10.7-1.32 15.51-3.73l-0.12 2.77h18.03v-67.7h-18.03zm-83.66 0.37c-9.13 0-17.55 3.6-24.05 9.97-6.37 6.38-9.85 14.92-9.85 23.93 0 9.02 3.48 17.56 9.85 23.93 6.5 6.37 14.92 9.98 24.05 9.98 4.69 0 9.26-0.96 13.59-2.88 4.21-1.81 7.94-4.45 11.06-7.7l-12.74-12.03c-3.13 3.37-7.34 5.18-11.91 5.18-5.89 0-11.06-3.13-13.94-7.7h47.73v-8.78c0-9.01-3.49-17.55-9.86-23.93-6.37-6.37-14.91-9.97-23.93-9.97zm179.66 0c-9.14 0-17.56 3.6-24.05 9.97-6.37 6.38-9.86 14.92-9.86 23.93 0 9.02 3.49 17.56 9.86 23.93 6.49 6.37 14.91 9.98 24.05 9.98 4.69 0 9.26-0.96 13.59-2.88 4.2-1.81 7.93-4.45 11.06-7.7l-12.75-12.03c-3.12 3.37-7.33 5.18-11.9 5.18-5.89 0-11.06-3.13-13.95-7.7h47.74v-8.78c0-9.01-3.49-17.55-9.86-23.93-6.38-6.37-14.91-9.97-23.93-9.97zm-370.24 4.05c-0.41 0-1.15 0.02-1.63 0.04-0.48 0.01-1.19 0.05-1.58 0.08-0.39 0.02-1.08 0.08-1.52 0.13-0.45 0.04-1.16 0.12-1.59 0.18-0.42 0.06-1.19 0.18-1.71 0.28-0.51 0.09-1.37 0.25-1.9 0.37-0.53 0.11-1.4 0.32-1.94 0.45-0.54 0.14-1.34 0.36-1.79 0.48-0.45 0.13-1.36 0.42-2.04 0.65-0.68 0.22-1.56 0.54-1.96 0.69-0.4 0.16-1.17 0.47-1.71 0.69l-0.98 0.41-0.07-0.3c-0.04-0.16-0.14-0.39-0.21-0.5s-0.21-0.26-0.3-0.33c-0.1-0.07-0.24-0.15-0.32-0.19-0.08-0.03-0.23-0.07-0.33-0.1-0.1-0.02-0.38-0.06-0.62-0.07l-0.44-0.04-0.06-0.1c-0.04-0.05-0.14-0.18-0.23-0.27-0.1-0.12-0.29-0.24-0.5-0.35-0.19-0.09-0.64-0.25-1.01-0.35-0.36-0.11-0.88-0.24-1.14-0.29-0.27-0.06-0.89-0.16-1.38-0.23s-1.16-0.15-1.49-0.17c-0.4-0.03-0.75-0.03-1.1 0-0.29 0.02-0.66 0.07-0.83 0.1-0.17 0.04-0.47 0.12-0.67 0.19-0.21 0.07-0.48 0.18-0.62 0.25s-0.38 0.2-0.52 0.29c-0.15 0.09-0.38 0.22-0.51 0.29-0.14 0.07-0.57 0.24-0.97 0.38-0.39 0.14-0.87 0.32-1.06 0.4s-0.65 0.31-1.03 0.51c-0.38 0.19-0.86 0.46-1.08 0.58-0.22 0.13-0.57 0.35-0.77 0.49-0.21 0.15-0.61 0.46-0.89 0.71l-0.52 0.44h-2.7c-1.48 0-3.16 0.02-3.73 0.04-0.58 0.02-1.4 0.06-1.84 0.08-0.44 0.03-1.28 0.09-1.87 0.13-0.6 0.05-1.53 0.13-2.07 0.19s-1.28 0.14-1.65 0.19c-0.36 0.04-1.1 0.15-1.62 0.23-0.53 0.08-1.42 0.23-1.97 0.33s-1.4 0.27-1.88 0.37c-0.47 0.11-1.23 0.29-1.68 0.4s-1.18 0.31-1.62 0.44c-0.45 0.13-1.22 0.36-1.71 0.53-0.5 0.16-1.3 0.44-1.8 0.62-0.49 0.19-1.27 0.49-1.73 0.69-0.46 0.19-1.33 0.6-1.93 0.89-0.61 0.3-1.33 0.66-1.61 0.82-0.28 0.15-0.85 0.48-1.27 0.73s-1.1 0.69-1.53 0.97c-0.42 0.28-1.09 0.76-1.48 1.05-0.4 0.3-0.91 0.7-1.14 0.89-0.22 0.19-0.63 0.57-0.89 0.83-0.27 0.27-0.65 0.68-0.84 0.92s-0.48 0.64-0.64 0.88-0.41 0.68-0.55 0.98c-0.15 0.29-0.33 0.74-0.41 0.98-0.09 0.25-0.19 0.63-0.24 0.86-0.04 0.22-0.1 0.65-0.12 0.95-0.04 0.38-0.04 0.7-0.01 1.06 0.03 0.29 0.37 4.88 0.76 10.2s0.74 10.18 0.79 10.8c0.06 0.79 0.11 1.22 0.17 1.44 0.04 0.17 0.18 0.5 0.29 0.73 0.12 0.23 0.36 0.63 0.55 0.88s0.56 0.67 0.82 0.93c0.27 0.26 0.69 0.65 0.94 0.85s0.67 0.51 0.92 0.7c0.26 0.18 0.72 0.48 1.03 0.68 0.3 0.19 0.85 0.52 1.22 0.72 0.37 0.21 1.01 0.55 1.43 0.76s1.08 0.52 1.46 0.7c0.38 0.17 1.09 0.48 1.57 0.68 0.49 0.2 1.37 0.55 1.96 0.77 0.6 0.22 1.72 0.62 2.5 0.88s1.9 0.61 2.49 0.78c0.58 0.17 1.45 0.42 1.92 0.55s1.44 0.38 2.16 0.56c0.73 0.18 1.82 0.44 2.44 0.58s1.6 0.35 2.17 0.47c0.57 0.11 1.44 0.28 1.92 0.37s1.32 0.24 1.85 0.33c0.54 0.1 1.47 0.25 2.07 0.34 0.59 0.09 1.64 0.24 2.31 0.33 0.68 0.09 1.72 0.22 2.32 0.29 0.59 0.07 1.55 0.18 2.12 0.23 0.58 0.06 1.6 0.15 2.28 0.21 0.67 0.06 1.84 0.14 2.58 0.19 0.75 0.04 1.75 0.1 2.23 0.12 0.48 0.03 1.57 0.07 2.42 0.09 0.98 0.03 2.7 0.04 4.71 0.03 1.75-0.02 3.59-0.05 4.11-0.07s1.47-0.07 2.11-0.11c0.64-0.03 1.68-0.1 2.31-0.15 0.63-0.04 1.66-0.13 2.3-0.18 0.63-0.06 1.58-0.15 2.12-0.21s1.52-0.17 2.17-0.25 1.77-0.23 2.49-0.33c0.71-0.11 1.77-0.27 2.33-0.36 0.57-0.09 1.61-0.27 2.3-0.4 0.7-0.12 1.78-0.33 2.4-0.46 0.62-0.12 1.64-0.34 2.26-0.48s1.79-0.42 2.61-0.62c0.81-0.2 2.01-0.52 2.67-0.71 0.65-0.18 1.61-0.46 2.12-0.62 0.52-0.16 1.42-0.45 2-0.65 0.59-0.2 1.55-0.54 2.13-0.76 0.59-0.22 1.46-0.56 1.95-0.77 0.49-0.2 1.19-0.5 1.55-0.66s1.07-0.51 1.59-0.77c0.51-0.26 1.21-0.63 1.54-0.82s0.84-0.5 1.12-0.68 0.72-0.47 0.98-0.66c0.25-0.18 0.66-0.49 0.9-0.68 0.24-0.2 0.64-0.56 0.88-0.81 0.24-0.24 0.56-0.6 0.72-0.79 0.15-0.2 0.36-0.51 0.46-0.68 0.11-0.18 0.24-0.44 0.3-0.58s0.15-0.4 0.19-0.57c0.07-0.27 0.13-1.43 0.47-8.84 0.22-4.69 0.6-12.8 0.84-18.02s0.44-9.62 0.44-9.78c0-0.26-0.02-0.34-0.15-0.6-0.11-0.22-0.27-0.42-0.55-0.71-0.22-0.23-0.61-0.59-0.88-0.79-0.27-0.21-0.78-0.58-1.13-0.82-0.36-0.23-0.9-0.57-1.21-0.75-0.3-0.17-0.85-0.46-1.21-0.64s-0.95-0.46-1.31-0.62c-0.37-0.16-0.97-0.41-1.34-0.54-0.37-0.14-0.96-0.35-1.31-0.47-0.36-0.12-1.01-0.32-1.44-0.44-0.44-0.13-1.21-0.34-1.71-0.46-0.5-0.13-1.38-0.32-1.94-0.43-0.56-0.12-1.43-0.28-1.92-0.36s-1.22-0.19-1.62-0.25c-0.41-0.05-1.15-0.15-1.65-0.21-0.51-0.05-1.32-0.14-1.82-0.18-0.49-0.05-1.32-0.12-1.85-0.15-0.53-0.04-1.51-0.08-2.19-0.11-0.68-0.02-1.57-0.04-1.98-0.03zm-29.09 3.63c0.22-0.01 0.65 0.02 0.95 0.05 0.3 0.04 0.85 0.11 1.23 0.17 0.38 0.05 0.88 0.15 1.12 0.21s0.53 0.14 0.65 0.17l0.22 0.06 0.02 0.59 0.04 0.58 0.76-0.03 0.77-0.03v0.18 0.19l-0.45 0.2c-0.25 0.12-1.07 0.51-1.82 0.89-0.76 0.37-1.77 0.89-2.26 1.14-0.48 0.26-1.29 0.7-1.81 0.99s-1.33 0.76-1.81 1.05c-0.48 0.28-1.15 0.68-1.48 0.88-0.33 0.21-0.61 0.37-0.63 0.37s-0.04-0.04-0.04-0.09v-0.1l-0.32-0.03c-0.18-0.01-0.62-0.03-0.98-0.03h-0.65l-0.07-0.26c-0.03-0.15-0.1-0.35-0.15-0.44l-0.08-0.17 0.11-0.26c0.1-0.23 0.11-0.32 0.11-0.7v-0.44l-0.12-0.26-0.13-0.26 0.05-0.43c0.04-0.23 0.06-0.64 0.05-0.91l-0.01-0.49 0.37-0.2c0.21-0.12 0.69-0.37 1.07-0.57 0.38-0.19 0.83-0.4 1.02-0.46 0.18-0.07 0.59-0.21 0.89-0.33 0.31-0.11 0.7-0.27 0.86-0.35s0.45-0.24 0.63-0.36c0.19-0.11 0.46-0.25 0.6-0.3 0.14-0.06 0.4-0.13 0.57-0.16 0.18-0.03 0.5-0.06 0.72-0.06zm-13.11 4.63c0.39-0.01 1 0 1.35 0.02l0.63 0.02v0.1c0 0.06-0.03 0.16-0.06 0.24s-0.22 0.28-0.43 0.46c-0.2 0.18-0.45 0.43-0.55 0.54-0.1 0.12-0.24 0.33-0.3 0.47-0.07 0.13-0.14 0.34-0.16 0.45-0.02 0.12-0.05 0.39-0.06 0.62l-0.03 0.4-0.23 0.37c-0.13 0.2-0.3 0.5-0.38 0.66-0.07 0.16-0.17 0.43-0.2 0.6-0.05 0.22-0.06 0.42-0.05 0.66l0.03 0.35-0.15 0.17c-0.08 0.1-0.21 0.31-0.29 0.47-0.07 0.16-0.18 0.46-0.23 0.67-0.07 0.28-0.1 0.49-0.1 0.87 0 0.28 0.01 0.57 0.03 0.65 0.03 0.12 0.02 0.16-0.03 0.18s-0.25-0.11-0.6-0.39c-0.29-0.22-0.59-0.48-0.67-0.56-0.08-0.09-0.25-0.23-0.38-0.31-0.12-0.09-0.3-0.2-0.39-0.25-0.1-0.04-0.47-0.19-0.84-0.32-0.36-0.13-0.83-0.28-1.05-0.33-0.21-0.06-0.6-0.14-0.88-0.17-0.4-0.06-0.66-0.07-1.49-0.04-0.55 0.02-1.11 0.03-1.25 0.03-0.16 0-0.36-0.04-0.56-0.12-0.17-0.06-0.49-0.17-0.71-0.25-0.22-0.07-0.56-0.16-0.75-0.2-0.22-0.04-0.57-0.07-0.9-0.07-0.3 0-0.86 0.04-1.25 0.09-0.45 0.05-0.97 0.08-1.43 0.08-0.51 0-0.81 0.02-1.02 0.07-0.17 0.04-0.41 0.12-0.55 0.18s-0.35 0.19-0.48 0.29c-0.13 0.09-0.32 0.28-0.43 0.41s-0.21 0.27-0.22 0.31c-0.02 0.05-0.27 0.2-0.68 0.39-0.36 0.17-0.73 0.35-0.82 0.4s-0.27 0.16-0.39 0.24c-0.13 0.08-0.39 0.31-0.59 0.5-0.19 0.2-0.45 0.5-0.57 0.67-0.11 0.17-0.37 0.59-0.56 0.92s-0.41 0.71-0.5 0.84-0.26 0.33-0.37 0.45c-0.11 0.11-0.54 0.43-0.95 0.71-0.41 0.27-0.89 0.61-1.06 0.75-0.18 0.14-0.44 0.38-0.58 0.53-0.14 0.16-0.33 0.41-0.44 0.56-0.1 0.15-0.26 0.43-0.37 0.63-0.1 0.19-0.26 0.44-0.36 0.55-0.1 0.12-0.27 0.3-0.39 0.4-0.11 0.11-0.43 0.38-0.71 0.6-0.27 0.23-0.65 0.57-0.84 0.75l-0.34 0.33-1.14 0.02c-0.67 0.01-1.44 0-1.87-0.03-0.4-0.03-0.94-0.08-1.21-0.11-0.26-0.04-0.69-0.11-0.96-0.16-0.26-0.06-0.64-0.15-0.83-0.21-0.2-0.06-0.47-0.16-0.62-0.22l-0.26-0.12-0.14-0.43c-0.08-0.24-0.18-0.63-0.22-0.86-0.06-0.32-0.07-0.61-0.07-1.27 0-0.65 0.01-0.94 0.07-1.22 0.04-0.2 0.12-0.5 0.18-0.68s0.2-0.52 0.31-0.75c0.11-0.24 0.32-0.61 0.47-0.84 0.15-0.22 0.45-0.62 0.67-0.88 0.22-0.25 0.6-0.64 0.83-0.85s0.61-0.53 0.83-0.7c0.22-0.18 0.63-0.49 0.92-0.68 0.28-0.19 0.71-0.48 0.95-0.62 0.24-0.15 0.78-0.46 1.19-0.68 0.41-0.23 1.02-0.54 1.34-0.7 0.33-0.15 0.79-0.37 1.03-0.48 0.23-0.1 0.7-0.31 1.05-0.46 0.34-0.15 0.97-0.41 1.39-0.58 0.43-0.17 1.15-0.45 1.61-0.63 0.46-0.17 1.22-0.43 1.69-0.59s1.21-0.39 1.65-0.52c0.43-0.12 1.15-0.32 1.6-0.43 0.45-0.12 1.24-0.31 1.75-0.42 0.52-0.12 1.24-0.27 1.61-0.34 0.36-0.07 1-0.18 1.41-0.25 0.42-0.07 1.16-0.18 1.65-0.25 0.5-0.07 1.33-0.17 1.86-0.23 0.53-0.05 1.41-0.14 1.96-0.19 0.55-0.04 1.55-0.11 2.23-0.15 0.68-0.03 1.84-0.08 2.58-0.09 0.75-0.02 1.68-0.04 2.07-0.04zm3.48 2.45c0.02 0 0.18 0.15 0.35 0.33 0.27 0.3 0.32 0.36 0.34 0.54 0.01 0.1 0.06 0.31 0.1 0.46 0.05 0.15 0.14 0.36 0.21 0.47s0.2 0.28 0.3 0.37c0.1 0.1 0.27 0.23 0.38 0.29l0.2 0.12-0.3 0.18c-0.17 0.1-0.92 0.56-1.66 1.01-0.75 0.46-1.42 0.86-1.49 0.9l-0.12 0.08 0.14-0.28c0.09-0.18 0.14-0.37 0.16-0.54 0.02-0.16 0-0.41-0.03-0.62l-0.05-0.34 0.29-0.48c0.17-0.26 0.34-0.57 0.39-0.7 0.05-0.12 0.11-0.37 0.15-0.54 0.03-0.17 0.05-0.42 0.05-0.55l0.01-0.23 0.27-0.24c0.15-0.13 0.29-0.23 0.31-0.23zm229.3 2.67c5.77 0 10.94 3.13 13.95 7.82h-27.89c2.88-4.69 8.05-7.82 13.94-7.82zm179.66 0c5.77 0 10.94 3.13 13.95 7.82h-27.9c2.89-4.69 8.06-7.82 13.95-7.82zm68.38 0.24c8.9 0 16.23 7.34 16.23 16.23 0 9.02-7.33 16.23-16.23 16.23s-16.23-7.21-16.23-16.23c0-8.89 7.33-16.23 16.23-16.23zm-179.77 0.12c3.12 0 6.25 0.84 8.77 2.65 2.65 1.56 4.69 3.96 5.9 6.73 1.08 2.16 1.56 4.45 1.56 6.85 0 2.89-0.72 5.65-2.16 8.18-1.45 2.4-3.37 4.45-5.9 5.77-2.4 1.44-5.29 2.29-8.17 2.29-8.9 0-16.24-7.34-16.24-16.24 0-8.89 7.34-16.23 16.24-16.23zm-312.75 2.98c0.2 0 0.43 0.02 0.61 0.08 0.16 0.04 0.51 0.16 0.79 0.26 0.27 0.11 0.67 0.22 0.87 0.26 0.32 0.06 0.49 0.07 1.09 0.04 0.39-0.02 0.98-0.04 1.31-0.04 0.38 0.01 0.74 0.03 0.96 0.08 0.2 0.04 0.64 0.16 0.98 0.28s0.68 0.24 0.74 0.28 0.25 0.19 0.42 0.34l0.32 0.26-0.3 0.17c-0.17 0.09-0.73 0.38-1.26 0.66-0.52 0.27-1.39 0.7-1.94 0.97-0.54 0.26-1.34 0.64-1.79 0.84s-1.15 0.5-1.56 0.67c-0.42 0.17-1.23 0.49-1.8 0.7-0.57 0.22-1.36 0.49-1.75 0.62-0.39 0.12-0.99 0.31-1.33 0.41-0.34 0.09-0.62 0.16-0.64 0.15-0.01-0.02 0-0.14 0.04-0.29 0.04-0.14 0.1-0.44 0.13-0.66 0.04-0.22 0.15-0.66 0.24-0.99s0.19-0.76 0.23-0.96c0.03-0.2 0.05-0.49 0.06-0.64 0-0.15-0.02-0.38-0.05-0.5-0.02-0.12-0.07-0.32-0.11-0.44l-0.06-0.21 0.23-0.39c0.13-0.22 0.28-0.5 0.33-0.64 0.06-0.14 0.13-0.4 0.16-0.58 0.02-0.18 0.03-0.38 0.02-0.44l-0.03-0.13h0.76c0.49 0 1-0.03 1.39-0.08 0.35-0.04 0.77-0.08 0.94-0.08zm-6.36 2.58l0.05 0.23c0.03 0.13 0.1 0.31 0.14 0.4 0.08 0.15 0.09 0.23 0.07 0.43-0.01 0.14-0.1 0.53-0.19 0.88-0.1 0.34-0.21 0.84-0.26 1.11-0.04 0.26-0.14 0.67-0.21 0.91s-0.17 0.62-0.22 0.85l-0.1 0.42-0.58 0.14c-0.31 0.07-1.08 0.24-1.7 0.36-0.62 0.13-1.38 0.27-1.7 0.32s-0.58 0.08-0.6 0.07c-0.01-0.01 0.08-0.15 0.2-0.32 0.13-0.16 0.33-0.48 0.45-0.72 0.16-0.29 0.31-0.51 0.48-0.68 0.14-0.14 0.61-0.49 1.07-0.81 0.46-0.31 0.95-0.66 1.09-0.78 0.15-0.12 0.39-0.35 0.53-0.51 0.13-0.16 0.34-0.43 0.45-0.6s0.3-0.46 0.4-0.66c0.11-0.19 0.3-0.51 0.42-0.7l0.21-0.34zm-24.92 36.32c0.02 0 0.05 0.02 0.07 0.04 0.01 0.02 0.32 0.27 0.69 0.54 0.37 0.28 1.05 0.76 1.51 1.06s1.15 0.74 1.52 0.96c0.38 0.22 1.04 0.6 1.48 0.84s1.35 0.71 2.01 1.04c0.67 0.33 1.63 0.79 2.14 1.02s1.24 0.55 1.62 0.71c0.39 0.16 1.09 0.45 1.56 0.64 0.47 0.2 1.3 0.52 1.85 0.73 0.55 0.2 1.5 0.54 2.1 0.75s1.67 0.56 2.37 0.79c0.71 0.23 1.76 0.55 2.34 0.72s1.05 0.32 1.05 0.34c0 0.01-0.52 0.82-1.16 1.79-0.63 0.97-1.47 2.25-1.86 2.84l-0.7 1.08-0.11-0.03c-0.06-0.01-0.6-0.2-1.21-0.42s-1.61-0.6-2.23-0.84-1.37-0.54-1.67-0.67c-0.3-0.12-0.88-0.37-1.3-0.55s-1.07-0.47-1.44-0.65c-0.38-0.17-1.16-0.56-1.74-0.85-0.59-0.3-1.36-0.7-1.71-0.9-0.36-0.2-0.9-0.51-1.21-0.69-0.31-0.19-0.84-0.52-1.17-0.73-0.33-0.22-0.77-0.51-0.96-0.65-0.2-0.14-0.63-0.47-0.96-0.74-0.33-0.26-0.85-0.72-1.15-1.02s-0.67-0.71-0.82-0.92c-0.16-0.21-0.36-0.53-0.45-0.71-0.09-0.19-0.19-0.48-0.23-0.65-0.04-0.19-0.1-1.15-0.16-2.45-0.06-1.19-0.11-2.21-0.11-2.29 0-0.07 0.02-0.13 0.04-0.13zm25.76 11.09c0.02 0 0.58 0.13 1.23 0.29 0.65 0.15 1.41 0.34 1.69 0.4l0.5 0.12-1.49 2c-0.83 1.1-1.8 2.41-2.18 2.89-0.37 0.49-0.69 0.92-0.72 0.95-0.04 0.05-0.19 0.02-0.94-0.19-0.49-0.14-1.24-0.36-1.66-0.48-0.43-0.13-0.79-0.25-0.81-0.26s0.08-0.13 0.22-0.28c0.13-0.14 0.51-0.6 0.84-1.01s0.87-1.11 1.2-1.56c0.34-0.45 0.94-1.28 1.34-1.84 0.4-0.57 0.75-1.03 0.78-1.03z" fill="currentColor"></path></svg>
